<?xml version="1.0" encoding="UTF-8"?>
<svg id="Layer_2" data-name="Layer 2" xmlns="http://www.w3.org/2000/svg" viewBox="0 0 717.36 519.79">
  <defs>
    <style>
      .cls-1 {
        fill: #000;
        stroke-width: 0px;
      }
    </style>
  </defs>
  <g id="Layer_1-2" data-name="Layer 1">
    <g>
      <g>
        <path class="cls-1" d="M12.13,106.35c.75.93-.09,2.51,2.21,3.47.97.41,1.55,1.03,2.61,2.28l11.29,13.23c1.61,1.92,2.14,4.22,1.63,5.35-.76,1.7-.86,2.5-.25,2.92.51.36,1.16.09,1.57-.38.21-.24.6-.8,1.18-1.81l5.19-9.06c.71-1.23-.87-2.71-1.64-1.37-.52.91-1.79,1.25-2.77.12l-7.89-9.22c-.08-.11-.1-.2-.06-.39l5.1-8.9c.15-.13.23-.15.37-.15l11.95,2.14c1.48.28,1.82,1.54,1.3,2.45-.77,1.34,1.3,1.96,2.01.72l5.19-9.06c.58-1.02.87-1.64.97-1.94.2-.6.1-1.3-.47-1.55-.67-.31-1.31.17-2.39,1.69-.72,1.01-2.98,1.71-5.44,1.3l-35.18-5.84c-2.31-.32-4.08-.2-4.76.98-.68,1.18.12,2.77,1.57,4.6l6.72,8.41ZM13.17,98.68c.09-.16.27-.34.41-.34l12.11,2.73c.19.04.29.24.2.4l-3.87,6.76c-.09.16-.31.18-.44.03l-8.48-9.06c-.08-.11,0-.36.08-.52Z"/>
        <path class="cls-1" d="M104.03,70.97c.67-.44,3.28-2.21,2.47-3.45-.37-.57-1.04-.35-1.68-.09-2.15.89-3.56.77-4.98-.29-2.43-1.81-4.33-3.81-7.42-2.1-2.9,1.67-4.13,1.36-4.39.73,5.71-7.19,5.54-16.74-.17-25.49-3.95-6.06-11.43-9.96-14.53-8.6-.79.37-1.32.12-1.59-.29-1.42-2.17-9.06-.66-13.98,2.55-8.18,5.33-13.9,18.5-6.07,30.51,6.51,9.99,18.07,12.78,27.09,8.52,2.27-1.04,3.65-1.2,5.64-.51,3.02,1.13,5.31.45,8.29-1.2,1.71-.89,2.41-1.28,5.07.76,1.68,1.34,4.39.17,6.25-1.05ZM79.94,67.28c-7.87,5.13-16.58,1.15-21.88-6.98-5.33-8.18-5.37-17.52,2.24-22.48,7.3-4.76,15.8-1.67,21.57,7.18,5.06,7.76,6.1,17.05-1.93,22.28Z"/>
        <path class="cls-1" d="M213,52.61c-1.15-.46-2.37-2.48-2.56-4.98l-2.73-35.56c-.24-2.32-.78-4.02-2.08-4.39-1.31-.37-2.67.78-4.09,2.62l-21.15,28.72c-1.48,2.02-3.58,3.09-4.81,2.87-1.83-.33-2.63-.24-2.89.46-.23.58.19,1.15.75,1.43.28.14.92.39,2.04.71l10.04,2.88c1.37.39,2.42-1.49.93-1.92-1.01-.29-1.65-1.44-.78-2.67l7.07-9.87c.09-.1.17-.14.37-.15l9.86,2.82c.16.11.2.19.23.32l.77,12.11c.08,1.5-1.06,2.14-2.07,1.85-1.48-.43-1.59,1.73-.22,2.12l10.04,2.88c1.13.32,1.8.45,2.11.48.63.05,1.28-.21,1.39-.82.14-.73-.48-1.23-2.21-1.92ZM202.98,31.04l-7.48-2.14c-.18-.05-.25-.26-.14-.42l6.77-10.4c.09-.1.35-.09.53-.04.18.05.4.18.42.31l.24,12.41c0,.2-.16.34-.34.29Z"/>
        <path class="cls-1" d="M248.32,76.93c1.96,1.79,5.19,5.31,7.2,7.14,1.14,1.04,2.92-.18,5.17-2.65,1.58-1.74,2.15-2.73,1.64-3.18-.23-.21-.67-.27-1.65.17-1.89.79-3.55.69-4.97-.6l-8.13-7.4c-.37-.33-.39-.94-.02-1.36l10.11-11.1c.25-.27.69-.29,1.01,0l5.94,5.41c2.79,2.54,2.11,3.93,1.54,4.83-.2.32-.49.81-.08,1.19,1.46,1.33,5.71-3.16,6.3-3.8,1.29-1.42,1.29-2.33.83-2.75-.23-.21-.63-.32-1.02-.26-1.31.06-2.91-1.39-10.36-8.17-.27-.25-.29-.69-.04-.96l7.4-8.13c.17-.18.43-.2.57-.07l6.9,6.28c3.93,3.58.66,4.78,1.94,5.94.69.62,1.5.19,2.7-1.13,1.46-1.6,2.36-1.95,3.02-2.68.54-.59.56-1.16-.12-1.7-5.62-4.2-12.1-10.76-17.26-15.46-.87-.79-2.09-1.74-2.81-1.05-.54.51-.19,1.5.05,2.05.87,1.8.16,3.4-2.38,6.19l-10.36,11.38c-.79.87-1.95,1.32-2.78,2.23-.25.27-.54.68-.77,1.22-.54,1.51-2.04,3.16-4.06,4.83-2.23,1.81-3.61,2.4-4.74,2.37-.53-.06-.91.09-1.21.41-.42.46-.38,1.16.03,1.62,3.36,3.56,6.48,5.64,10.41,9.22Z"/>
        <path class="cls-1" d="M50.69,207.41c.7-.31.89-.47,1.13-.66.63-.5.74-1.06.15-1.7-1.92-2.03-4.36-4.91-5.93-6.89-2.68-3.39-5.42-7.45-8.57-11.03-.38-.48-1.39-1.66-2.2-1.09-.62.41-.48,1.48-.21,2.53.2.55.6,2.05-4.15,5.81l-22,17.41c-.34.27-1.47.93-2.04.91-.35-.04-.88-.41-.91-.46-.65-.43-1.77-1.44-2.49-.86-.83.74.22,2.27,1.1,3.38l6.75,8.53c.54.68,1.24.67,1.63.37.39-.31.48-1.09-.21-1.96-.81-1.02-1.1-2.68,1.03-4.68.5-.56.74-.66.97-.77.6-.24,1.03-.5,1.22-.65.39-.31.83-1.05.9-1.35.14-.42.52-.73.96-1.08l7.22-5.71c.29-.23.72-.18.95.11l3.87,4.89c3.6,4.55-.12,5.53.84,6.74,1.23,1.55,6.49-2.46,7.22-3.03,1.5-1.19,1.65-2.09,1.27-2.58-.19-.24-.57-.42-.96-.42-1.49.31-4.37-3.63-8.36-8.67-.23-.29-.18-.72.11-.95l8.19-6.48c.39-.31.99-.24,1.34.2l1.07,1.36c8.17,10.32,3.06,9.64,4.36,11.28,1,1.26,2.54-.28,3.85-1.31.68-.54,1.15-.83,1.9-1.19Z"/>
        <path class="cls-1" d="M80.93,228.99c-1.32-1.02-3.26-2.56-4.22-3.53-1.3-1.33-3.02-2.36-3.69-1.56-.28.33-.18.89.16,1.35,1.39,1.81,2.15,3.01.57,4.91l-8.05,9.62c-3.77,4.5-6.04,7.51-7.28,7.84-.51.13-1.03.75-1.06,1.37,0,.4-.21,1.03-1.17,2.17-.83,1-2.35,3.11-3.18,3.71-1.89,1.4-4.48-1.57-5.5-.17-.35.51-.25,1.16.46,2.15.8,1.07,2.09,2.31,3.66,3.62,2.42,2.02,14.56,11.77,15.89,13.36.84,1.02.81,1.24,1.02,1.58.3.41.7.51,1.16.25,1.2-.77,5.24-5.69,6.52-7.6.08-.09.74-1.07.11-1.68-.43-.44-1.13-.38-1.7.11-2.93,2.54-3.75,2.75-6.43,1.63-.59-.25-4.44-3.07-8.22-6.55-1.24-1.12-1.54-2.98-.47-4.26l20.17-24.13c.97-.96,2.27-.6,3.35.23.85.63,1.47.75,1.72.07.41-1.27-1.24-2.57-3.82-4.48Z"/>
        <path class="cls-1" d="M135.88,296.46c-1.16-.45-2.4-2.45-2.62-4.95l-1.34-17.34c-.13-1.64-.15-2.48.24-3.46.95-2.3-.76-2.84-.88-4.02l-1.17-10.7c-.26-2.31-.83-4.01-2.14-4.36-1.31-.36-2.66.81-4.06,2.67l-20.81,28.96c-1.45,2.04-3.55,3.13-4.77,2.92-1.84-.31-2.63-.21-2.89.49-.22.58.2,1.14.76,1.43.28.14.92.38,2.05.69l10.07,2.76c1.37.38,2.4-1.52.91-1.93-1.01-.28-1.66-1.42-.81-2.66l6.95-9.95c.09-.1.17-.15.36-.16l9.89,2.71c.16.11.21.18.23.32l.91,12.1c.1,1.5-1.04,2.15-2.05,1.87-1.49-.41-1.57,1.75-.2,2.12l10.07,2.76c1.13.31,1.8.43,2.12.45.63.04,1.28-.23,1.38-.84.14-.73-.5-1.23-2.24-1.89ZM125.62,275.01l-7.51-2.06c-.18-.05-.25-.26-.14-.42l6.65-10.48c.09-.1.35-.1.53-.05.18.05.4.17.43.31l.38,12.41c.01.2-.16.34-.34.29Z"/>
        <path class="cls-1" d="M207.49,250.56c-2.82.33-6.63,1.28-8.48,1.44l-4.43.4c-.92.11-1.82.4-1.73,1.14.11.92,1.39,1.27,1.78,1.35,1.85.4,2.38.65,2.44,1.2.07.61-.37,1.1-.54,1.74l-6.89,27.01c-.04.19-.16.27-.28.28-.12.01-.25-.03-.34-.21l-12.99-24.66c-.32-.58-.86-.96-.93-1.57-.07-.55.39-.92,2.1-1.74.35-.17,1.52-.8,1.41-1.72-.09-.74-1.03-.81-1.95-.7l-4.4.64c-1.83.28-5.76.24-8.58.58-.74.09-1.94.42-1.83,1.4.09.8,1.18,1.04,1.69,1.11.31.03.56,0,.93.01,1.56.06,3.14.75,3.99,2.14l4.43,7.5c.39.64.47,1.31.5,2.12l.05.93c.06,1.55,1.2,2.22,1.27,2.34,1.11-.13,8.6,14.91,9.7,17.33,1.49,3.12,3.24,5.84,6.25,5.48,3.01-.35,4.08-3.41,4.8-6.79l8.47-33.11c.5-1.55,1.87-2.59,3.38-3.01.36-.1.61-.13.91-.23.48-.18,1.48-.67,1.38-1.47-.12-.98-1.37-1.02-2.1-.93Z"/>
        <path class="cls-1" d="M151.5.11c-2.77.65-6.45,2.02-8.26,2.38l-4.36.89c-.9.21-1.76.6-1.59,1.33.21.9,1.53,1.1,1.92,1.14,1.89.19,2.44.38,2.56.92.14.6-.24,1.14-.34,1.79l-3.82,27.61c-.02.19-.12.28-.24.31s-.25,0-.36-.17l-15.67-23.05c-.38-.55-.96-.85-1.1-1.46-.13-.54.28-.95,1.89-1.96.33-.2,1.42-.97,1.21-1.87-.17-.72-1.11-.69-2.02-.48l-4.3,1.13c-1.79.48-5.69.89-8.46,1.53-.72.17-1.88.63-1.66,1.59.18.78,1.29.9,1.8.91.31-.01.56-.07.93-.09,1.56-.11,3.2.39,4.2,1.68l5.25,6.96c.46.59.61,1.25.73,2.05l.15.92c.23,1.53,1.44,2.08,1.53,2.18,1.08-.25,10.22,13.85,11.58,16.14,1.83,2.94,3.87,5.44,6.82,4.75,2.95-.69,3.67-3.84,4.01-7.28l4.71-33.85c.32-1.6,1.57-2.78,3.02-3.37.35-.14.59-.2.87-.33.45-.23,1.39-.83,1.21-1.62-.23-.96-1.47-.86-2.19-.69Z"/>
        <path class="cls-1" d="M263.25,268.14c-2.77,1.52-5.78-2.86-8.73-7.36l-13.43-20.53c-.81-1.69-.06-2.47,1.11-3.61.57-.59.78-1.4.51-1.81-.54-.83-2.2.48-3.59,1.39l-4.5,2.94c-1.86,1.22-5.89,2.74-5.01,4.09.44.67,1.64.48,3.5-.07.91-.3,1.89-.28,2.53.71l1.69,2.59c1.25,1.91,1.84,2.93,1.94,3.75.09,1.49,1.72,1.83,2.36,2.81l11.57,17.69c.9,1.48.58,2.58-.53,3.82-.47.53-.97,1.23-.53,1.9.3.47.89.45,1.21.39,1.6-.38,8.74-5.49,11.01-6.98.72-.47.88-1.24.61-1.66-.3-.47-1.08-.4-1.73-.05Z"/>
        <path class="cls-1" d="M308.28,193.01c-.71-.21-1.27.38-2.1,2.04-.55,1.11-2.67,2.16-5.17,2.13l-35.66-.27c-2.33.04-4.07.44-4.55,1.71-.48,1.27.55,2.72,2.27,4.3l26.83,23.49c1.89,1.64,2.77,3.83,2.45,5.03-.49,1.8-.46,2.6.21,2.92.56.28,1.16-.09,1.49-.62.17-.27.47-.88.88-1.98l3.71-9.76c.51-1.33-1.28-2.54-1.83-1.09-.37.98-1.57,1.52-2.72.55l-9.24-7.88c-.09-.1-.13-.18-.12-.38l3.65-9.59c.12-.15.2-.19.34-.2l12.13.25c1.5.04,2.04,1.24,1.67,2.22-.55,1.44,1.59,1.73,2.1.4l3.71-9.76c.42-1.1.6-1.75.65-2.07.1-.62-.1-1.3-.7-1.46ZM283.84,203.21l-2.77,7.28c-.07.17-.28.22-.43.1l-9.79-7.62c-.09-.1-.06-.35,0-.53.07-.17.21-.38.35-.4l12.38.81c.2,0,.32.19.26.36Z"/>
        <path class="cls-1" d="M314.64,136.1c-2.34-.25-3.47-.12-3.54.56-.03.31.18.7,1.11,1.24,1.75,1.05,2.66,2.45,2.46,4.36l-1.15,10.94c-.05.49-.53.88-1.08.82l-14.93-1.57c-.37-.04-.64-.38-.6-.81l.84-7.99c.39-3.75,1.91-4.02,2.98-4.1.38-.02.94-.09,1-.64.21-1.97-5.93-2.73-6.79-2.83-1.91-.2-2.65.34-2.71.96-.03.31.11.7.39.97.83,1.02.6,3.17-.45,13.19-.04.37-.38.64-.75.6l-10.94-1.15c-.25-.03-.41-.23-.39-.41l.98-9.28c.56-5.28,3.46-3.36,3.64-5.08.1-.92-.73-1.32-2.51-1.51-2.15-.23-2.97-.75-3.95-.85-.8-.08-1.27.24-1.3,1.11-.05,7.02-1.51,16.12-2.24,23.06-.12,1.17-.16,2.72.82,2.88.73.14,1.32-.73,1.62-1.26.93-1.77,2.65-2.14,6.4-1.75l15.3,1.61c1.17.12,2.22.79,3.44.92.37.04.87.03,1.44-.1,1.54-.46,3.75-.23,6.29.41,2.78.73,4.07,1.48,4.72,2.42.26.46.61.69,1.04.73.61.06,1.16-.38,1.28-.98.88-4.82.71-8.56,1.27-13.85.28-2.64,1.21-7.33,1.49-10.03.16-1.54-1.88-2.25-5.19-2.6Z"/>
        <path class="cls-1" d="M295.88,98.54c2.37,1.95,5.65,1.88,7.32-.16,1.67-2.04,1.11-5.27-1.26-7.22-2.37-1.95-5.65-1.88-7.32.16-1.67,2.04-1.11,5.27,1.26,7.22Z"/>
        <path class="cls-1" d="M8.32,162c2.35-1.97,2.88-5.21,1.19-7.23-1.69-2.02-4.97-2.06-7.33-.09-2.35,1.97-2.88,5.21-1.19,7.23,1.69,2.02,4.97,2.06,7.33.09Z"/>
      </g>
      <g>
        <path class="cls-1" d="M253.3,343.98c0-1.47.25-2.92.76-4.33s1.26-2.71,2.24-3.88c.99-1.17,2.19-2.1,3.62-2.79s3.05-1.04,4.86-1.04c2.15,0,4,.49,5.54,1.48,1.54.99,2.69,2.25,3.43,3.79l-2.41,1.56c-.48-1.02-1.08-1.83-1.82-2.43-.74-.6-1.53-1.03-2.38-1.27-.85-.25-1.68-.38-2.5-.38-1.34,0-2.52.27-3.55.82-1.03.54-1.9,1.27-2.6,2.18-.7.91-1.23,1.92-1.58,3.04-.35,1.12-.53,2.25-.53,3.38,0,1.25.21,2.45.63,3.6.42,1.16,1,2.18,1.75,3.06s1.63,1.59,2.65,2.11c1.02.52,2.13.78,3.33.78.84,0,1.7-.15,2.58-.44.88-.29,1.71-.75,2.48-1.38.77-.62,1.38-1.43,1.84-2.43l2.55,1.39c-.5,1.2-1.27,2.22-2.31,3.06-1.04.84-2.2,1.47-3.48,1.9-1.28.43-2.54.65-3.79.65-1.66,0-3.17-.36-4.56-1.07-1.38-.71-2.58-1.67-3.59-2.86s-1.79-2.53-2.35-4.01c-.56-1.48-.83-2.99-.83-4.51Z"/>
        <path class="cls-1" d="M276.18,351.15c0-1.13.32-2.1.97-2.92.65-.82,1.54-1.46,2.67-1.91,1.13-.45,2.45-.68,3.94-.68.79,0,1.63.06,2.52.19.88.12,1.67.31,2.35.56v-1.28c0-1.34-.41-2.4-1.22-3.17-.82-.77-1.97-1.16-3.47-1.16-.98,0-1.91.18-2.81.53s-1.84.86-2.84,1.51l-1.09-2.11c1.16-.79,2.31-1.39,3.47-1.79,1.16-.4,2.36-.59,3.6-.59,2.27,0,4.06.62,5.37,1.87,1.31,1.25,1.97,2.98,1.97,5.21v7.45c0,.36.07.62.22.79.15.17.39.27.73.29v2.31c-.29.04-.55.08-.77.1-.21.02-.39.03-.53.03-.7,0-1.23-.19-1.58-.58-.35-.38-.55-.79-.59-1.22l-.07-1.12c-.77,1-1.78,1.77-3.03,2.31-1.25.54-2.48.82-3.71.82s-2.23-.24-3.16-.73-1.65-1.14-2.18-1.96-.78-1.74-.78-2.75ZM287.74,352.4c.27-.31.49-.63.65-.96.16-.32.24-.6.24-.82v-2.19c-.7-.27-1.44-.48-2.21-.62s-1.53-.22-2.28-.22c-1.52,0-2.75.3-3.69.89-.94.6-1.41,1.41-1.41,2.44,0,.56.15,1.11.46,1.63s.76.96,1.36,1.3c.6.34,1.34.5,2.23.5.93,0,1.81-.19,2.65-.55.84-.37,1.51-.84,2.01-1.4Z"/>
        <path class="cls-1" d="M311.81,356.25h-2.99v-9.84c0-1.86-.29-3.23-.87-4.09s-1.46-1.3-2.63-1.3c-.82,0-1.63.2-2.43.61-.8.4-1.52.95-2.14,1.63-.62.68-1.07,1.47-1.34,2.37v10.63h-2.99v-17.65h2.72v3.81c.48-.83,1.09-1.55,1.84-2.16s1.6-1.08,2.55-1.42c.95-.34,1.95-.51,2.99-.51s1.88.19,2.57.56,1.24.89,1.63,1.55.68,1.45.85,2.34c.17.9.26,1.88.26,2.94v10.53Z"/>
        <path class="cls-1" d="M315.31,347.48c0-1.66.35-3.19,1.04-4.57.69-1.38,1.64-2.49,2.86-3.32,1.21-.83,2.6-1.25,4.17-1.25,1.43,0,2.71.37,3.84,1.12,1.13.75,2.02,1.65,2.65,2.72v-10.74h2.99v21.42c0,.36.07.63.22.8.15.17.39.27.73.29v2.31c-.57.09-1.01.13-1.33.13-.59,0-1.1-.2-1.55-.61-.44-.41-.66-.86-.66-1.36v-1.5c-.7,1.13-1.64,2.03-2.82,2.69-1.18.66-2.4.99-3.67.99s-2.35-.24-3.38-.73c-1.03-.48-1.93-1.15-2.69-2.01-.76-.86-1.35-1.83-1.77-2.92-.42-1.09-.63-2.24-.63-3.46ZM329.86,350.07v-5.05c-.27-.76-.71-1.45-1.33-2.07-.61-.62-1.3-1.11-2.06-1.48-.76-.37-1.51-.55-2.26-.55-.88,0-1.68.19-2.4.55-.71.37-1.33.86-1.84,1.48-.51.62-.9,1.32-1.17,2.1-.27.79-.41,1.6-.41,2.46s.15,1.7.46,2.49c.31.79.74,1.48,1.29,2.09s1.2,1.08,1.94,1.41c.74.34,1.54.51,2.4.51.54,0,1.1-.1,1.68-.3.58-.2,1.13-.48,1.65-.84s.96-.78,1.33-1.26.6-.99.71-1.53Z"/>
        <path class="cls-1" d="M337.85,335.17v-3.74h2.99v3.74h-2.99ZM337.85,356.25v-17.75h2.99v17.75h-2.99Z"/>
        <path class="cls-1" d="M344.52,347.48c0-1.66.35-3.19,1.04-4.57.69-1.38,1.64-2.49,2.86-3.32,1.21-.83,2.6-1.25,4.17-1.25,1.43,0,2.71.37,3.84,1.12,1.13.75,2.02,1.65,2.65,2.72v-10.74h2.99v21.42c0,.36.07.63.22.8.15.17.39.27.73.29v2.31c-.57.09-1.01.13-1.33.13-.59,0-1.1-.2-1.55-.61-.44-.41-.66-.86-.66-1.36v-1.5c-.7,1.13-1.64,2.03-2.82,2.69-1.18.66-2.4.99-3.67.99s-2.35-.24-3.38-.73c-1.03-.48-1.93-1.15-2.69-2.01-.76-.86-1.35-1.83-1.77-2.92-.42-1.09-.63-2.24-.63-3.46ZM359.07,350.07v-5.05c-.27-.76-.71-1.45-1.33-2.07-.61-.62-1.3-1.11-2.06-1.48-.76-.37-1.51-.55-2.26-.55-.88,0-1.68.19-2.4.55-.71.37-1.33.86-1.84,1.48-.51.62-.9,1.32-1.17,2.1-.27.79-.41,1.6-.41,2.46s.15,1.7.46,2.49c.31.79.74,1.48,1.29,2.09s1.2,1.08,1.94,1.41c.74.34,1.54.51,2.4.51.54,0,1.1-.1,1.68-.3.58-.2,1.13-.48,1.65-.84s.96-.78,1.33-1.26.6-.99.71-1.53Z"/>
        <path class="cls-1" d="M365.67,351.15c0-1.13.32-2.1.97-2.92.65-.82,1.54-1.46,2.67-1.91,1.13-.45,2.45-.68,3.94-.68.79,0,1.63.06,2.52.19.88.12,1.67.31,2.35.56v-1.28c0-1.34-.41-2.4-1.22-3.17-.82-.77-1.97-1.16-3.47-1.16-.98,0-1.91.18-2.81.53s-1.84.86-2.84,1.51l-1.09-2.11c1.16-.79,2.31-1.39,3.47-1.79,1.16-.4,2.36-.59,3.6-.59,2.27,0,4.06.62,5.37,1.87,1.31,1.25,1.97,2.98,1.97,5.21v7.45c0,.36.07.62.22.79.15.17.39.27.73.29v2.31c-.29.04-.55.08-.77.1-.21.02-.39.03-.53.03-.7,0-1.23-.19-1.58-.58-.35-.38-.55-.79-.59-1.22l-.07-1.12c-.77,1-1.78,1.77-3.03,2.31-1.25.54-2.48.82-3.71.82s-2.23-.24-3.16-.73-1.65-1.14-2.18-1.96-.78-1.74-.78-2.75ZM377.23,352.4c.27-.31.49-.63.65-.96.16-.32.24-.6.24-.82v-2.19c-.7-.27-1.44-.48-2.21-.62s-1.53-.22-2.28-.22c-1.52,0-2.75.3-3.69.89-.94.6-1.41,1.41-1.41,2.44,0,.56.15,1.11.46,1.63s.76.96,1.36,1.3c.6.34,1.34.5,2.23.5.93,0,1.81-.19,2.65-.55.84-.37,1.51-.84,2.01-1.4Z"/>
        <path class="cls-1" d="M394.94,355.47c-.25.12-.59.26-1.02.44-.43.18-.93.34-1.5.47-.57.14-1.17.21-1.8.21-.73,0-1.39-.13-2.01-.39-.61-.26-1.1-.67-1.46-1.22s-.54-1.25-.54-2.09v-11.93h-2.41v-2.35h2.41v-5.92h2.99v5.92h3.98v2.35h-3.98v11.02c.04.63.26,1.11.65,1.41.38.3.84.46,1.36.46.59,0,1.13-.1,1.63-.31.5-.2.83-.35.99-.44l.71,2.38Z"/>
        <path class="cls-1" d="M397.56,349.19v-10.58h2.99v10c0,1.8.32,3.15.95,4.05.63.9,1.57,1.35,2.82,1.35.82,0,1.6-.17,2.36-.52.76-.35,1.45-.85,2.06-1.5.61-.65,1.09-1.43,1.43-2.33v-11.05h2.99v14.25c0,.36.07.62.22.79.15.17.39.27.73.29v2.31c-.34.04-.61.07-.8.08s-.38.02-.56.02c-.57,0-1.05-.17-1.46-.52-.41-.35-.62-.78-.65-1.3l-.07-2.06c-.77,1.31-1.81,2.32-3.11,3.04-1.3.72-2.73,1.08-4.27,1.08-1.86,0-3.26-.62-4.22-1.88-.95-1.25-1.43-3.09-1.43-5.53Z"/>
        <path class="cls-1" d="M427.55,341.12c-1.5.02-2.82.4-3.96,1.14-1.14.74-1.96,1.75-2.43,3.04v10.95h-2.99v-17.65h2.79v4.01c.61-1.22,1.42-2.21,2.43-2.97s2.07-1.18,3.18-1.28h.58c.16,0,.29.01.41.04v2.72Z"/>
        <path class="cls-1" d="M429.11,351.15c0-1.13.32-2.1.97-2.92.65-.82,1.54-1.46,2.67-1.91,1.13-.45,2.45-.68,3.94-.68.79,0,1.63.06,2.52.19.88.12,1.67.31,2.35.56v-1.28c0-1.34-.41-2.4-1.22-3.17-.82-.77-1.97-1.16-3.47-1.16-.98,0-1.91.18-2.81.53s-1.84.86-2.84,1.51l-1.09-2.11c1.16-.79,2.31-1.39,3.47-1.79,1.16-.4,2.36-.59,3.6-.59,2.27,0,4.06.62,5.37,1.87,1.31,1.25,1.97,2.98,1.97,5.21v7.45c0,.36.07.62.22.79.15.17.39.27.73.29v2.31c-.29.04-.55.08-.77.1-.21.02-.39.03-.53.03-.7,0-1.23-.19-1.58-.58-.35-.38-.55-.79-.59-1.22l-.07-1.12c-.77,1-1.78,1.77-3.03,2.31-1.25.54-2.48.82-3.71.82s-2.23-.24-3.16-.73-1.65-1.14-2.18-1.96-.78-1.74-.78-2.75ZM440.67,352.4c.27-.31.49-.63.65-.96.16-.32.24-.6.24-.82v-2.19c-.7-.27-1.44-.48-2.21-.62s-1.53-.22-2.28-.22c-1.52,0-2.75.3-3.69.89-.94.6-1.41,1.41-1.41,2.44,0,.56.15,1.11.46,1.63s.76.96,1.36,1.3c.6.34,1.34.5,2.23.5.93,0,1.81-.19,2.65-.55.84-.37,1.51-.84,2.01-1.4Z"/>
        <path class="cls-1" d="M456.55,351.15c0-1.13.32-2.1.97-2.92.65-.82,1.54-1.46,2.67-1.91,1.13-.45,2.45-.68,3.94-.68.79,0,1.63.06,2.52.19.88.12,1.67.31,2.35.56v-1.28c0-1.34-.41-2.4-1.22-3.17-.82-.77-1.97-1.16-3.47-1.16-.98,0-1.91.18-2.81.53s-1.84.86-2.84,1.51l-1.09-2.11c1.16-.79,2.31-1.39,3.47-1.79,1.16-.4,2.36-.59,3.6-.59,2.27,0,4.06.62,5.37,1.87,1.31,1.25,1.97,2.98,1.97,5.21v7.45c0,.36.07.62.22.79.15.17.39.27.73.29v2.31c-.29.04-.55.08-.77.1-.21.02-.39.03-.53.03-.7,0-1.23-.19-1.58-.58-.35-.38-.55-.79-.59-1.22l-.07-1.12c-.77,1-1.78,1.77-3.03,2.31-1.25.54-2.48.82-3.71.82s-2.23-.24-3.16-.73-1.65-1.14-2.18-1.96-.78-1.74-.78-2.75ZM468.11,352.4c.27-.31.49-.63.65-.96.16-.32.24-.6.24-.82v-2.19c-.7-.27-1.44-.48-2.21-.62s-1.53-.22-2.28-.22c-1.52,0-2.75.3-3.69.89-.94.6-1.41,1.41-1.41,2.44,0,.56.15,1.11.46,1.63s.76.96,1.36,1.3c.6.34,1.34.5,2.23.5.93,0,1.81-.19,2.65-.55.84-.37,1.51-.84,2.01-1.4ZM461.03,331.4h2.96l2.01,3.43-1.94.68-3.03-4.11Z"/>
        <path class="cls-1" d="M485.85,356.25v-24.14h3.06v21.42h13.46v2.72h-16.52Z"/>
        <path class="cls-1" d="M505.23,335.17v-3.74h2.99v3.74h-2.99ZM505.23,356.25v-17.75h2.99v17.75h-2.99Z"/>
        <path class="cls-1" d="M519.14,356.59c-1.47,0-2.86-.24-4.15-.73-1.29-.49-2.4-1.22-3.33-2.19l1.16-2.11c1.02.95,2.04,1.63,3.06,2.04,1.02.41,2.06.61,3.13.61,1.22,0,2.22-.23,2.99-.69.77-.46,1.16-1.13,1.16-2.03,0-.65-.2-1.14-.59-1.45-.4-.32-.96-.58-1.68-.79-.73-.21-1.59-.46-2.58-.73-1.22-.36-2.26-.74-3.09-1.15s-1.47-.91-1.9-1.52c-.43-.61-.65-1.37-.65-2.29,0-1.12.29-2.07.88-2.85.59-.78,1.4-1.37,2.43-1.77,1.03-.4,2.2-.61,3.52-.61s2.5.2,3.57.61,1.98,1.01,2.75,1.8l-1.36,2.07c-.7-.73-1.47-1.26-2.31-1.62-.84-.35-1.78-.53-2.82-.53-.61,0-1.21.07-1.8.22-.59.15-1.08.4-1.46.78-.39.37-.58.89-.58,1.57,0,.56.15,1.01.46,1.33.31.33.76.6,1.36.83.6.23,1.33.47,2.19.74,1.34.38,2.5.76,3.49,1.15.99.38,1.75.88,2.29,1.48.54.61.82,1.45.82,2.53,0,1.66-.63,2.96-1.9,3.89-1.27.93-2.95,1.4-5.03,1.4Z"/>
        <path class="cls-1" d="M538.82,355.47c-.25.12-.59.26-1.02.44-.43.18-.93.34-1.5.47-.57.14-1.17.21-1.8.21-.73,0-1.39-.13-2.01-.39-.61-.26-1.1-.67-1.46-1.22s-.54-1.25-.54-2.09v-11.93h-2.41v-2.35h2.41v-5.92h2.99v5.92h3.98v2.35h-3.98v11.02c.04.63.26,1.11.65,1.41.38.3.84.46,1.36.46.59,0,1.13-.1,1.63-.31.5-.2.83-.35.99-.44l.71,2.38Z"/>
        <path class="cls-1" d="M540.22,351.15c0-1.13.32-2.1.97-2.92.65-.82,1.54-1.46,2.67-1.91,1.13-.45,2.45-.68,3.94-.68.79,0,1.63.06,2.52.19.88.12,1.67.31,2.35.56v-1.28c0-1.34-.41-2.4-1.22-3.17-.82-.77-1.97-1.16-3.47-1.16-.98,0-1.91.18-2.81.53s-1.84.86-2.84,1.51l-1.09-2.11c1.16-.79,2.31-1.39,3.47-1.79,1.16-.4,2.36-.59,3.6-.59,2.27,0,4.06.62,5.37,1.87,1.31,1.25,1.97,2.98,1.97,5.21v7.45c0,.36.07.62.22.79.15.17.39.27.73.29v2.31c-.29.04-.55.08-.77.1-.21.02-.39.03-.53.03-.7,0-1.23-.19-1.58-.58-.35-.38-.55-.79-.59-1.22l-.07-1.12c-.77,1-1.78,1.77-3.03,2.31-1.25.54-2.48.82-3.71.82s-2.23-.24-3.16-.73-1.65-1.14-2.18-1.96-.78-1.74-.78-2.75ZM551.78,352.4c.27-.31.49-.63.65-.96.16-.32.24-.6.24-.82v-2.19c-.7-.27-1.44-.48-2.21-.62s-1.53-.22-2.28-.22c-1.52,0-2.75.3-3.69.89-.94.6-1.41,1.41-1.41,2.44,0,.56.15,1.11.46,1.63s.76.96,1.36,1.3c.6.34,1.34.5,2.23.5.93,0,1.81-.19,2.65-.55.84-.37,1.51-.84,2.01-1.4Z"/>
        <path class="cls-1" d="M569.53,356.25v-24.14h3.06v24.14h-3.06Z"/>
        <path class="cls-1" d="M593.29,356.25h-2.99v-9.84c0-1.86-.29-3.23-.87-4.09s-1.46-1.3-2.63-1.3c-.82,0-1.63.2-2.43.61-.8.4-1.52.95-2.14,1.63-.62.68-1.07,1.47-1.34,2.37v10.63h-2.99v-17.65h2.72v3.81c.48-.83,1.09-1.55,1.84-2.16s1.6-1.08,2.55-1.42c.95-.34,1.95-.51,2.99-.51s1.88.19,2.57.56,1.24.89,1.63,1.55.68,1.45.85,2.34c.17.9.26,1.88.26,2.94v10.53Z"/>
        <path class="cls-1" d="M596.79,347.48c0-1.66.35-3.19,1.04-4.57.69-1.38,1.64-2.49,2.86-3.32,1.21-.83,2.6-1.25,4.17-1.25,1.43,0,2.71.37,3.84,1.12,1.13.75,2.02,1.65,2.65,2.72v-10.74h2.99v21.42c0,.36.07.63.22.8.15.17.39.27.73.29v2.31c-.57.09-1.01.13-1.33.13-.59,0-1.1-.2-1.55-.61-.44-.41-.66-.86-.66-1.36v-1.5c-.7,1.13-1.64,2.03-2.82,2.69-1.18.66-2.4.99-3.67.99s-2.35-.24-3.38-.73c-1.03-.48-1.93-1.15-2.69-2.01-.76-.86-1.35-1.83-1.77-2.92-.42-1.09-.63-2.24-.63-3.46ZM611.35,350.07v-5.05c-.27-.76-.71-1.45-1.33-2.07-.61-.62-1.3-1.11-2.06-1.48-.76-.37-1.51-.55-2.26-.55-.88,0-1.68.19-2.4.55-.71.37-1.33.86-1.84,1.48-.51.62-.9,1.32-1.17,2.1-.27.79-.41,1.6-.41,2.46s.15,1.7.46,2.49c.31.79.74,1.48,1.29,2.09s1.2,1.08,1.94,1.41c.74.34,1.54.51,2.4.51.54,0,1.1-.1,1.68-.3.58-.2,1.13-.48,1.65-.84s.96-.78,1.33-1.26.6-.99.71-1.53Z"/>
        <path class="cls-1" d="M619.34,335.17v-3.74h2.99v3.74h-2.99ZM619.34,356.25v-17.75h2.99v17.75h-2.99Z"/>
        <path class="cls-1" d="M635.01,356.59c-1.34,0-2.56-.24-3.65-.73-1.1-.48-2.05-1.15-2.86-2.01s-1.43-1.83-1.87-2.94c-.44-1.1-.66-2.27-.66-3.51,0-1.67.37-3.18,1.12-4.56s1.8-2.47,3.16-3.29c1.36-.82,2.94-1.23,4.73-1.23s3.27.39,4.57,1.17c1.3.78,2.27,1.83,2.91,3.15l-2.92.92c-.45-.84-1.09-1.49-1.9-1.96-.82-.46-1.72-.7-2.72-.7-1.09,0-2.08.28-2.97.84-.9.56-1.6,1.33-2.12,2.3-.52.97-.78,2.09-.78,3.35s.27,2.35.8,3.35c.53,1,1.25,1.79,2.14,2.37.9.58,1.89.88,2.98.88.7,0,1.38-.12,2.02-.38.65-.25,1.21-.58,1.7-1s.82-.88,1-1.38l2.92.88c-.36.86-.91,1.63-1.65,2.29-.74.67-1.61,1.2-2.62,1.58s-2.11.58-3.32.58Z"/>
        <path class="cls-1" d="M644.6,351.15c0-1.13.32-2.1.97-2.92.65-.82,1.54-1.46,2.67-1.91,1.13-.45,2.45-.68,3.94-.68.79,0,1.63.06,2.52.19.88.12,1.67.31,2.35.56v-1.28c0-1.34-.41-2.4-1.22-3.17-.82-.77-1.97-1.16-3.47-1.16-.98,0-1.91.18-2.81.53s-1.84.86-2.84,1.51l-1.09-2.11c1.16-.79,2.31-1.39,3.47-1.79,1.16-.4,2.36-.59,3.6-.59,2.27,0,4.06.62,5.37,1.87,1.31,1.25,1.97,2.98,1.97,5.21v7.45c0,.36.07.62.22.79.15.17.39.27.73.29v2.31c-.29.04-.55.08-.77.1-.21.02-.39.03-.53.03-.7,0-1.23-.19-1.58-.58-.35-.38-.55-.79-.59-1.22l-.07-1.12c-.77,1-1.78,1.77-3.03,2.31-1.25.54-2.48.82-3.71.82s-2.23-.24-3.16-.73-1.65-1.14-2.18-1.96-.78-1.74-.78-2.75ZM656.16,352.4c.27-.31.49-.63.65-.96.16-.32.24-.6.24-.82v-2.19c-.7-.27-1.44-.48-2.21-.62s-1.53-.22-2.28-.22c-1.52,0-2.75.3-3.69.89-.94.6-1.41,1.41-1.41,2.44,0,.56.15,1.11.46,1.63s.76.96,1.36,1.3c.6.34,1.34.5,2.23.5.93,0,1.81-.19,2.65-.55.84-.37,1.51-.84,2.01-1.4Z"/>
        <path class="cls-1" d="M673.87,355.47c-.25.12-.59.26-1.02.44-.43.18-.93.34-1.5.47-.57.14-1.17.21-1.8.21-.73,0-1.39-.13-2.01-.39-.61-.26-1.1-.67-1.46-1.22s-.54-1.25-.54-2.09v-11.93h-2.41v-2.35h2.41v-5.92h2.99v5.92h3.98v2.35h-3.98v11.02c.04.63.26,1.11.65,1.41.38.3.84.46,1.36.46.59,0,1.13-.1,1.63-.31.5-.2.83-.35.99-.44l.71,2.38Z"/>
        <path class="cls-1" d="M676.66,335.17v-3.74h2.99v3.74h-2.99ZM676.66,356.25v-17.75h2.99v17.75h-2.99Z"/>
        <path class="cls-1" d="M689.58,356.25l-6.97-17.65h3.13l5.58,14.81,5.58-14.81h2.92l-6.97,17.65h-3.26Z"/>
        <path class="cls-1" d="M700.97,351.15c0-1.13.32-2.1.97-2.92.65-.82,1.54-1.46,2.67-1.91,1.13-.45,2.45-.68,3.94-.68.79,0,1.63.06,2.52.19.88.12,1.67.31,2.35.56v-1.28c0-1.34-.41-2.4-1.22-3.17-.82-.77-1.97-1.16-3.47-1.16-.98,0-1.91.18-2.81.53s-1.84.86-2.84,1.51l-1.09-2.11c1.16-.79,2.31-1.39,3.47-1.79,1.16-.4,2.36-.59,3.6-.59,2.27,0,4.06.62,5.37,1.87,1.31,1.25,1.97,2.98,1.97,5.21v7.45c0,.36.07.62.22.79.15.17.39.27.73.29v2.31c-.29.04-.55.08-.77.1-.21.02-.39.03-.53.03-.7,0-1.23-.19-1.58-.58-.35-.38-.55-.79-.59-1.22l-.07-1.12c-.77,1-1.78,1.77-3.03,2.31-1.25.54-2.48.82-3.71.82s-2.23-.24-3.16-.73-1.65-1.14-2.18-1.96-.78-1.74-.78-2.75ZM712.53,352.4c.27-.31.49-.63.65-.96.16-.32.24-.6.24-.82v-2.19c-.7-.27-1.44-.48-2.21-.62s-1.53-.22-2.28-.22c-1.52,0-2.75.3-3.69.89-.94.6-1.41,1.41-1.41,2.44,0,.56.15,1.11.46,1.63s.76.96,1.36,1.3c.6.34,1.34.5,2.23.5.93,0,1.81-.19,2.65-.55.84-.37,1.51-.84,2.01-1.4Z"/>
        <path class="cls-1" d="M253.23,388.28c0-1.66.35-3.19,1.04-4.57.69-1.38,1.64-2.49,2.86-3.32,1.21-.83,2.6-1.25,4.17-1.25,1.43,0,2.71.38,3.84,1.12,1.13.75,2.02,1.65,2.65,2.72v-10.74h2.99v21.42c0,.36.07.63.22.8.15.17.39.27.73.29v2.31c-.57.09-1.01.14-1.33.14-.59,0-1.1-.21-1.55-.61-.44-.41-.66-.86-.66-1.36v-1.5c-.7,1.13-1.64,2.03-2.82,2.69-1.18.66-2.4.99-3.67.99s-2.35-.24-3.38-.72c-1.03-.48-1.93-1.15-2.69-2.01-.76-.86-1.35-1.83-1.77-2.92-.42-1.09-.63-2.24-.63-3.46ZM267.78,390.87v-5.05c-.27-.76-.71-1.45-1.33-2.07-.61-.62-1.3-1.11-2.06-1.48-.76-.37-1.51-.55-2.26-.55-.88,0-1.68.19-2.4.55-.71.37-1.33.87-1.84,1.48-.51.62-.9,1.32-1.17,2.1-.27.79-.41,1.61-.41,2.46s.15,1.71.46,2.49c.31.79.74,1.48,1.29,2.09s1.2,1.08,1.94,1.41c.74.34,1.54.5,2.4.5.54,0,1.1-.1,1.68-.3.58-.2,1.13-.48,1.65-.84s.96-.78,1.33-1.26.6-.99.71-1.53Z"/>
        <path class="cls-1" d="M283.52,397.39c-1.34,0-2.55-.24-3.64-.72-1.09-.48-2.03-1.15-2.82-1.99-.79-.84-1.41-1.82-1.84-2.92-.43-1.1-.65-2.26-.65-3.48s.22-2.41.65-3.51,1.04-2.08,1.84-2.92c.79-.84,1.74-1.51,2.84-1.99s2.31-.73,3.62-.73,2.55.24,3.64.73,2.03,1.15,2.84,1.99,1.42,1.82,1.85,2.92.65,2.27.65,3.51-.21,2.37-.65,3.48c-.43,1.1-1.04,2.07-1.84,2.92-.79.84-1.74,1.51-2.84,1.99-1.1.48-2.32.72-3.66.72ZM277.64,388.31c0,1.21.27,2.31.8,3.3.53.99,1.24,1.77,2.12,2.34s1.87.86,2.96.86,2.08-.29,2.97-.88c.9-.58,1.61-1.37,2.14-2.37.53-1,.8-2.1.8-3.31s-.27-2.31-.8-3.3c-.53-.99-1.25-1.77-2.14-2.36-.9-.58-1.89-.88-2.97-.88s-2.07.3-2.96.89-1.59,1.38-2.12,2.37c-.53.99-.8,2.1-.8,3.33Z"/>
        <path class="cls-1" d="M305.21,397.05v-24.14h10.06c1.07,0,2.04.22,2.92.66s1.65,1.03,2.31,1.77c.66.74,1.17,1.56,1.53,2.48s.54,1.85.54,2.8c0,1.31-.29,2.57-.88,3.76-.59,1.19-1.42,2.15-2.48,2.89-1.07.74-2.31,1.11-3.74,1.11h-7.21v8.67h-3.06ZM308.28,385.66h7.04c.84,0,1.57-.23,2.19-.68.62-.45,1.11-1.06,1.46-1.84.35-.77.53-1.61.53-2.52,0-.95-.2-1.81-.61-2.57-.41-.76-.94-1.35-1.6-1.79-.66-.43-1.38-.65-2.18-.65h-6.83v10.03Z"/>
        <path class="cls-1" d="M324.32,391.95c0-1.13.32-2.1.97-2.92.65-.82,1.54-1.46,2.67-1.91,1.13-.45,2.45-.68,3.94-.68.79,0,1.63.06,2.52.19s1.67.31,2.35.56v-1.29c0-1.34-.41-2.4-1.22-3.17-.82-.77-1.97-1.16-3.47-1.16-.98,0-1.91.18-2.81.53-.9.35-1.84.86-2.84,1.51l-1.09-2.11c1.16-.79,2.31-1.39,3.47-1.79s2.36-.6,3.6-.6c2.27,0,4.06.62,5.37,1.87,1.31,1.25,1.97,2.98,1.97,5.21v7.45c0,.36.07.62.22.79s.39.26.73.29v2.31c-.29.04-.55.08-.77.1-.21.02-.39.04-.53.04-.7,0-1.23-.19-1.58-.58-.35-.38-.55-.79-.59-1.22l-.07-1.12c-.77,1-1.78,1.77-3.03,2.31-1.25.54-2.48.81-3.71.81s-2.23-.24-3.16-.72c-.93-.49-1.65-1.14-2.18-1.96s-.78-1.74-.78-2.75ZM335.88,393.2c.27-.31.49-.63.65-.96.16-.33.24-.6.24-.83v-2.19c-.7-.27-1.44-.48-2.21-.62-.77-.14-1.53-.22-2.28-.22-1.52,0-2.75.3-3.69.89-.94.6-1.41,1.41-1.41,2.44,0,.56.15,1.11.46,1.63s.76.96,1.36,1.3c.6.34,1.34.5,2.23.5.93,0,1.81-.18,2.65-.55.84-.37,1.51-.84,2.01-1.4Z"/>
        <path class="cls-1" d="M353.6,396.27c-.25.11-.59.26-1.02.44-.43.18-.93.34-1.5.48-.57.14-1.17.2-1.8.2-.73,0-1.39-.13-2.01-.39-.61-.26-1.1-.67-1.46-1.22-.36-.55-.54-1.25-.54-2.09v-11.93h-2.41v-2.35h2.41v-5.91h2.99v5.91h3.98v2.35h-3.98v11.02c.04.63.26,1.11.65,1.41.38.31.84.46,1.36.46.59,0,1.13-.1,1.63-.3.5-.21.83-.35.99-.44l.71,2.38Z"/>
        <path class="cls-1" d="M365.77,381.92c-1.5.02-2.82.4-3.96,1.14s-1.96,1.75-2.43,3.04v10.95h-2.99v-17.65h2.79v4.01c.61-1.22,1.42-2.22,2.43-2.98,1.01-.76,2.07-1.18,3.18-1.27h.58c.16,0,.29.01.41.03v2.72Z"/>
        <path class="cls-1" d="M368.73,375.97v-3.74h2.99v3.74h-2.99ZM368.73,397.05v-17.75h2.99v17.75h-2.99Z"/>
        <path class="cls-1" d="M403.3,397.05h-2.99v-9.84c0-1.84-.3-3.2-.9-4.08-.6-.88-1.49-1.31-2.67-1.31s-2.29.43-3.26,1.3-1.67,1.98-2.07,3.35v10.58h-2.99v-9.84c0-1.87-.29-3.23-.88-4.09-.59-.87-1.47-1.3-2.65-1.3s-2.26.42-3.25,1.26-1.68,1.95-2.09,3.34v10.63h-2.99v-17.65h2.72v3.81c.73-1.3,1.67-2.31,2.82-3.02,1.16-.71,2.46-1.06,3.91-1.06s2.65.4,3.54,1.2c.88.8,1.43,1.83,1.63,3.09.79-1.39,1.76-2.46,2.89-3.19s2.43-1.1,3.88-1.1c1.02,0,1.88.19,2.57.56s1.24.89,1.65,1.55c.41.66.7,1.45.88,2.35.18.9.27,1.88.27,2.94v10.53Z"/>
        <path class="cls-1" d="M415.71,397.39c-1.34,0-2.55-.24-3.64-.72-1.09-.48-2.03-1.15-2.82-1.99-.79-.84-1.41-1.82-1.84-2.92-.43-1.1-.65-2.26-.65-3.48s.22-2.41.65-3.51,1.04-2.08,1.84-2.92c.79-.84,1.74-1.51,2.84-1.99s2.31-.73,3.62-.73,2.55.24,3.64.73,2.03,1.15,2.84,1.99,1.42,1.82,1.85,2.92.65,2.27.65,3.51-.21,2.37-.65,3.48c-.43,1.1-1.04,2.07-1.84,2.92-.79.84-1.74,1.51-2.84,1.99-1.1.48-2.32.72-3.66.72ZM409.83,388.31c0,1.21.27,2.31.8,3.3.53.99,1.24,1.77,2.12,2.34s1.87.86,2.96.86,2.08-.29,2.97-.88c.9-.58,1.61-1.37,2.14-2.37.53-1,.8-2.1.8-3.31s-.27-2.31-.8-3.3c-.53-.99-1.25-1.77-2.14-2.36-.9-.58-1.89-.88-2.97-.88s-2.07.3-2.96.89-1.59,1.38-2.12,2.37c-.53.99-.8,2.1-.8,3.33ZM416.77,376.35l-1.97-.68,1.97-3.44h2.99l-2.99,4.12Z"/>
        <path class="cls-1" d="M443.73,397.05h-2.99v-9.84c0-1.87-.29-3.23-.87-4.09s-1.46-1.3-2.63-1.3c-.82,0-1.63.2-2.43.61-.8.4-1.52.95-2.14,1.63-.62.68-1.07,1.47-1.34,2.37v10.63h-2.99v-17.65h2.72v3.81c.48-.83,1.09-1.55,1.84-2.16s1.6-1.08,2.55-1.42c.95-.34,1.95-.51,2.99-.51s1.88.19,2.57.56,1.24.89,1.63,1.55.68,1.45.85,2.35c.17.9.26,1.88.26,2.94v10.53Z"/>
        <path class="cls-1" d="M448.39,375.97v-3.74h2.99v3.74h-2.99ZM448.39,397.05v-17.75h2.99v17.75h-2.99Z"/>
        <path class="cls-1" d="M463.96,397.39c-1.34,0-2.55-.24-3.64-.72-1.09-.48-2.03-1.15-2.82-1.99-.79-.84-1.41-1.82-1.84-2.92-.43-1.1-.65-2.26-.65-3.48s.22-2.41.65-3.51,1.04-2.08,1.84-2.92c.79-.84,1.74-1.51,2.84-1.99s2.31-.73,3.62-.73,2.55.24,3.64.73,2.03,1.15,2.84,1.99,1.42,1.82,1.85,2.92.65,2.27.65,3.51-.21,2.37-.65,3.48c-.43,1.1-1.04,2.07-1.84,2.92-.79.84-1.74,1.51-2.84,1.99-1.1.48-2.32.72-3.66.72ZM458.08,388.31c0,1.21.27,2.31.8,3.3.53.99,1.24,1.77,2.12,2.34s1.87.86,2.96.86,2.08-.29,2.97-.88c.9-.58,1.61-1.37,2.14-2.37.53-1,.8-2.1.8-3.31s-.27-2.31-.8-3.3c-.53-.99-1.25-1.77-2.14-2.36-.9-.58-1.89-.88-2.97-.88s-2.07.3-2.96.89-1.59,1.38-2.12,2.37c-.53.99-.8,2.1-.8,3.33Z"/>
        <path class="cls-1" d="M506.53,397.05v-18.43l-7.96,14.18h-1.87l-7.99-14.18v18.43h-3.06v-24.14h3.23l8.74,15.67,8.77-15.67h3.2v24.14h-3.06Z"/>
        <path class="cls-1" d="M514.72,389.99v-10.58h2.99v10c0,1.8.32,3.15.95,4.05.63.9,1.57,1.35,2.82,1.35.82,0,1.6-.17,2.36-.52.76-.35,1.45-.85,2.06-1.5.61-.65,1.09-1.43,1.43-2.32v-11.06h2.99v14.25c0,.36.07.62.22.79.15.17.39.26.73.29v2.31c-.34.04-.61.07-.8.09-.19,0-.38.02-.56.02-.57,0-1.05-.17-1.46-.52-.41-.35-.62-.78-.65-1.3l-.07-2.06c-.77,1.31-1.81,2.32-3.11,3.04-1.3.72-2.73,1.08-4.27,1.08-1.86,0-3.26-.62-4.22-1.88-.95-1.25-1.43-3.09-1.43-5.53Z"/>
        <path class="cls-1" d="M550.73,397.05h-2.99v-9.84c0-1.87-.29-3.23-.87-4.09s-1.46-1.3-2.63-1.3c-.82,0-1.63.2-2.43.61-.8.4-1.52.95-2.14,1.63-.62.68-1.07,1.47-1.34,2.37v10.63h-2.99v-17.65h2.72v3.81c.48-.83,1.09-1.55,1.84-2.16s1.6-1.08,2.55-1.42c.95-.34,1.95-.51,2.99-.51s1.88.19,2.57.56,1.24.89,1.63,1.55.68,1.45.85,2.35c.17.9.26,1.88.26,2.94v10.53Z"/>
        <path class="cls-1" d="M554.23,388.28c0-1.66.35-3.19,1.04-4.57.69-1.38,1.64-2.49,2.86-3.32,1.21-.83,2.6-1.25,4.17-1.25,1.43,0,2.71.38,3.84,1.12,1.13.75,2.02,1.65,2.65,2.72v-10.74h2.99v21.42c0,.36.07.63.22.8.15.17.39.27.73.29v2.31c-.57.09-1.01.14-1.33.14-.59,0-1.1-.21-1.55-.61-.44-.41-.66-.86-.66-1.36v-1.5c-.7,1.13-1.64,2.03-2.82,2.69-1.18.66-2.4.99-3.67.99s-2.35-.24-3.38-.72c-1.03-.48-1.93-1.15-2.69-2.01-.76-.86-1.35-1.83-1.77-2.92-.42-1.09-.63-2.24-.63-3.46ZM568.78,390.87v-5.05c-.27-.76-.71-1.45-1.33-2.07-.61-.62-1.3-1.11-2.06-1.48-.76-.37-1.51-.55-2.26-.55-.88,0-1.68.19-2.4.55-.71.37-1.33.87-1.84,1.48-.51.62-.9,1.32-1.17,2.1-.27.79-.41,1.61-.41,2.46s.15,1.71.46,2.49c.31.79.74,1.48,1.29,2.09s1.2,1.08,1.94,1.41c.74.34,1.54.5,2.4.5.54,0,1.1-.1,1.68-.3.58-.2,1.13-.48,1.65-.84s.96-.78,1.33-1.26.6-.99.71-1.53Z"/>
        <path class="cls-1" d="M576.77,375.97v-3.74h2.99v3.74h-2.99ZM576.77,397.05v-17.75h2.99v17.75h-2.99Z"/>
        <path class="cls-1" d="M583.19,391.95c0-1.13.32-2.1.97-2.92.65-.82,1.54-1.46,2.67-1.91,1.13-.45,2.45-.68,3.94-.68.79,0,1.63.06,2.52.19s1.67.31,2.35.56v-1.29c0-1.34-.41-2.4-1.22-3.17-.82-.77-1.97-1.16-3.47-1.16-.98,0-1.91.18-2.81.53-.9.35-1.84.86-2.84,1.51l-1.09-2.11c1.16-.79,2.31-1.39,3.47-1.79s2.36-.6,3.6-.6c2.27,0,4.06.62,5.37,1.87,1.31,1.25,1.97,2.98,1.97,5.21v7.45c0,.36.07.62.22.79s.39.26.73.29v2.31c-.29.04-.55.08-.77.1-.21.02-.39.04-.53.04-.7,0-1.23-.19-1.58-.58-.35-.38-.55-.79-.59-1.22l-.07-1.12c-.77,1-1.78,1.77-3.03,2.31-1.25.54-2.48.81-3.71.81s-2.23-.24-3.16-.72c-.93-.49-1.65-1.14-2.18-1.96s-.78-1.74-.78-2.75ZM594.76,393.2c.27-.31.49-.63.65-.96.16-.33.24-.6.24-.83v-2.19c-.7-.27-1.44-.48-2.21-.62-.77-.14-1.53-.22-2.28-.22-1.52,0-2.75.3-3.69.89-.94.6-1.41,1.41-1.41,2.44,0,.56.15,1.11.46,1.63s.76.96,1.36,1.3c.6.34,1.34.5,2.23.5.93,0,1.81-.18,2.65-.55.84-.37,1.51-.84,2.01-1.4Z"/>
        <path class="cls-1" d="M603.49,372.23h2.99v20.32c0,.98.14,1.58.41,1.81.27.23.6.34.99.34.48,0,.93-.05,1.36-.15s.79-.21,1.09-.32l.48,2.45c-.5.2-1.09.37-1.77.51-.68.14-1.28.2-1.8.2-1.16,0-2.07-.33-2.74-.99-.67-.66-1-1.58-1-2.77v-21.41Z"/>
        <path class="cls-1" d="M253.23,429.08c0-1.66.35-3.19,1.04-4.57.69-1.38,1.64-2.49,2.86-3.32,1.21-.83,2.6-1.25,4.17-1.25,1.43,0,2.71.37,3.84,1.12,1.13.75,2.02,1.65,2.65,2.72v-10.74h2.99v21.42c0,.36.07.63.22.8.15.17.39.27.73.29v2.31c-.57.09-1.01.13-1.33.13-.59,0-1.1-.2-1.55-.61-.44-.41-.66-.86-.66-1.36v-1.5c-.7,1.13-1.64,2.03-2.82,2.69-1.18.66-2.4.99-3.67.99s-2.35-.24-3.38-.73c-1.03-.48-1.93-1.15-2.69-2.01-.76-.86-1.35-1.83-1.77-2.92-.42-1.09-.63-2.24-.63-3.46ZM267.78,431.67v-5.05c-.27-.76-.71-1.45-1.33-2.07-.61-.62-1.3-1.11-2.06-1.48-.76-.37-1.51-.55-2.26-.55-.88,0-1.68.19-2.4.55-.71.37-1.33.86-1.84,1.48-.51.62-.9,1.32-1.17,2.1-.27.79-.41,1.6-.41,2.46s.15,1.7.46,2.49c.31.79.74,1.48,1.29,2.09s1.2,1.08,1.94,1.41c.74.34,1.54.51,2.4.51.54,0,1.1-.1,1.68-.3.58-.2,1.13-.48,1.65-.84s.96-.78,1.33-1.26.6-.99.71-1.53Z"/>
        <path class="cls-1" d="M283.52,438.19c-1.34,0-2.55-.24-3.64-.73-1.09-.48-2.03-1.15-2.82-1.99-.79-.84-1.41-1.82-1.84-2.92-.43-1.1-.65-2.26-.65-3.48s.22-2.41.65-3.51c.43-1.1,1.04-2.07,1.84-2.92.79-.84,1.74-1.51,2.84-1.99,1.1-.48,2.31-.72,3.62-.72s2.55.24,3.64.72c1.09.48,2.03,1.15,2.84,1.99s1.42,1.82,1.85,2.92c.43,1.1.65,2.27.65,3.51s-.21,2.38-.65,3.48c-.43,1.1-1.04,2.08-1.84,2.92-.79.84-1.74,1.51-2.84,1.99-1.1.48-2.32.73-3.66.73ZM277.64,429.11c0,1.21.27,2.31.8,3.3.53.99,1.24,1.77,2.12,2.34.88.57,1.87.86,2.96.86s2.08-.29,2.97-.88c.9-.58,1.61-1.38,2.14-2.37.53-1,.8-2.1.8-3.31s-.27-2.31-.8-3.3c-.53-.99-1.25-1.77-2.14-2.36-.9-.58-1.89-.88-2.97-.88s-2.07.3-2.96.89c-.88.6-1.59,1.39-2.12,2.37-.53.99-.8,2.1-.8,3.33Z"/>
        <path class="cls-1" d="M303.65,425.58c0-1.47.25-2.92.76-4.33s1.26-2.71,2.24-3.88c.99-1.17,2.19-2.1,3.62-2.79s3.05-1.04,4.86-1.04c2.15,0,4,.49,5.54,1.48,1.54.99,2.69,2.25,3.43,3.79l-2.41,1.56c-.48-1.02-1.08-1.83-1.82-2.43-.74-.6-1.53-1.03-2.38-1.27-.85-.25-1.68-.38-2.5-.38-1.34,0-2.52.27-3.55.82-1.03.54-1.9,1.27-2.6,2.18-.7.91-1.23,1.92-1.58,3.04-.35,1.12-.53,2.25-.53,3.38,0,1.25.21,2.45.63,3.6.42,1.16,1,2.18,1.75,3.06s1.63,1.59,2.65,2.11c1.02.52,2.13.78,3.33.78.84,0,1.7-.15,2.58-.44.88-.29,1.71-.75,2.48-1.38.77-.62,1.38-1.43,1.84-2.43l2.55,1.39c-.5,1.2-1.27,2.22-2.31,3.06-1.04.84-2.2,1.47-3.48,1.9-1.28.43-2.54.65-3.79.65-1.66,0-3.17-.36-4.56-1.07-1.38-.71-2.58-1.67-3.59-2.86s-1.79-2.53-2.35-4.01c-.56-1.48-.83-2.99-.83-4.51Z"/>
        <path class="cls-1" d="M335.68,438.19c-1.34,0-2.55-.24-3.64-.73-1.09-.48-2.03-1.15-2.82-1.99-.79-.84-1.41-1.82-1.84-2.92-.43-1.1-.65-2.26-.65-3.48s.22-2.41.65-3.51c.43-1.1,1.04-2.07,1.84-2.92.79-.84,1.74-1.51,2.84-1.99,1.1-.48,2.31-.72,3.62-.72s2.55.24,3.64.72c1.09.48,2.03,1.15,2.84,1.99s1.42,1.82,1.85,2.92c.43,1.1.65,2.27.65,3.51s-.21,2.38-.65,3.48c-.43,1.1-1.04,2.08-1.84,2.92-.79.84-1.74,1.51-2.84,1.99-1.1.48-2.32.73-3.66.73ZM329.8,429.11c0,1.21.27,2.31.8,3.3.53.99,1.24,1.77,2.12,2.34.88.57,1.87.86,2.96.86s2.08-.29,2.97-.88c.9-.58,1.61-1.38,2.14-2.37.53-1,.8-2.1.8-3.31s-.27-2.31-.8-3.3c-.53-.99-1.25-1.77-2.14-2.36-.9-.58-1.89-.88-2.97-.88s-2.07.3-2.96.89c-.88.6-1.59,1.39-2.12,2.37-.53.99-.8,2.1-.8,3.33Z"/>
        <path class="cls-1" d="M363.69,437.85h-2.99v-9.84c0-1.86-.29-3.23-.87-4.09s-1.46-1.3-2.63-1.3c-.82,0-1.63.2-2.43.61-.8.4-1.52.95-2.14,1.63-.62.68-1.07,1.47-1.34,2.37v10.63h-2.99v-17.65h2.72v3.81c.48-.83,1.09-1.55,1.84-2.16s1.6-1.08,2.55-1.42c.95-.34,1.95-.51,2.99-.51s1.88.19,2.57.56,1.24.89,1.63,1.55.68,1.45.85,2.34c.17.9.26,1.88.26,2.94v10.53Z"/>
        <path class="cls-1" d="M366.07,444.18c-.77,0-1.51-.12-2.21-.34-.7-.23-1.33-.59-1.87-1.09l1.39-2.01c.32.29.69.5,1.1.61.42.11.83.17,1.24.17.5,0,.96-.12,1.39-.37.43-.25.78-.59,1.05-1.03.27-.44.41-.93.41-1.47v-18.44h2.99v18.25c0,1.11-.26,2.09-.78,2.96-.52.87-1.2,1.54-2.02,2.03-.83.48-1.73.73-2.7.73ZM368.59,416.87v-3.74h2.99v3.74h-2.99Z"/>
        <path class="cls-1" d="M376.24,430.79v-10.58h2.99v10c0,1.8.32,3.15.95,4.05.63.9,1.57,1.35,2.82,1.35.82,0,1.6-.17,2.36-.52.76-.35,1.45-.85,2.06-1.5.61-.65,1.09-1.43,1.43-2.33v-11.05h2.99v14.25c0,.36.07.62.22.79.15.17.39.27.73.29v2.31c-.34.04-.61.07-.8.08s-.38.02-.56.02c-.57,0-1.05-.17-1.46-.52-.41-.35-.62-.78-.65-1.3l-.07-2.06c-.77,1.31-1.81,2.32-3.11,3.04-1.3.72-2.73,1.08-4.27,1.08-1.86,0-3.26-.62-4.22-1.88-.95-1.25-1.43-3.09-1.43-5.53Z"/>
        <path class="cls-1" d="M412.25,437.85h-2.99v-9.84c0-1.86-.29-3.23-.87-4.09s-1.46-1.3-2.63-1.3c-.82,0-1.63.2-2.43.61-.8.4-1.52.95-2.14,1.63-.62.68-1.07,1.47-1.34,2.37v10.63h-2.99v-17.65h2.72v3.81c.48-.83,1.09-1.55,1.84-2.16s1.6-1.08,2.55-1.42c.95-.34,1.95-.51,2.99-.51s1.88.19,2.57.56,1.24.89,1.63,1.55.68,1.45.85,2.34c.17.9.26,1.88.26,2.94v10.53Z"/>
        <path class="cls-1" d="M425.91,437.07c-.25.12-.59.26-1.02.44-.43.18-.93.34-1.5.47-.57.14-1.17.21-1.8.21-.73,0-1.39-.13-2.01-.39-.61-.26-1.1-.67-1.46-1.22s-.54-1.25-.54-2.09v-11.93h-2.41v-2.35h2.41v-5.92h2.99v5.92h3.98v2.35h-3.98v11.02c.04.63.26,1.11.65,1.41.38.3.84.46,1.36.46.59,0,1.13-.1,1.63-.31.5-.2.83-.35.99-.44l.71,2.38Z"/>
        <path class="cls-1" d="M436.22,438.19c-1.34,0-2.55-.24-3.64-.73-1.09-.48-2.03-1.15-2.82-1.99-.79-.84-1.41-1.82-1.84-2.92-.43-1.1-.65-2.26-.65-3.48s.22-2.41.65-3.51c.43-1.1,1.04-2.07,1.84-2.92.79-.84,1.74-1.51,2.84-1.99,1.1-.48,2.31-.72,3.62-.72s2.55.24,3.64.72c1.09.48,2.03,1.15,2.84,1.99s1.42,1.82,1.85,2.92c.43,1.1.65,2.27.65,3.51s-.21,2.38-.65,3.48c-.43,1.1-1.04,2.08-1.84,2.92-.79.84-1.74,1.51-2.84,1.99-1.1.48-2.32.73-3.66.73ZM430.33,429.11c0,1.21.27,2.31.8,3.3.53.99,1.24,1.77,2.12,2.34.88.57,1.87.86,2.96.86s2.08-.29,2.97-.88c.9-.58,1.61-1.38,2.14-2.37.53-1,.8-2.1.8-3.31s-.27-2.31-.8-3.3c-.53-.99-1.25-1.77-2.14-2.36-.9-.58-1.89-.88-2.97-.88s-2.07.3-2.96.89c-.88.6-1.59,1.39-2.12,2.37-.53.99-.8,2.1-.8,3.33Z"/>
        <path class="cls-1" d="M478.78,437.85v-18.43l-7.96,14.18h-1.87l-7.99-14.18v18.43h-3.06v-24.14h3.23l8.74,15.67,8.77-15.67h3.2v24.14h-3.06Z"/>
        <path class="cls-1" d="M494.59,438.19c-1.34,0-2.55-.24-3.64-.73-1.09-.48-2.03-1.15-2.82-1.99-.79-.84-1.41-1.82-1.84-2.92-.43-1.1-.65-2.26-.65-3.48s.22-2.41.65-3.51c.43-1.1,1.04-2.07,1.84-2.92.79-.84,1.74-1.51,2.84-1.99,1.1-.48,2.31-.72,3.62-.72s2.55.24,3.64.72c1.09.48,2.03,1.15,2.84,1.99s1.42,1.82,1.85,2.92c.43,1.1.65,2.27.65,3.51s-.21,2.38-.65,3.48c-.43,1.1-1.04,2.08-1.84,2.92-.79.84-1.74,1.51-2.84,1.99-1.1.48-2.32.73-3.66.73ZM488.71,429.11c0,1.21.27,2.31.8,3.3.53.99,1.24,1.77,2.12,2.34.88.57,1.87.86,2.96.86s2.08-.29,2.97-.88c.9-.58,1.61-1.38,2.14-2.37.53-1,.8-2.1.8-3.31s-.27-2.31-.8-3.3c-.53-.99-1.25-1.77-2.14-2.36-.9-.58-1.89-.88-2.97-.88s-2.07.3-2.96.89c-.88.6-1.59,1.39-2.12,2.37-.53.99-.8,2.1-.8,3.33Z"/>
        <path class="cls-1" d="M522.61,437.85h-2.99v-9.84c0-1.86-.29-3.23-.87-4.09s-1.46-1.3-2.63-1.3c-.82,0-1.63.2-2.43.61-.8.4-1.52.95-2.14,1.63-.62.68-1.07,1.47-1.34,2.37v10.63h-2.99v-17.65h2.72v3.81c.48-.83,1.09-1.55,1.84-2.16s1.6-1.08,2.55-1.42c.95-.34,1.95-.51,2.99-.51s1.88.19,2.57.56,1.24.89,1.63,1.55.68,1.45.85,2.34c.17.9.26,1.88.26,2.94v10.53Z"/>
        <path class="cls-1" d="M527.1,430.79v-10.58h2.99v10c0,1.8.32,3.15.95,4.05.63.9,1.57,1.35,2.82,1.35.82,0,1.6-.17,2.36-.52.76-.35,1.45-.85,2.06-1.5.61-.65,1.09-1.43,1.43-2.33v-11.05h2.99v14.25c0,.36.07.62.22.79.15.17.39.27.73.29v2.31c-.34.04-.61.07-.8.08s-.38.02-.56.02c-.57,0-1.05-.17-1.46-.52-.41-.35-.62-.78-.65-1.3l-.07-2.06c-.77,1.31-1.81,2.32-3.11,3.04-1.3.72-2.73,1.08-4.27,1.08-1.86,0-3.26-.62-4.22-1.88-.95-1.25-1.43-3.09-1.43-5.53Z"/>
        <path class="cls-1" d="M574.46,437.85h-2.99v-9.84c0-1.84-.3-3.2-.9-4.08-.6-.88-1.49-1.31-2.67-1.31s-2.29.43-3.26,1.3-1.67,1.98-2.07,3.35v10.58h-2.99v-9.84c0-1.86-.29-3.23-.88-4.09-.59-.87-1.47-1.3-2.65-1.3s-2.26.42-3.25,1.26-1.68,1.96-2.09,3.34v10.63h-2.99v-17.65h2.72v3.81c.73-1.3,1.67-2.31,2.82-3.02s2.46-1.06,3.91-1.06,2.65.4,3.54,1.2c.88.8,1.43,1.83,1.63,3.09.79-1.39,1.76-2.46,2.89-3.19,1.13-.73,2.43-1.1,3.88-1.1,1.02,0,1.88.19,2.57.56s1.24.89,1.65,1.55c.41.66.7,1.45.88,2.34.18.9.27,1.88.27,2.94v10.53Z"/>
        <path class="cls-1" d="M586.97,438.19c-1.34,0-2.56-.24-3.65-.73-1.1-.48-2.05-1.15-2.86-1.99s-1.43-1.82-1.87-2.92c-.44-1.1-.66-2.27-.66-3.51,0-1.66.39-3.18,1.16-4.56.77-1.37,1.84-2.47,3.21-3.31s2.94-1.25,4.71-1.25,3.35.42,4.67,1.27c1.33.85,2.36,1.95,3.09,3.31.74,1.36,1.1,2.83,1.1,4.41,0,.22,0,.44-.02.66-.01.21-.03.38-.05.49h-14.72c.09,1.14.41,2.16.97,3.04.55.88,1.27,1.58,2.16,2.08.88.5,1.84.76,2.86.76,1.09,0,2.11-.27,3.08-.82.96-.54,1.63-1.26,1.99-2.14l2.58.71c-.38.86-.96,1.63-1.72,2.31s-1.65,1.21-2.69,1.6c-1.03.38-2.15.58-3.35.58ZM580.99,427.99h12.1c-.09-1.14-.42-2.15-.99-3.02-.57-.88-1.29-1.56-2.18-2.05-.88-.49-1.86-.74-2.92-.74s-2.01.25-2.89.74c-.88.49-1.6,1.18-2.16,2.05-.56.87-.88,1.88-.97,3.02Z"/>
        <path class="cls-1" d="M614.61,437.85h-2.99v-9.84c0-1.86-.29-3.23-.87-4.09s-1.46-1.3-2.63-1.3c-.82,0-1.63.2-2.43.61-.8.4-1.52.95-2.14,1.63-.62.68-1.07,1.47-1.34,2.37v10.63h-2.99v-17.65h2.72v3.81c.48-.83,1.09-1.55,1.84-2.16s1.6-1.08,2.55-1.42c.95-.34,1.95-.51,2.99-.51s1.88.19,2.57.56,1.24.89,1.63,1.55.68,1.45.85,2.34c.17.9.26,1.88.26,2.94v10.53Z"/>
        <path class="cls-1" d="M628.28,437.07c-.25.12-.59.26-1.02.44-.43.18-.93.34-1.5.47-.57.14-1.17.21-1.8.21-.73,0-1.39-.13-2.01-.39-.61-.26-1.1-.67-1.46-1.22s-.54-1.25-.54-2.09v-11.93h-2.41v-2.35h2.41v-5.92h2.99v5.92h3.98v2.35h-3.98v11.02c.04.63.26,1.11.65,1.41.38.3.84.46,1.36.46.59,0,1.13-.1,1.63-.31.5-.2.83-.35.99-.44l.71,2.38Z"/>
        <path class="cls-1" d="M629.68,432.75c0-1.13.32-2.1.97-2.92.65-.82,1.54-1.46,2.67-1.91,1.13-.45,2.45-.68,3.94-.68.79,0,1.63.06,2.52.19.88.12,1.67.31,2.35.56v-1.28c0-1.34-.41-2.4-1.22-3.17-.82-.77-1.97-1.16-3.47-1.16-.98,0-1.91.18-2.81.53s-1.84.86-2.84,1.51l-1.09-2.11c1.16-.79,2.31-1.39,3.47-1.79,1.16-.4,2.36-.59,3.6-.59,2.27,0,4.06.62,5.37,1.87,1.31,1.25,1.97,2.98,1.97,5.21v7.45c0,.36.07.62.22.79.15.17.39.27.73.29v2.31c-.29.04-.55.08-.77.1-.21.02-.39.03-.53.03-.7,0-1.23-.19-1.58-.58-.35-.38-.55-.79-.59-1.22l-.07-1.12c-.77,1-1.78,1.77-3.03,2.31-1.25.54-2.48.82-3.71.82s-2.23-.24-3.16-.73-1.65-1.14-2.18-1.96-.78-1.74-.78-2.75ZM641.24,434c.27-.31.49-.63.65-.96.16-.32.24-.6.24-.82v-2.19c-.7-.27-1.44-.48-2.21-.62s-1.53-.22-2.28-.22c-1.52,0-2.75.3-3.69.89-.94.6-1.41,1.41-1.41,2.44,0,.56.15,1.11.46,1.63s.76.96,1.36,1.3c.6.34,1.34.5,2.23.5.93,0,1.81-.19,2.65-.55.84-.37,1.51-.84,2.01-1.4Z"/>
        <path class="cls-1" d="M649.97,413.03h2.99v20.32c0,.98.14,1.58.41,1.81.27.23.6.34.99.34.48,0,.93-.05,1.36-.15s.79-.21,1.09-.32l.48,2.45c-.5.21-1.09.38-1.77.51-.68.14-1.28.21-1.8.21-1.16,0-2.07-.33-2.74-.99-.67-.66-1-1.58-1-2.77v-21.4Z"/>
        <path class="cls-1" d="M253.23,469.88c0-1.66.35-3.19,1.04-4.57.69-1.38,1.64-2.49,2.86-3.32,1.21-.83,2.6-1.25,4.17-1.25,1.43,0,2.71.37,3.84,1.12,1.13.75,2.02,1.65,2.65,2.72v-10.74h2.99v21.42c0,.36.07.63.22.8.15.17.39.27.73.29v2.31c-.57.09-1.01.13-1.33.13-.59,0-1.1-.2-1.55-.61-.44-.41-.66-.86-.66-1.36v-1.5c-.7,1.13-1.64,2.03-2.82,2.69-1.18.66-2.4.99-3.67.99s-2.35-.24-3.38-.73c-1.03-.48-1.93-1.15-2.69-2.01-.76-.86-1.35-1.83-1.77-2.92-.42-1.09-.63-2.24-.63-3.46ZM267.78,472.47v-5.05c-.27-.76-.71-1.45-1.33-2.07-.61-.62-1.3-1.11-2.06-1.48-.76-.37-1.51-.55-2.26-.55-.88,0-1.68.19-2.4.55-.71.37-1.33.86-1.84,1.48-.51.62-.9,1.32-1.17,2.1-.27.79-.41,1.6-.41,2.46s.15,1.7.46,2.49c.31.79.74,1.48,1.29,2.09s1.2,1.08,1.94,1.41c.74.34,1.54.51,2.4.51.54,0,1.1-.1,1.68-.3.58-.2,1.13-.48,1.65-.84s.96-.78,1.33-1.26.6-.99.71-1.53Z"/>
        <path class="cls-1" d="M274.38,473.55c0-1.13.32-2.1.97-2.92.65-.82,1.54-1.46,2.67-1.91,1.13-.45,2.45-.68,3.94-.68.79,0,1.63.06,2.52.19.88.12,1.67.31,2.35.56v-1.28c0-1.34-.41-2.4-1.22-3.17-.82-.77-1.97-1.16-3.47-1.16-.98,0-1.91.18-2.81.53s-1.84.86-2.84,1.51l-1.09-2.11c1.16-.79,2.31-1.39,3.47-1.79,1.16-.4,2.36-.59,3.6-.59,2.27,0,4.06.62,5.37,1.87,1.31,1.25,1.97,2.98,1.97,5.21v7.45c0,.36.07.62.22.79.15.17.39.27.73.29v2.31c-.29.04-.55.08-.77.1-.21.02-.39.03-.53.03-.7,0-1.23-.19-1.58-.58-.35-.38-.55-.79-.59-1.22l-.07-1.12c-.77,1-1.78,1.77-3.03,2.31-1.25.54-2.48.82-3.71.82s-2.23-.24-3.16-.73-1.65-1.14-2.18-1.96-.78-1.74-.78-2.75ZM285.94,474.8c.27-.31.49-.63.65-.96.16-.32.24-.6.24-.82v-2.19c-.7-.27-1.44-.48-2.21-.62s-1.53-.22-2.28-.22c-1.52,0-2.75.3-3.69.89-.94.6-1.41,1.41-1.41,2.44,0,.56.15,1.11.46,1.63s.76.96,1.36,1.3c.6.34,1.34.5,2.23.5.93,0,1.81-.19,2.65-.55.84-.37,1.51-.84,2.01-1.4Z"/>
        <path class="cls-1" d="M300.69,478.99c-1.47,0-2.86-.24-4.15-.73-1.29-.49-2.4-1.22-3.33-2.19l1.16-2.11c1.02.95,2.04,1.63,3.06,2.04,1.02.41,2.06.61,3.13.61,1.22,0,2.22-.23,2.99-.69.77-.46,1.16-1.13,1.16-2.03,0-.65-.2-1.14-.59-1.45-.4-.32-.96-.58-1.68-.79-.73-.21-1.59-.46-2.58-.73-1.22-.36-2.26-.74-3.09-1.15s-1.47-.91-1.9-1.52c-.43-.61-.65-1.37-.65-2.29,0-1.12.29-2.07.88-2.85.59-.78,1.4-1.37,2.43-1.77,1.03-.4,2.2-.61,3.52-.61s2.5.2,3.57.61,1.98,1.01,2.75,1.8l-1.36,2.07c-.7-.73-1.47-1.26-2.31-1.62-.84-.35-1.78-.53-2.82-.53-.61,0-1.21.07-1.8.22-.59.15-1.08.4-1.46.78-.39.37-.58.89-.58,1.57,0,.56.15,1.01.46,1.33.31.33.76.6,1.36.83.6.23,1.33.47,2.19.74,1.34.38,2.5.76,3.49,1.15.99.38,1.75.88,2.29,1.48.54.61.82,1.45.82,2.53,0,1.66-.63,2.96-1.9,3.89-1.27.93-2.95,1.4-5.03,1.4Z"/>
        <path class="cls-1" d="M336.66,457.23h-8.33v21.42h-3.06v-21.42h-8.33v-2.72h19.72v2.72Z"/>
        <path class="cls-1" d="M343.74,478.99c-1.34,0-2.56-.24-3.65-.73-1.1-.48-2.05-1.15-2.86-1.99s-1.43-1.82-1.87-2.92c-.44-1.1-.66-2.27-.66-3.51,0-1.66.39-3.18,1.16-4.56.77-1.37,1.84-2.47,3.21-3.31s2.94-1.25,4.71-1.25,3.35.42,4.67,1.27c1.33.85,2.36,1.95,3.09,3.31.74,1.36,1.1,2.83,1.1,4.41,0,.22,0,.44-.02.66-.01.21-.03.38-.05.49h-14.72c.09,1.14.41,2.16.97,3.04.55.88,1.27,1.58,2.16,2.08.88.5,1.84.76,2.86.76,1.09,0,2.11-.27,3.08-.82.96-.54,1.63-1.26,1.99-2.14l2.58.71c-.38.86-.96,1.63-1.72,2.31s-1.65,1.21-2.69,1.6c-1.03.38-2.15.58-3.35.58ZM337.75,468.79h12.1c-.09-1.14-.42-2.15-.99-3.02-.57-.88-1.29-1.56-2.18-2.05-.88-.49-1.86-.74-2.92-.74s-2.01.25-2.89.74c-.88.49-1.6,1.18-2.16,2.05-.56.87-.88,1.88-.97,3.02Z"/>
        <path class="cls-1" d="M365.36,463.52c-1.5.02-2.82.4-3.96,1.14-1.14.74-1.96,1.75-2.43,3.04v10.95h-2.99v-17.65h2.79v4.01c.61-1.22,1.42-2.21,2.43-2.97s2.07-1.18,3.18-1.28h.58c.16,0,.29.01.41.04v2.72Z"/>
        <path class="cls-1" d="M395.08,478.65h-2.99v-9.84c0-1.84-.3-3.2-.9-4.08-.6-.88-1.49-1.31-2.67-1.31s-2.29.43-3.26,1.3-1.67,1.98-2.07,3.35v10.58h-2.99v-9.84c0-1.86-.29-3.23-.88-4.09-.59-.87-1.47-1.3-2.65-1.3s-2.26.42-3.25,1.26-1.68,1.96-2.09,3.34v10.63h-2.99v-17.65h2.72v3.81c.73-1.3,1.67-2.31,2.82-3.02s2.46-1.06,3.91-1.06,2.65.4,3.54,1.2c.88.8,1.43,1.83,1.63,3.09.79-1.39,1.76-2.46,2.89-3.19,1.13-.73,2.43-1.1,3.88-1.1,1.02,0,1.88.19,2.57.56s1.24.89,1.65,1.55c.41.66.7,1.45.88,2.34.18.9.27,1.88.27,2.94v10.53Z"/>
        <path class="cls-1" d="M398.34,473.55c0-1.13.32-2.1.97-2.92.65-.82,1.54-1.46,2.67-1.91,1.13-.45,2.45-.68,3.94-.68.79,0,1.63.06,2.52.19.88.12,1.67.31,2.35.56v-1.28c0-1.34-.41-2.4-1.22-3.17-.82-.77-1.97-1.16-3.47-1.16-.98,0-1.91.18-2.81.53s-1.84.86-2.84,1.51l-1.09-2.11c1.16-.79,2.31-1.39,3.47-1.79,1.16-.4,2.36-.59,3.6-.59,2.27,0,4.06.62,5.37,1.87,1.31,1.25,1.97,2.98,1.97,5.21v7.45c0,.36.07.62.22.79.15.17.39.27.73.29v2.31c-.29.04-.55.08-.77.1-.21.02-.39.03-.53.03-.7,0-1.23-.19-1.58-.58-.35-.38-.55-.79-.59-1.22l-.07-1.12c-.77,1-1.78,1.77-3.03,2.31-1.25.54-2.48.82-3.71.82s-2.23-.24-3.16-.73-1.65-1.14-2.18-1.96-.78-1.74-.78-2.75ZM409.9,474.8c.27-.31.49-.63.65-.96.16-.32.24-.6.24-.82v-2.19c-.7-.27-1.44-.48-2.21-.62s-1.53-.22-2.28-.22c-1.52,0-2.75.3-3.69.89-.94.6-1.41,1.41-1.41,2.44,0,.56.15,1.11.46,1.63s.76.96,1.36,1.3c.6.34,1.34.5,2.23.5.93,0,1.81-.19,2.65-.55.84-.37,1.51-.84,2.01-1.4Z"/>
        <path class="cls-1" d="M424.65,478.99c-1.47,0-2.86-.24-4.15-.73-1.29-.49-2.4-1.22-3.33-2.19l1.16-2.11c1.02.95,2.04,1.63,3.06,2.04,1.02.41,2.06.61,3.13.61,1.22,0,2.22-.23,2.99-.69.77-.46,1.16-1.13,1.16-2.03,0-.65-.2-1.14-.59-1.45-.4-.32-.96-.58-1.68-.79-.73-.21-1.59-.46-2.58-.73-1.22-.36-2.26-.74-3.09-1.15s-1.47-.91-1.9-1.52c-.43-.61-.65-1.37-.65-2.29,0-1.12.29-2.07.88-2.85.59-.78,1.4-1.37,2.43-1.77,1.03-.4,2.2-.61,3.52-.61s2.5.2,3.57.61,1.98,1.01,2.75,1.8l-1.36,2.07c-.7-.73-1.47-1.26-2.31-1.62-.84-.35-1.78-.53-2.82-.53-.61,0-1.21.07-1.8.22-.59.15-1.08.4-1.46.78-.39.37-.58.89-.58,1.57,0,.56.15,1.01.46,1.33.31.33.76.6,1.36.83.6.23,1.33.47,2.19.74,1.34.38,2.5.76,3.49,1.15.99.38,1.75.88,2.29,1.48.54.61.82,1.45.82,2.53,0,1.66-.63,2.96-1.9,3.89-1.27.93-2.95,1.4-5.03,1.4Z"/>
        <path class="cls-1" d="M465.11,478.65v-18.43l-7.96,14.18h-1.87l-7.99-14.18v18.43h-3.06v-24.14h3.23l8.74,15.67,8.77-15.67h3.2v24.14h-3.06Z"/>
        <path class="cls-1" d="M481.03,478.99c-1.34,0-2.56-.24-3.65-.73-1.1-.48-2.05-1.15-2.86-1.99s-1.43-1.82-1.87-2.92c-.44-1.1-.66-2.27-.66-3.51,0-1.66.39-3.18,1.16-4.56.77-1.37,1.84-2.47,3.21-3.31s2.94-1.25,4.71-1.25,3.35.42,4.67,1.27c1.33.85,2.36,1.95,3.09,3.31.74,1.36,1.1,2.83,1.1,4.41,0,.22,0,.44-.02.66-.01.21-.03.38-.05.49h-14.72c.09,1.14.41,2.16.97,3.04.55.88,1.27,1.58,2.16,2.08.88.5,1.84.76,2.86.76,1.09,0,2.11-.27,3.08-.82.96-.54,1.63-1.26,1.99-2.14l2.58.71c-.38.86-.96,1.63-1.72,2.31s-1.65,1.21-2.69,1.6c-1.03.38-2.15.58-3.35.58ZM475.04,468.79h12.1c-.09-1.14-.42-2.15-.99-3.02-.57-.88-1.29-1.56-2.18-2.05-.88-.49-1.86-.74-2.92-.74s-2.01.25-2.89.74c-.88.49-1.6,1.18-2.16,2.05-.56.87-.88,1.88-.97,3.02Z"/>
        <path class="cls-1" d="M492.11,469.88c0-1.66.35-3.19,1.04-4.57.69-1.38,1.64-2.49,2.86-3.32,1.21-.83,2.6-1.25,4.17-1.25,1.43,0,2.71.37,3.84,1.12,1.13.75,2.02,1.65,2.65,2.72v-10.74h2.99v21.42c0,.36.07.63.22.8.15.17.39.27.73.29v2.31c-.57.09-1.01.13-1.33.13-.59,0-1.1-.2-1.55-.61-.44-.41-.66-.86-.66-1.36v-1.5c-.7,1.13-1.64,2.03-2.82,2.69-1.18.66-2.4.99-3.67.99s-2.35-.24-3.38-.73c-1.03-.48-1.93-1.15-2.69-2.01-.76-.86-1.35-1.83-1.77-2.92-.42-1.09-.63-2.24-.63-3.46ZM506.66,472.47v-5.05c-.27-.76-.71-1.45-1.33-2.07-.61-.62-1.3-1.11-2.06-1.48-.76-.37-1.51-.55-2.26-.55-.88,0-1.68.19-2.4.55-.71.37-1.33.86-1.84,1.48-.51.62-.9,1.32-1.17,2.1-.27.79-.41,1.6-.41,2.46s.15,1.7.46,2.49c.31.79.74,1.48,1.29,2.09s1.2,1.08,1.94,1.41c.74.34,1.54.51,2.4.51.54,0,1.1-.1,1.68-.3.58-.2,1.13-.48,1.65-.84s.96-.78,1.33-1.26.6-.99.71-1.53Z"/>
        <path class="cls-1" d="M514.65,457.57v-3.74h2.99v3.74h-2.99ZM514.65,478.65v-17.75h2.99v17.75h-2.99Z"/>
        <path class="cls-1" d="M530.33,478.99c-1.34,0-2.56-.24-3.65-.73-1.1-.48-2.05-1.15-2.86-2.01s-1.43-1.83-1.87-2.94c-.44-1.1-.66-2.27-.66-3.51,0-1.67.37-3.18,1.12-4.56s1.8-2.47,3.16-3.29c1.36-.82,2.94-1.23,4.73-1.23s3.27.39,4.57,1.17c1.3.78,2.27,1.83,2.91,3.15l-2.92.92c-.45-.84-1.09-1.49-1.9-1.96-.82-.46-1.72-.7-2.72-.7-1.09,0-2.08.28-2.97.84-.9.56-1.6,1.33-2.12,2.3-.52.97-.78,2.09-.78,3.35s.27,2.35.8,3.35c.53,1,1.25,1.79,2.14,2.37.9.58,1.89.88,2.98.88.7,0,1.38-.12,2.02-.38.65-.25,1.21-.58,1.7-1s.82-.88,1-1.38l2.92.88c-.36.86-.91,1.63-1.65,2.29-.74.67-1.61,1.2-2.62,1.58s-2.11.58-3.32.58Z"/>
        <path class="cls-1" d="M541.31,457.57v-3.74h2.99v3.74h-2.99ZM541.31,478.65v-17.75h2.99v17.75h-2.99Z"/>
        <path class="cls-1" d="M564.53,478.65h-2.99v-9.84c0-1.86-.29-3.23-.87-4.09s-1.46-1.3-2.63-1.3c-.82,0-1.63.2-2.43.61-.8.4-1.52.95-2.14,1.63-.62.68-1.07,1.47-1.34,2.37v10.63h-2.99v-17.65h2.72v3.81c.48-.83,1.09-1.55,1.84-2.16s1.6-1.08,2.55-1.42c.95-.34,1.95-.51,2.99-.51s1.88.19,2.57.56,1.24.89,1.63,1.55.68,1.45.85,2.34c.17.9.26,1.88.26,2.94v10.53Z"/>
        <path class="cls-1" d="M567.79,473.55c0-1.13.32-2.1.97-2.92.65-.82,1.54-1.46,2.67-1.91,1.13-.45,2.45-.68,3.94-.68.79,0,1.63.06,2.52.19.88.12,1.67.31,2.35.56v-1.28c0-1.34-.41-2.4-1.22-3.17-.82-.77-1.97-1.16-3.47-1.16-.98,0-1.91.18-2.81.53s-1.84.86-2.84,1.51l-1.09-2.11c1.16-.79,2.31-1.39,3.47-1.79,1.16-.4,2.36-.59,3.6-.59,2.27,0,4.06.62,5.37,1.87,1.31,1.25,1.97,2.98,1.97,5.21v7.45c0,.36.07.62.22.79.15.17.39.27.73.29v2.31c-.29.04-.55.08-.77.1-.21.02-.39.03-.53.03-.7,0-1.23-.19-1.58-.58-.35-.38-.55-.79-.59-1.22l-.07-1.12c-.77,1-1.78,1.77-3.03,2.31-1.25.54-2.48.82-3.71.82s-2.23-.24-3.16-.73-1.65-1.14-2.18-1.96-.78-1.74-.78-2.75ZM579.35,474.8c.27-.31.49-.63.65-.96.16-.32.24-.6.24-.82v-2.19c-.7-.27-1.44-.48-2.21-.62s-1.53-.22-2.28-.22c-1.52,0-2.75.3-3.69.89-.94.6-1.41,1.41-1.41,2.44,0,.56.15,1.11.46,1.63s.76.96,1.36,1.3c.6.34,1.34.5,2.23.5.93,0,1.81-.19,2.65-.55.84-.37,1.51-.84,2.01-1.4Z"/>
        <path class="cls-1" d="M588.02,457.57v-3.74h2.99v3.74h-2.99ZM588.02,478.65v-17.75h2.99v17.75h-2.99Z"/>
        <path class="cls-1" d="M601.93,478.99c-1.47,0-2.86-.24-4.15-.73-1.29-.49-2.4-1.22-3.33-2.19l1.16-2.11c1.02.95,2.04,1.63,3.06,2.04,1.02.41,2.06.61,3.13.61,1.22,0,2.22-.23,2.99-.69.77-.46,1.16-1.13,1.16-2.03,0-.65-.2-1.14-.59-1.45-.4-.32-.96-.58-1.68-.79-.73-.21-1.59-.46-2.58-.73-1.22-.36-2.26-.74-3.09-1.15s-1.47-.91-1.9-1.52c-.43-.61-.65-1.37-.65-2.29,0-1.12.29-2.07.88-2.85.59-.78,1.4-1.37,2.43-1.77,1.03-.4,2.2-.61,3.52-.61s2.5.2,3.57.61,1.98,1.01,2.75,1.8l-1.36,2.07c-.7-.73-1.47-1.26-2.31-1.62-.84-.35-1.78-.53-2.82-.53-.61,0-1.21.07-1.8.22-.59.15-1.08.4-1.46.78-.39.37-.58.89-.58,1.57,0,.56.15,1.01.46,1.33.31.33.76.6,1.36.83.6.23,1.33.47,2.19.74,1.34.38,2.5.76,3.49,1.15.99.38,1.75.88,2.29,1.48.54.61.82,1.45.82,2.53,0,1.66-.63,2.96-1.9,3.89-1.27.93-2.95,1.4-5.03,1.4Z"/>
        <path class="cls-1" d="M628.89,478.99c-1.34,0-2.56-.24-3.65-.73-1.1-.48-2.05-1.15-2.86-1.99s-1.43-1.82-1.87-2.92c-.44-1.1-.66-2.27-.66-3.51,0-1.66.39-3.18,1.16-4.56.77-1.37,1.84-2.47,3.21-3.31s2.94-1.25,4.71-1.25,3.35.42,4.67,1.27c1.33.85,2.36,1.95,3.09,3.31.74,1.36,1.1,2.83,1.1,4.41,0,.22,0,.44-.02.66-.01.21-.03.38-.05.49h-14.72c.09,1.14.41,2.16.97,3.04.55.88,1.27,1.58,2.16,2.08.88.5,1.84.76,2.86.76,1.09,0,2.11-.27,3.08-.82.96-.54,1.63-1.26,1.99-2.14l2.58.71c-.38.86-.96,1.63-1.72,2.31s-1.65,1.21-2.69,1.6c-1.03.38-2.15.58-3.35.58ZM622.91,468.79h12.1c-.09-1.14-.42-2.15-.99-3.02-.57-.88-1.29-1.56-2.18-2.05-.88-.49-1.86-.74-2.92-.74s-2.01.25-2.89.74c-.88.49-1.6,1.18-2.16,2.05-.56.87-.88,1.88-.97,3.02Z"/>
        <path class="cls-1" d="M254.86,519.45v-24.14h10.06c1.07,0,2.04.22,2.92.66s1.65,1.03,2.31,1.77c.66.74,1.17,1.56,1.53,2.48s.54,1.85.54,2.8c0,1.31-.29,2.57-.88,3.76-.59,1.19-1.42,2.15-2.48,2.89-1.07.74-2.31,1.11-3.74,1.11h-7.21v8.67h-3.06ZM257.92,508.06h7.04c.84,0,1.57-.23,2.19-.68.62-.45,1.11-1.06,1.46-1.84.35-.77.53-1.61.53-2.52,0-.95-.2-1.81-.61-2.57-.41-.76-.94-1.35-1.6-1.79-.66-.43-1.38-.65-2.18-.65h-6.83v10.03Z"/>
        <path class="cls-1" d="M282.98,519.79c-1.34,0-2.55-.24-3.64-.72-1.09-.48-2.03-1.15-2.82-1.99-.79-.84-1.41-1.82-1.84-2.92-.43-1.1-.65-2.26-.65-3.48s.22-2.41.65-3.51,1.04-2.08,1.84-2.92c.79-.84,1.74-1.51,2.84-1.99s2.31-.73,3.62-.73,2.55.24,3.64.73,2.03,1.15,2.84,1.99,1.42,1.82,1.85,2.92.65,2.27.65,3.51-.21,2.37-.65,3.48c-.43,1.1-1.04,2.07-1.84,2.92-.79.84-1.74,1.51-2.84,1.99-1.1.48-2.32.72-3.66.72ZM277.1,510.71c0,1.21.27,2.31.8,3.3.53.99,1.24,1.77,2.12,2.34s1.87.86,2.96.86,2.08-.29,2.97-.88c.9-.58,1.61-1.37,2.14-2.37.53-1,.8-2.1.8-3.31s-.27-2.31-.8-3.3c-.53-.99-1.25-1.77-2.14-2.36-.9-.58-1.89-.88-2.97-.88s-2.07.3-2.96.89-1.59,1.38-2.12,2.37c-.53.99-.8,2.1-.8,3.33Z"/>
        <path class="cls-1" d="M311,519.45h-2.99v-9.84c0-1.87-.29-3.23-.87-4.09s-1.46-1.3-2.63-1.3c-.82,0-1.63.2-2.43.61-.8.4-1.52.95-2.14,1.63-.62.68-1.07,1.47-1.34,2.37v10.63h-2.99v-17.65h2.72v3.81c.48-.83,1.09-1.55,1.84-2.16s1.6-1.08,2.55-1.42c.95-.34,1.95-.51,2.99-.51s1.88.19,2.57.56,1.24.89,1.63,1.55.68,1.45.85,2.35c.17.9.26,1.88.26,2.94v10.53Z"/>
        <path class="cls-1" d="M324.66,518.67c-.25.11-.59.26-1.02.44-.43.18-.93.34-1.5.48-.57.14-1.17.2-1.8.2-.73,0-1.39-.13-2.01-.39-.61-.26-1.1-.67-1.46-1.22-.36-.55-.54-1.25-.54-2.09v-11.93h-2.41v-2.35h2.41v-5.91h2.99v5.91h3.98v2.35h-3.98v11.02c.04.63.26,1.11.65,1.41.38.31.84.46,1.36.46.59,0,1.13-.1,1.63-.3.5-.21.83-.35.99-.44l.71,2.38Z"/>
        <path class="cls-1" d="M335.07,519.79c-1.34,0-2.56-.24-3.65-.72-1.1-.48-2.05-1.15-2.86-1.99s-1.43-1.82-1.87-2.92c-.44-1.1-.66-2.27-.66-3.51,0-1.67.39-3.18,1.16-4.56s1.84-2.47,3.21-3.31c1.37-.83,2.94-1.25,4.71-1.25s3.35.42,4.67,1.27c1.33.84,2.36,1.95,3.09,3.31.74,1.36,1.1,2.83,1.1,4.41,0,.22,0,.45-.02.66-.01.21-.03.38-.05.49h-14.72c.09,1.14.41,2.16.97,3.04.55.88,1.27,1.58,2.16,2.08.88.5,1.84.76,2.86.76,1.09,0,2.11-.27,3.08-.81.96-.54,1.63-1.26,1.99-2.14l2.58.71c-.38.86-.96,1.63-1.72,2.31s-1.65,1.21-2.69,1.6c-1.03.39-2.15.58-3.35.58ZM329.08,509.59h12.1c-.09-1.14-.42-2.15-.99-3.03-.57-.87-1.29-1.56-2.18-2.05-.88-.49-1.86-.74-2.92-.74s-2.01.25-2.89.74c-.88.49-1.6,1.18-2.16,2.05-.56.88-.88,1.88-.97,3.03Z"/>
        <path class="cls-1" d="M356.38,519.45v-24.14h10.34c1.07,0,2.04.22,2.92.66.88.44,1.65,1.03,2.31,1.77.66.74,1.17,1.56,1.53,2.48.36.92.54,1.85.54,2.8,0,1.11-.21,2.17-.63,3.16-.42,1-1.01,1.85-1.77,2.55s-1.65,1.19-2.67,1.46l5.85,9.25h-3.47l-5.51-8.67h-6.39v8.67h-3.06ZM359.44,508.06h7.31c.84,0,1.57-.23,2.19-.7.62-.46,1.11-1.08,1.46-1.85.35-.77.53-1.6.53-2.48s-.2-1.74-.61-2.5-.94-1.37-1.6-1.82c-.66-.45-1.38-.68-2.18-.68h-7.11v10.03Z"/>
        <path class="cls-1" d="M385.42,519.79c-1.34,0-2.55-.24-3.64-.72-1.09-.48-2.03-1.15-2.82-1.99-.79-.84-1.41-1.82-1.84-2.92-.43-1.1-.65-2.26-.65-3.48s.22-2.41.65-3.51,1.04-2.08,1.84-2.92c.79-.84,1.74-1.51,2.84-1.99s2.31-.73,3.62-.73,2.55.24,3.64.73,2.03,1.15,2.84,1.99,1.42,1.82,1.85,2.92.65,2.27.65,3.51-.21,2.37-.65,3.48c-.43,1.1-1.04,2.07-1.84,2.92-.79.84-1.74,1.51-2.84,1.99-1.1.48-2.32.72-3.66.72ZM379.54,510.71c0,1.21.27,2.31.8,3.3.53.99,1.24,1.77,2.12,2.34s1.87.86,2.96.86,2.08-.29,2.97-.88c.9-.58,1.61-1.37,2.14-2.37.53-1,.8-2.1.8-3.31s-.27-2.31-.8-3.3c-.53-.99-1.25-1.77-2.14-2.36-.9-.58-1.89-.88-2.97-.88s-2.07.3-2.96.89-1.59,1.38-2.12,2.37c-.53.99-.8,2.1-.8,3.33Z"/>
        <path class="cls-1" d="M424.79,519.45h-2.99v-9.84c0-1.84-.3-3.2-.9-4.08-.6-.88-1.49-1.31-2.67-1.31s-2.29.43-3.26,1.3-1.67,1.98-2.07,3.35v10.58h-2.99v-9.84c0-1.87-.29-3.23-.88-4.09-.59-.87-1.47-1.3-2.65-1.3s-2.26.42-3.25,1.26-1.68,1.95-2.09,3.34v10.63h-2.99v-17.65h2.72v3.81c.73-1.3,1.67-2.31,2.82-3.02,1.16-.71,2.46-1.06,3.91-1.06s2.65.4,3.54,1.2c.88.8,1.43,1.83,1.63,3.09.79-1.39,1.76-2.46,2.89-3.19s2.43-1.1,3.88-1.1c1.02,0,1.88.19,2.57.56s1.24.89,1.65,1.55c.41.66.7,1.45.88,2.35.18.9.27,1.88.27,2.94v10.53Z"/>
        <path class="cls-1" d="M428.06,514.35c0-1.13.32-2.1.97-2.92.65-.82,1.54-1.46,2.67-1.91,1.13-.45,2.45-.68,3.94-.68.79,0,1.63.06,2.52.19s1.67.31,2.35.56v-1.29c0-1.34-.41-2.4-1.22-3.17-.82-.77-1.97-1.16-3.47-1.16-.98,0-1.91.18-2.81.53-.9.35-1.84.86-2.84,1.51l-1.09-2.11c1.16-.79,2.31-1.39,3.47-1.79s2.36-.6,3.6-.6c2.27,0,4.06.62,5.37,1.87,1.31,1.25,1.97,2.98,1.97,5.21v7.45c0,.36.07.62.22.79s.39.26.73.29v2.31c-.29.04-.55.08-.77.1-.21.02-.39.04-.53.04-.7,0-1.23-.19-1.58-.58-.35-.38-.55-.79-.59-1.22l-.07-1.12c-.77,1-1.78,1.77-3.03,2.31-1.25.54-2.48.81-3.71.81s-2.23-.24-3.16-.72c-.93-.49-1.65-1.14-2.18-1.96s-.78-1.74-.78-2.75ZM439.62,515.6c.27-.31.49-.63.65-.96.16-.33.24-.6.24-.83v-2.19c-.7-.27-1.44-.48-2.21-.62-.77-.14-1.53-.22-2.28-.22-1.52,0-2.75.3-3.69.89-.94.6-1.41,1.41-1.41,2.44,0,.56.15,1.11.46,1.63s.76.96,1.36,1.3c.6.34,1.34.5,2.23.5.93,0,1.81-.18,2.65-.55.84-.37,1.51-.84,2.01-1.4Z"/>
        <path class="cls-1" d="M463.69,519.45h-2.99v-9.84c0-1.87-.29-3.23-.87-4.09s-1.46-1.3-2.63-1.3c-.82,0-1.63.2-2.43.61-.8.4-1.52.95-2.14,1.63-.62.68-1.07,1.47-1.34,2.37v10.63h-2.99v-17.65h2.72v3.81c.48-.83,1.09-1.55,1.84-2.16s1.6-1.08,2.55-1.42c.95-.34,1.95-.51,2.99-.51s1.88.19,2.57.56,1.24.89,1.63,1.55.68,1.45.85,2.35c.17.9.26,1.88.26,2.94v10.53Z"/>
        <path class="cls-1" d="M466.95,514.35c0-1.13.32-2.1.97-2.92.65-.82,1.54-1.46,2.67-1.91,1.13-.45,2.45-.68,3.94-.68.79,0,1.63.06,2.52.19s1.67.31,2.35.56v-1.29c0-1.34-.41-2.4-1.22-3.17-.82-.77-1.97-1.16-3.47-1.16-.98,0-1.91.18-2.81.53-.9.35-1.84.86-2.84,1.51l-1.09-2.11c1.16-.79,2.31-1.39,3.47-1.79s2.36-.6,3.6-.6c2.27,0,4.06.62,5.37,1.87,1.31,1.25,1.97,2.98,1.97,5.21v7.45c0,.36.07.62.22.79s.39.26.73.29v2.31c-.29.04-.55.08-.77.1-.21.02-.39.04-.53.04-.7,0-1.23-.19-1.58-.58-.35-.38-.55-.79-.59-1.22l-.07-1.12c-.77,1-1.78,1.77-3.03,2.31-1.25.54-2.48.81-3.71.81s-2.23-.24-3.16-.72c-.93-.49-1.65-1.14-2.18-1.96s-.78-1.74-.78-2.75ZM478.51,515.6c.27-.31.49-.63.65-.96.16-.33.24-.6.24-.83v-2.19c-.7-.27-1.44-.48-2.21-.62-.77-.14-1.53-.22-2.28-.22-1.52,0-2.75.3-3.69.89-.94.6-1.41,1.41-1.41,2.44,0,.56.15,1.11.46,1.63s.76.96,1.36,1.3c.6.34,1.34.5,2.23.5.93,0,1.81-.18,2.65-.55.84-.37,1.51-.84,2.01-1.4Z"/>
        <path class="cls-1" d="M494.63,510.68c0-1.66.35-3.19,1.04-4.57.69-1.38,1.64-2.49,2.86-3.32,1.21-.83,2.6-1.25,4.17-1.25,1.43,0,2.71.38,3.84,1.12,1.13.75,2.02,1.65,2.65,2.72v-10.74h2.99v21.42c0,.36.07.63.22.8.15.17.39.27.73.29v2.31c-.57.09-1.01.14-1.33.14-.59,0-1.1-.21-1.55-.61-.44-.41-.66-.86-.66-1.36v-1.5c-.7,1.13-1.64,2.03-2.82,2.69-1.18.66-2.4.99-3.67.99s-2.35-.24-3.38-.72c-1.03-.48-1.93-1.15-2.69-2.01-.76-.86-1.35-1.83-1.77-2.92-.42-1.09-.63-2.24-.63-3.46ZM509.18,513.27v-5.05c-.27-.76-.71-1.45-1.33-2.07-.61-.62-1.3-1.11-2.06-1.48-.76-.37-1.51-.55-2.26-.55-.88,0-1.68.19-2.4.55-.71.37-1.33.87-1.84,1.48-.51.62-.9,1.32-1.17,2.1-.27.79-.41,1.61-.41,2.46s.15,1.71.46,2.49c.31.79.74,1.48,1.29,2.09s1.2,1.08,1.94,1.41c.74.34,1.54.5,2.4.5.54,0,1.1-.1,1.68-.3.58-.2,1.13-.48,1.65-.84s.96-.78,1.33-1.26.6-.99.71-1.53Z"/>
        <path class="cls-1" d="M525.02,519.79c-1.34,0-2.56-.24-3.65-.72-1.1-.48-2.05-1.15-2.86-1.99s-1.43-1.82-1.87-2.92c-.44-1.1-.66-2.27-.66-3.51,0-1.67.39-3.18,1.16-4.56s1.84-2.47,3.21-3.31c1.37-.83,2.94-1.25,4.71-1.25s3.35.42,4.67,1.27c1.33.84,2.36,1.95,3.09,3.31.74,1.36,1.1,2.83,1.1,4.41,0,.22,0,.45-.02.66-.01.21-.03.38-.05.49h-14.72c.09,1.14.41,2.16.97,3.04.55.88,1.27,1.58,2.16,2.08.88.5,1.84.76,2.86.76,1.09,0,2.11-.27,3.08-.81.96-.54,1.63-1.26,1.99-2.14l2.58.71c-.38.86-.96,1.63-1.72,2.31s-1.65,1.21-2.69,1.6c-1.03.39-2.15.58-3.35.58ZM519.04,509.59h12.1c-.09-1.14-.42-2.15-.99-3.03-.57-.87-1.29-1.56-2.18-2.05-.88-.49-1.86-.74-2.92-.74s-2.01.25-2.89.74c-.88.49-1.6,1.18-2.16,2.05-.56.88-.88,1.88-.97,3.03Z"/>
        <path class="cls-1" d="M544.78,507.18c0-1.47.25-2.92.76-4.34.51-1.42,1.26-2.71,2.24-3.88s2.19-2.1,3.62-2.79c1.43-.69,3.05-1.04,4.86-1.04,2.15,0,4,.49,5.54,1.48,1.54.99,2.69,2.25,3.43,3.79l-2.41,1.56c-.48-1.02-1.08-1.83-1.82-2.43s-1.53-1.03-2.38-1.28c-.85-.25-1.68-.37-2.5-.37-1.34,0-2.52.27-3.55.81-1.03.54-1.9,1.27-2.6,2.18-.7.91-1.23,1.92-1.58,3.04-.35,1.12-.53,2.25-.53,3.38,0,1.25.21,2.45.63,3.6.42,1.16,1,2.18,1.75,3.06.75.88,1.63,1.59,2.65,2.11,1.02.52,2.13.78,3.33.78.84,0,1.7-.15,2.58-.44s1.71-.75,2.48-1.38,1.38-1.43,1.84-2.43l2.55,1.39c-.5,1.2-1.27,2.22-2.31,3.06-1.04.84-2.2,1.47-3.48,1.9-1.28.43-2.54.64-3.79.64-1.66,0-3.17-.36-4.56-1.07s-2.58-1.67-3.59-2.86c-1.01-1.19-1.79-2.53-2.35-4.01-.56-1.48-.83-2.99-.83-4.51Z"/>
        <path class="cls-1" d="M584.45,519.45h-2.99v-9.84c0-1.8-.32-3.14-.97-4.04-.65-.9-1.57-1.35-2.77-1.35-.77,0-1.55.2-2.33.61-.78.4-1.47.95-2.06,1.63-.59.68-1.02,1.47-1.29,2.37v10.63h-2.99v-24.82h2.99v10.99c.7-1.26,1.66-2.26,2.87-2.99,1.21-.73,2.52-1.1,3.93-1.1,1.07,0,1.96.19,2.67.56s1.29.89,1.72,1.57c.43.67.74,1.46.94,2.34.19.89.29,1.86.29,2.92v10.53Z"/>
        <path class="cls-1" d="M587.72,514.35c0-1.13.32-2.1.97-2.92.65-.82,1.54-1.46,2.67-1.91,1.13-.45,2.45-.68,3.94-.68.79,0,1.63.06,2.52.19s1.67.31,2.35.56v-1.29c0-1.34-.41-2.4-1.22-3.17-.82-.77-1.97-1.16-3.47-1.16-.98,0-1.91.18-2.81.53-.9.35-1.84.86-2.84,1.51l-1.09-2.11c1.16-.79,2.31-1.39,3.47-1.79s2.36-.6,3.6-.6c2.27,0,4.06.62,5.37,1.87,1.31,1.25,1.97,2.98,1.97,5.21v7.45c0,.36.07.62.22.79s.39.26.73.29v2.31c-.29.04-.55.08-.77.1-.21.02-.39.04-.53.04-.7,0-1.23-.19-1.58-.58-.35-.38-.55-.79-.59-1.22l-.07-1.12c-.77,1-1.78,1.77-3.03,2.31-1.25.54-2.48.81-3.71.81s-2.23-.24-3.16-.72c-.93-.49-1.65-1.14-2.18-1.96s-.78-1.74-.78-2.75ZM599.28,515.6c.27-.31.49-.63.65-.96.16-.33.24-.6.24-.83v-2.19c-.7-.27-1.44-.48-2.21-.62-.77-.14-1.53-.22-2.28-.22-1.52,0-2.75.3-3.69.89-.94.6-1.41,1.41-1.41,2.44,0,.56.15,1.11.46,1.63s.76.96,1.36,1.3c.6.34,1.34.5,2.23.5.93,0,1.81-.18,2.65-.55.84-.37,1.51-.84,2.01-1.4Z"/>
        <path class="cls-1" d="M612.47,519.45l-6.97-17.65h3.13l5.58,14.81,5.58-14.81h2.92l-6.97,17.65h-3.26Z"/>
        <path class="cls-1" d="M632.94,519.79c-1.34,0-2.56-.24-3.65-.72-1.1-.48-2.05-1.15-2.86-1.99s-1.43-1.82-1.87-2.92c-.44-1.1-.66-2.27-.66-3.51,0-1.67.39-3.18,1.16-4.56s1.84-2.47,3.21-3.31c1.37-.83,2.94-1.25,4.71-1.25s3.35.42,4.67,1.27c1.33.84,2.36,1.95,3.09,3.31.74,1.36,1.1,2.83,1.1,4.41,0,.22,0,.45-.02.66-.01.21-.03.38-.05.49h-14.72c.09,1.14.41,2.16.97,3.04.55.88,1.27,1.58,2.16,2.08.88.5,1.84.76,2.86.76,1.09,0,2.11-.27,3.08-.81.96-.54,1.63-1.26,1.99-2.14l2.58.71c-.38.86-.96,1.63-1.72,2.31s-1.65,1.21-2.69,1.6c-1.03.39-2.15.58-3.35.58ZM626.95,509.59h12.1c-.09-1.14-.42-2.15-.99-3.03-.57-.87-1.29-1.56-2.18-2.05-.88-.49-1.86-.74-2.92-.74s-2.01.25-2.89.74c-.88.49-1.6,1.18-2.16,2.05-.56.88-.88,1.88-.97,3.03Z"/>
        <path class="cls-1" d="M651.26,519.79c-1.47,0-2.86-.24-4.15-.73s-2.4-1.22-3.33-2.19l1.16-2.11c1.02.95,2.04,1.63,3.06,2.04,1.02.41,2.06.61,3.13.61,1.22,0,2.22-.23,2.99-.69.77-.46,1.16-1.13,1.16-2.03,0-.65-.2-1.14-.59-1.45s-.96-.58-1.68-.79c-.73-.21-1.59-.46-2.58-.72-1.22-.36-2.26-.74-3.09-1.15-.84-.4-1.47-.91-1.9-1.52-.43-.61-.65-1.37-.65-2.29,0-1.12.29-2.08.88-2.85.59-.78,1.4-1.37,2.43-1.77,1.03-.4,2.2-.61,3.52-.61s2.5.21,3.57.61c1.07.41,1.98,1.01,2.75,1.8l-1.36,2.07c-.7-.72-1.47-1.26-2.31-1.62-.84-.35-1.78-.53-2.82-.53-.61,0-1.21.07-1.8.22-.59.15-1.08.4-1.46.78-.39.37-.58.89-.58,1.57,0,.56.15,1.01.46,1.33s.76.6,1.36.83c.6.22,1.33.47,2.19.74,1.34.38,2.5.76,3.49,1.15.99.38,1.75.88,2.29,1.48s.82,1.45.82,2.53c0,1.66-.63,2.96-1.9,3.89-1.27.93-2.95,1.4-5.03,1.4Z"/>
      </g>
    </g>
  </g>
</svg>