<?xml version="1.0" encoding="UTF-8"?>
<svg id="Layer_1" data-name="Layer 1" xmlns="http://www.w3.org/2000/svg" viewBox="0 0 320.8 299.19">
  <defs>
    <style>
      .cls-1 {
        fill: #000;
        stroke-width: 0px;
      }
    </style>
  </defs>
  <path class="cls-1" d="M12.14,106.36c.75.93-.09,2.51,2.21,3.47.97.41,1.55,1.03,2.61,2.28l11.29,13.23c1.61,1.92,2.14,4.22,1.63,5.35-.76,1.7-.86,2.5-.25,2.92.51.36,1.16.09,1.57-.38.21-.24.6-.8,1.18-1.81l5.19-9.06c.71-1.23-.87-2.71-1.64-1.37-.52.91-1.79,1.25-2.77.12l-7.89-9.22c-.08-.11-.1-.2-.06-.39l5.1-8.9c.15-.13.23-.15.37-.15l11.95,2.14c1.48.28,1.82,1.54,1.3,2.45-.77,1.34,1.3,1.96,2.01.72l5.19-9.06c.58-1.02.87-1.64.97-1.94.2-.6.1-1.3-.47-1.55-.67-.31-1.31.17-2.39,1.69-.72,1.01-2.98,1.71-5.44,1.3l-35.18-5.84c-2.31-.32-4.08-.2-4.76.98s.12,2.77,1.57,4.6l6.72,8.41h-.01ZM13.18,98.7c.09-.16.27-.34.41-.34l12.11,2.73c.19.04.29.24.2.4l-3.87,6.76c-.09.16-.31.18-.44.03l-8.48-9.06c-.08-.11,0-.36.08-.52h-.01Z"/>
  <path class="cls-1" d="M104.04,70.98c.67-.44,3.28-2.21,2.47-3.45-.37-.57-1.04-.35-1.68-.09-2.15.89-3.56.77-4.98-.29-2.43-1.81-4.33-3.81-7.42-2.1-2.9,1.67-4.13,1.36-4.39.73,5.71-7.19,5.54-16.74-.17-25.49-3.95-6.06-11.43-9.96-14.53-8.6-.79.37-1.32.12-1.59-.29-1.42-2.17-9.06-.66-13.98,2.55-8.18,5.33-13.9,18.5-6.07,30.51,6.51,9.99,18.07,12.78,27.09,8.52,2.27-1.04,3.65-1.2,5.64-.51,3.02,1.13,5.31.45,8.29-1.2,1.71-.89,2.41-1.28,5.07.76,1.68,1.34,4.39.17,6.25-1.05h0ZM79.95,67.29c-7.87,5.13-16.58,1.15-21.88-6.98-5.33-8.18-5.37-17.52,2.24-22.48,7.3-4.76,15.8-1.67,21.57,7.18,5.06,7.76,6.1,17.05-1.93,22.28h0Z"/>
  <path class="cls-1" d="M213.01,52.62c-1.15-.46-2.37-2.48-2.56-4.98l-2.73-35.56c-.24-2.32-.78-4.02-2.08-4.39-1.31-.37-2.67.78-4.09,2.62l-21.15,28.72c-1.48,2.02-3.58,3.09-4.81,2.87-1.83-.33-2.63-.24-2.89.46-.23.58.19,1.15.75,1.43.28.14.92.39,2.04.71l10.04,2.88c1.37.39,2.42-1.49.93-1.92-1.01-.29-1.65-1.44-.78-2.67l7.07-9.87c.09-.1.17-.14.37-.15l9.86,2.82c.16.11.2.19.23.32l.77,12.11c.08,1.5-1.06,2.14-2.07,1.85-1.48-.43-1.59,1.73-.22,2.12l10.04,2.88c1.13.32,1.8.45,2.11.48.63.05,1.28-.21,1.39-.82.14-.73-.48-1.23-2.21-1.92h-.01ZM202.99,31.05l-7.48-2.14c-.18-.05-.25-.26-.14-.42l6.77-10.4c.09-.1.35-.09.53-.04.18.05.4.18.42.31l.24,12.41c0,.2-.16.34-.34.29h0Z"/>
  <path class="cls-1" d="M248.33,76.94c1.96,1.79,5.19,5.31,7.2,7.14,1.14,1.04,2.92-.18,5.17-2.65,1.58-1.74,2.15-2.73,1.64-3.18-.23-.21-.67-.27-1.65.17-1.89.79-3.55.69-4.97-.6l-8.13-7.4c-.37-.33-.39-.94-.02-1.36l10.11-11.1c.25-.27.69-.29,1.01,0l5.94,5.41c2.79,2.54,2.11,3.93,1.54,4.83-.2.32-.49.81-.08,1.19,1.46,1.33,5.71-3.16,6.3-3.8,1.29-1.42,1.29-2.33.83-2.75-.23-.21-.63-.32-1.02-.26-1.31.06-2.91-1.39-10.36-8.17-.27-.25-.29-.69-.04-.96l7.4-8.13c.17-.18.43-.2.57-.07l6.9,6.28c3.93,3.58.66,4.78,1.94,5.94.69.62,1.5.19,2.7-1.13,1.46-1.6,2.36-1.95,3.02-2.68.54-.59.56-1.16-.12-1.7-5.62-4.2-12.1-10.76-17.26-15.46-.87-.79-2.09-1.74-2.81-1.05-.54.51-.19,1.5.05,2.05.87,1.8.16,3.4-2.38,6.19l-10.36,11.38c-.79.87-1.95,1.32-2.78,2.23-.25.27-.54.68-.77,1.22-.54,1.51-2.04,3.16-4.06,4.83-2.23,1.81-3.61,2.4-4.74,2.37-.53-.06-.91.09-1.21.41-.42.46-.38,1.16.03,1.62,3.36,3.56,6.48,5.64,10.41,9.22v-.03Z"/>
  <path class="cls-1" d="M50.7,207.42c.7-.31.89-.47,1.13-.66.63-.5.74-1.06.15-1.7-1.92-2.03-4.36-4.91-5.93-6.89-2.68-3.39-5.42-7.45-8.57-11.03-.38-.48-1.39-1.66-2.2-1.09-.62.41-.48,1.48-.21,2.53.2.55.6,2.05-4.15,5.81l-22,17.41c-.34.27-1.47.93-2.04.91-.35-.04-.88-.41-.91-.46-.65-.43-1.77-1.44-2.49-.86-.83.74.22,2.27,1.1,3.38l6.75,8.53c.54.68,1.24.67,1.63.37.39-.31.48-1.09-.21-1.96-.81-1.02-1.1-2.68,1.03-4.68.5-.56.74-.66.97-.77.6-.24,1.03-.5,1.22-.65.39-.31.83-1.05.9-1.35.14-.42.52-.73.96-1.08l7.22-5.71c.29-.23.72-.18.95.11l3.87,4.89c3.6,4.55-.12,5.53.84,6.74,1.23,1.55,6.49-2.46,7.22-3.03,1.5-1.19,1.65-2.09,1.27-2.58-.19-.24-.57-.42-.96-.42-1.49.31-4.37-3.63-8.36-8.67-.23-.29-.18-.72.11-.95l8.19-6.48c.39-.31.99-.24,1.34.2l1.07,1.36c8.17,10.32,3.06,9.64,4.36,11.28,1,1.26,2.54-.28,3.85-1.31.68-.54,1.15-.83,1.9-1.19Z"/>
  <path class="cls-1" d="M80.94,229c-1.32-1.02-3.26-2.56-4.22-3.53-1.3-1.33-3.02-2.36-3.69-1.56-.28.33-.18.89.16,1.35,1.39,1.81,2.15,3.01.57,4.91l-8.05,9.62c-3.77,4.5-6.04,7.51-7.28,7.84-.51.13-1.03.75-1.06,1.37,0,.4-.21,1.03-1.17,2.17-.83,1-2.35,3.11-3.18,3.71-1.89,1.4-4.48-1.57-5.5-.17-.35.51-.25,1.16.46,2.15.8,1.07,2.09,2.31,3.66,3.62,2.42,2.02,14.56,11.77,15.89,13.36.84,1.02.81,1.24,1.02,1.58.3.41.7.51,1.16.25,1.2-.77,5.24-5.69,6.52-7.6.08-.09.74-1.07.11-1.68-.43-.44-1.13-.38-1.7.11-2.93,2.54-3.75,2.75-6.43,1.63-.59-.25-4.44-3.07-8.22-6.55-1.24-1.12-1.54-2.98-.47-4.26l20.17-24.13c.97-.96,2.27-.6,3.35.23.85.63,1.47.75,1.72.07.41-1.27-1.24-2.57-3.82-4.48h0Z"/>
  <path class="cls-1" d="M135.89,296.47c-1.16-.45-2.4-2.45-2.62-4.95l-1.34-17.34c-.13-1.64-.15-2.48.24-3.46.95-2.3-.76-2.84-.88-4.02l-1.17-10.7c-.26-2.31-.83-4.01-2.14-4.36-1.31-.36-2.66.81-4.06,2.67l-20.81,28.96c-1.45,2.04-3.55,3.13-4.77,2.92-1.84-.31-2.63-.21-2.89.49-.22.58.2,1.14.76,1.43.28.14.92.38,2.05.69l10.07,2.76c1.37.38,2.4-1.52.91-1.93-1.01-.28-1.66-1.42-.81-2.66l6.95-9.95c.09-.1.17-.15.36-.16l9.89,2.71c.16.11.21.18.23.32l.91,12.1c.1,1.5-1.04,2.15-2.05,1.87-1.49-.41-1.57,1.75-.2,2.12l10.07,2.76c1.13.31,1.8.43,2.12.45.63.04,1.28-.23,1.38-.84.14-.73-.5-1.23-2.24-1.89h.04ZM125.62,275.02l-7.51-2.06c-.18-.05-.25-.26-.14-.42l6.65-10.48c.09-.1.35-.1.53-.05.18.05.4.17.43.31l.38,12.41c0,.2-.16.34-.34.29Z"/>
  <path class="cls-1" d="M207.5,250.57c-2.82.33-6.63,1.28-8.48,1.44l-4.43.4c-.92.11-1.82.4-1.73,1.14.11.92,1.39,1.27,1.78,1.35,1.85.4,2.38.65,2.44,1.2.07.61-.37,1.1-.54,1.74l-6.89,27.01c-.04.19-.16.27-.28.28s-.25-.03-.34-.21l-12.99-24.66c-.32-.58-.86-.96-.93-1.57-.07-.55.39-.92,2.1-1.74.35-.17,1.52-.8,1.41-1.72-.09-.74-1.03-.81-1.95-.7l-4.4.64c-1.83.28-5.76.24-8.58.58-.74.09-1.94.42-1.83,1.4.09.8,1.18,1.04,1.69,1.11.31.03.56,0,.93.01,1.56.06,3.14.75,3.99,2.14l4.43,7.5c.39.64.47,1.31.5,2.12l.05.93c.06,1.55,1.2,2.22,1.27,2.34,1.11-.13,8.6,14.91,9.7,17.33,1.49,3.12,3.24,5.84,6.25,5.48,3.01-.35,4.08-3.41,4.8-6.79l8.47-33.11c.5-1.55,1.87-2.59,3.38-3.01.36-.1.61-.13.91-.23.48-.18,1.48-.67,1.38-1.47-.12-.98-1.37-1.02-2.1-.93h0Z"/>
  <path class="cls-1" d="M151.51.12c-2.77.65-6.45,2.02-8.26,2.38l-4.36.89c-.9.21-1.76.6-1.59,1.33.21.9,1.53,1.1,1.92,1.14,1.89.19,2.44.38,2.56.92.14.6-.24,1.14-.34,1.79l-3.82,27.61c-.02.19-.12.28-.24.31s-.25,0-.36-.17l-15.67-23.05c-.38-.55-.96-.85-1.1-1.46-.13-.54.28-.95,1.89-1.96.33-.2,1.42-.97,1.21-1.87-.17-.72-1.11-.69-2.02-.48l-4.3,1.13c-1.79.48-5.69.89-8.46,1.53-.72.17-1.88.63-1.66,1.59.18.78,1.29.9,1.8.91.31-.01.56-.07.93-.09,1.56-.11,3.2.39,4.2,1.68l5.25,6.96c.46.59.61,1.25.73,2.05l.15.92c.23,1.53,1.44,2.08,1.53,2.18,1.08-.25,10.22,13.85,11.58,16.14,1.83,2.94,3.87,5.44,6.82,4.75,2.95-.69,3.67-3.84,4.01-7.28l4.71-33.85c.32-1.6,1.57-2.78,3.02-3.37.35-.14.59-.2.87-.33.45-.23,1.39-.83,1.21-1.62-.23-.96-1.47-.86-2.19-.69h-.02Z"/>
  <path class="cls-1" d="M263.26,268.15c-2.77,1.52-5.78-2.86-8.73-7.36l-13.43-20.53c-.81-1.69-.06-2.47,1.11-3.61.57-.59.78-1.4.51-1.81-.54-.83-2.2.48-3.59,1.39l-4.5,2.94c-1.86,1.22-5.89,2.74-5.01,4.09.44.67,1.64.48,3.5-.07.91-.3,1.89-.28,2.53.71l1.69,2.59c1.25,1.91,1.84,2.93,1.94,3.75.09,1.49,1.72,1.83,2.36,2.81l11.57,17.69c.9,1.48.58,2.58-.53,3.82-.47.53-.97,1.23-.53,1.9.3.47.89.45,1.21.39,1.6-.38,8.74-5.49,11.01-6.98.72-.47.88-1.24.61-1.66-.3-.47-1.08-.4-1.73-.05h.01Z"/>
  <path class="cls-1" d="M308.29,193.02c-.71-.21-1.27.38-2.1,2.04-.55,1.11-2.67,2.16-5.17,2.13l-35.66-.27c-2.33.04-4.07.44-4.55,1.71-.48,1.27.55,2.72,2.27,4.3l26.83,23.49c1.89,1.64,2.77,3.83,2.45,5.03-.49,1.8-.46,2.6.21,2.92.56.28,1.16-.09,1.49-.62.17-.27.47-.88.88-1.98l3.71-9.76c.51-1.33-1.28-2.54-1.83-1.09-.37.98-1.57,1.52-2.72.55l-9.24-7.88c-.09-.1-.13-.18-.12-.38l3.65-9.59c.12-.15.2-.19.34-.2l12.13.25c1.5.04,2.04,1.24,1.67,2.22-.55,1.44,1.59,1.73,2.1.4l3.71-9.76c.42-1.1.6-1.75.65-2.07.1-.62-.1-1.3-.7-1.46v.02ZM283.85,203.22l-2.77,7.28c-.07.17-.28.22-.43.1l-9.79-7.62c-.09-.1-.06-.35,0-.53.07-.17.21-.38.35-.4l12.38.81c.2,0,.32.19.26.36h0Z"/>
  <path class="cls-1" d="M314.64,136.11c-2.34-.25-3.47-.12-3.54.56-.03.31.18.7,1.11,1.24,1.75,1.05,2.66,2.45,2.46,4.36l-1.15,10.94c-.05.49-.53.88-1.08.82l-14.93-1.57c-.37-.04-.64-.38-.6-.81l.84-7.99c.39-3.75,1.91-4.02,2.98-4.1.38-.02.94-.09,1-.64.21-1.97-5.93-2.73-6.79-2.83-1.91-.2-2.65.34-2.71.96-.03.31.11.7.39.97.83,1.02.6,3.17-.45,13.19-.04.37-.38.64-.75.6l-10.94-1.15c-.25-.03-.41-.23-.39-.41l.98-9.28c.56-5.28,3.46-3.36,3.64-5.08.1-.92-.73-1.32-2.51-1.51-2.15-.23-2.97-.75-3.95-.85-.8-.08-1.27.24-1.3,1.11-.05,7.02-1.51,16.12-2.24,23.06-.12,1.17-.16,2.72.82,2.88.73.14,1.32-.73,1.62-1.26.93-1.77,2.65-2.14,6.4-1.75l15.3,1.61c1.17.12,2.22.79,3.44.92.37.04.87.03,1.44-.1,1.54-.46,3.75-.23,6.29.41,2.78.73,4.07,1.48,4.72,2.42.26.46.61.69,1.04.73.61.06,1.16-.38,1.28-.98.88-4.82.71-8.56,1.27-13.85.28-2.64,1.21-7.33,1.49-10.03.16-1.54-1.88-2.25-5.19-2.6h.01Z"/>
  <path class="cls-1" d="M295.89,98.55c2.37,1.95,5.65,1.88,7.32-.16,1.67-2.04,1.11-5.27-1.26-7.22s-5.65-1.88-7.32.16-1.11,5.27,1.26,7.22Z"/>
  <path class="cls-1" d="M8.32,162.01c2.35-1.97,2.88-5.21,1.19-7.23s-4.97-2.06-7.33-.09c-2.35,1.97-2.88,5.21-1.19,7.23,1.69,2.02,4.97,2.06,7.33.09Z"/>
</svg>