<?xml version="1.0" encoding="UTF-8"?>
<svg id="Layer_1" data-name="Layer 1" xmlns="http://www.w3.org/2000/svg" viewBox="0 0 798.3 189.46">
  <defs>
    <style>
      .cls-1 {
        fill: #000;
        stroke-width: 0px;
      }
    </style>
  </defs>
  <path class="cls-1" d="M252.42,12.63c0-1.48.26-2.94.77-4.36.51-1.43,1.27-2.73,2.26-3.9.99-1.17,2.21-2.11,3.65-2.81s3.07-1.04,4.9-1.04c2.17,0,4.03.5,5.58,1.49s2.7,2.26,3.46,3.82l-2.43,1.57c-.48-1.03-1.09-1.84-1.83-2.45-.74-.6-1.54-1.03-2.4-1.28s-1.69-.38-2.52-.38c-1.35,0-2.54.27-3.58.82-1.04.55-1.91,1.28-2.62,2.19s-1.24,1.93-1.59,3.06-.53,2.26-.53,3.41c0,1.25.21,2.46.63,3.63.42,1.16,1.01,2.19,1.76,3.08s1.64,1.6,2.67,2.12c1.03.53,2.14.79,3.35.79.84,0,1.71-.15,2.6-.44.89-.3,1.72-.76,2.5-1.39s1.39-1.44,1.85-2.45l2.57,1.4c-.5,1.21-1.28,2.24-2.33,3.08s-2.22,1.48-3.51,1.92c-1.29.43-2.56.65-3.82.65-1.67,0-3.19-.36-4.59-1.08-1.39-.72-2.6-1.68-3.61-2.88-1.02-1.2-1.8-2.54-2.36-4.04-.56-1.49-.84-3.01-.84-4.54h0Z"/>
  <path class="cls-1" d="M275.45,19.85c0-1.13.33-2.11.98-2.94.65-.83,1.55-1.47,2.69-1.92s2.46-.68,3.97-.68c.8,0,1.64.06,2.53.19.89.13,1.68.31,2.36.56v-1.29c0-1.35-.41-2.41-1.23-3.19s-1.99-1.17-3.49-1.17c-.98,0-1.92.18-2.82.53s-1.85.86-2.86,1.52l-1.1-2.12c1.16-.8,2.33-1.4,3.49-1.8s2.37-.6,3.63-.6c2.28,0,4.08.63,5.41,1.88,1.32,1.26,1.98,3,1.98,5.24v7.5c0,.36.07.63.22.8.15.17.39.27.74.29v2.33c-.3.05-.55.08-.77.1-.22.02-.39.03-.53.03-.71,0-1.24-.19-1.59-.58-.35-.39-.55-.8-.6-1.23l-.07-1.13c-.78,1-1.79,1.78-3.05,2.33-1.26.55-2.5.82-3.73.82s-2.25-.24-3.18-.73c-.94-.49-1.67-1.15-2.19-1.97-.52-.83-.79-1.75-.79-2.77h0ZM287.09,21.11c.27-.32.49-.64.65-.97s.24-.6.24-.83v-2.2c-.71-.27-1.45-.48-2.23-.63s-1.54-.22-2.29-.22c-1.53,0-2.77.3-3.71.9-.95.6-1.42,1.42-1.42,2.46,0,.56.15,1.11.46,1.64.31.53.76.97,1.37,1.3.6.34,1.35.51,2.24.51.94,0,1.83-.19,2.67-.56s1.52-.84,2.02-1.41h0Z"/>
  <path class="cls-1" d="M311.32,24.99h-3.01v-9.91c0-1.88-.29-3.25-.87-4.12s-1.47-1.31-2.65-1.31c-.82,0-1.64.2-2.45.61-.81.41-1.53.95-2.16,1.64s-1.08,1.48-1.35,2.38v10.7h-3.01V7.22h2.74v3.84c.48-.84,1.1-1.56,1.85-2.17.75-.61,1.61-1.09,2.57-1.43s1.96-.51,3.01-.51,1.89.19,2.58.56c.7.37,1.24.89,1.64,1.56.4.67.68,1.46.86,2.36.17.91.26,1.89.26,2.96v10.6h0Z"/>
  <path class="cls-1" d="M314.85,16.16c0-1.68.35-3.21,1.04-4.6.7-1.39,1.65-2.51,2.88-3.35s2.62-1.26,4.19-1.26c1.44,0,2.73.38,3.87,1.13,1.14.75,2.03,1.67,2.67,2.74V0h3.01v21.56c0,.37.07.63.22.8.15.17.39.27.74.29v2.33c-.57.09-1.02.14-1.33.14-.59,0-1.11-.21-1.56-.62s-.67-.87-.67-1.37v-1.51c-.71,1.14-1.65,2.04-2.84,2.7s-2.42.99-3.7.99-2.37-.24-3.41-.73c-1.04-.49-1.94-1.16-2.7-2.02-.77-.86-1.36-1.84-1.78-2.94s-.63-2.26-.63-3.48v.02ZM329.5,18.76v-5.08c-.27-.77-.72-1.46-1.33-2.08-.62-.62-1.31-1.12-2.07-1.49-.77-.37-1.52-.56-2.28-.56-.89,0-1.69.19-2.41.56s-1.33.87-1.85,1.49c-.51.62-.91,1.33-1.18,2.12s-.41,1.62-.41,2.47.15,1.72.46,2.51.74,1.49,1.3,2.1c.56.61,1.21,1.08,1.95,1.42.74.34,1.55.51,2.41.51.55,0,1.11-.1,1.69-.3.58-.2,1.13-.49,1.66-.85.52-.36.97-.79,1.33-1.27.36-.49.6-1,.72-1.54h.01Z"/>
  <path class="cls-1" d="M337.54,3.77V0h3.01v3.77h-3.01ZM337.54,24.99V7.12h3.01v17.87h-3.01Z"/>
  <path class="cls-1" d="M344.25,16.16c0-1.68.35-3.21,1.04-4.6.7-1.39,1.65-2.51,2.88-3.35,1.22-.84,2.62-1.26,4.19-1.26,1.44,0,2.73.38,3.87,1.13,1.14.75,2.03,1.67,2.67,2.74V0h3.01v21.56c0,.37.07.63.22.8.15.17.39.27.74.29v2.33c-.57.09-1.02.14-1.33.14-.59,0-1.11-.21-1.56-.62s-.67-.87-.67-1.37v-1.51c-.71,1.14-1.65,2.04-2.84,2.7s-2.42.99-3.7.99-2.37-.24-3.41-.73c-1.04-.49-1.94-1.16-2.7-2.02-.77-.86-1.36-1.84-1.78-2.94s-.63-2.26-.63-3.48v.02ZM358.9,18.76v-5.08c-.27-.77-.72-1.46-1.33-2.08-.62-.62-1.31-1.12-2.07-1.49-.77-.37-1.52-.56-2.28-.56-.89,0-1.69.19-2.41.56s-1.33.87-1.85,1.49c-.51.62-.91,1.33-1.18,2.12s-.41,1.62-.41,2.47.15,1.72.46,2.51.74,1.49,1.3,2.1c.56.61,1.21,1.08,1.95,1.42.74.34,1.55.51,2.41.51.55,0,1.11-.1,1.69-.3.58-.2,1.13-.49,1.66-.85.52-.36.97-.79,1.33-1.27.36-.49.6-1,.72-1.54h.01Z"/>
  <path class="cls-1" d="M365.54,19.85c0-1.13.33-2.11.98-2.94.65-.83,1.55-1.47,2.69-1.92s2.46-.68,3.97-.68c.8,0,1.64.06,2.53.19.89.13,1.68.31,2.36.56v-1.29c0-1.35-.41-2.41-1.23-3.19s-1.99-1.17-3.49-1.17c-.98,0-1.92.18-2.82.53s-1.85.86-2.86,1.52l-1.1-2.12c1.16-.8,2.33-1.4,3.49-1.8s2.37-.6,3.63-.6c2.28,0,4.08.63,5.41,1.88,1.32,1.26,1.98,3,1.98,5.24v7.5c0,.36.07.63.22.8.15.17.39.27.74.29v2.33c-.3.05-.55.08-.77.1-.22.02-.39.03-.53.03-.71,0-1.24-.19-1.59-.58-.35-.39-.55-.8-.6-1.23l-.07-1.13c-.78,1-1.79,1.78-3.05,2.33-1.26.55-2.5.82-3.73.82s-2.25-.24-3.18-.73c-.94-.49-1.67-1.15-2.19-1.97-.52-.83-.79-1.75-.79-2.77h0ZM377.18,21.11c.27-.32.49-.64.65-.97s.24-.6.24-.83v-2.2c-.71-.27-1.45-.48-2.23-.63s-1.54-.22-2.29-.22c-1.53,0-2.77.3-3.71.9-.95.6-1.42,1.42-1.42,2.46,0,.56.15,1.11.46,1.64.31.53.76.97,1.37,1.3.6.34,1.35.51,2.24.51.94,0,1.83-.19,2.67-.56s1.52-.84,2.02-1.41h0Z"/>
  <path class="cls-1" d="M395.01,24.2c-.25.11-.59.26-1.03.44-.43.18-.94.34-1.51.48s-1.18.21-1.81.21c-.73,0-1.4-.13-2.02-.39s-1.11-.67-1.47-1.23c-.37-.56-.55-1.26-.55-2.11v-12.01h-2.43v-2.36h2.43V1.27h3.01v5.96h4v2.36h-4v11.09c.05.64.26,1.11.65,1.42.39.31.84.46,1.37.46.59,0,1.14-.1,1.64-.31s.83-.35.99-.45l.72,2.4h0Z"/>
  <path class="cls-1" d="M397.65,17.88V7.23h3.01v10.06c0,1.81.32,3.17.96,4.08.64.91,1.59,1.36,2.84,1.36.82,0,1.61-.17,2.38-.53.76-.35,1.46-.85,2.07-1.51.62-.66,1.09-1.44,1.44-2.34V7.22h3.01v14.35c0,.36.07.63.22.8s.39.27.74.29v2.33c-.34.05-.61.07-.8.09-.19.01-.38.02-.56.02-.57,0-1.06-.17-1.47-.53-.41-.35-.63-.79-.65-1.31l-.07-2.08c-.78,1.32-1.82,2.34-3.13,3.06-1.31.73-2.74,1.09-4.29,1.09-1.87,0-3.29-.63-4.25-1.89s-1.44-3.11-1.44-5.56h-.01Z"/>
  <path class="cls-1" d="M427.83,9.76c-1.51.02-2.83.41-3.99,1.15-1.15.74-1.97,1.76-2.45,3.06v11.02h-3.01V7.23h2.81v4.04c.62-1.23,1.43-2.23,2.45-3,1.01-.76,2.08-1.19,3.2-1.28h.58c.16,0,.3.01.41.03v2.74h0Z"/>
  <path class="cls-1" d="M429.41,19.85c0-1.13.32-2.11.97-2.94.65-.83,1.55-1.47,2.69-1.92s2.46-.68,3.97-.68c.8,0,1.64.06,2.53.19s1.68.31,2.36.56v-1.29c0-1.35-.41-2.41-1.23-3.19s-1.99-1.17-3.49-1.17c-.98,0-1.92.18-2.82.53s-1.85.86-2.86,1.52l-1.1-2.12c1.16-.8,2.33-1.4,3.49-1.8s2.37-.6,3.63-.6c2.28,0,4.08.63,5.41,1.88,1.32,1.26,1.99,3,1.99,5.24v7.5c0,.36.07.63.22.8.15.17.39.27.74.29v2.33c-.3.05-.55.08-.77.1s-.39.03-.53.03c-.71,0-1.24-.19-1.59-.58-.35-.39-.55-.8-.6-1.23l-.07-1.13c-.78,1-1.79,1.78-3.05,2.33s-2.5.82-3.73.82-2.25-.24-3.18-.73c-.94-.49-1.67-1.15-2.19-1.97-.53-.83-.79-1.75-.79-2.77h0ZM441.05,21.11c.27-.32.49-.64.65-.97.16-.33.24-.6.24-.83v-2.2c-.71-.27-1.45-.48-2.22-.63-.78-.15-1.54-.22-2.29-.22-1.53,0-2.77.3-3.71.9s-1.42,1.42-1.42,2.46c0,.56.15,1.11.46,1.64.31.53.76.97,1.37,1.3.6.34,1.35.51,2.24.51.94,0,1.83-.19,2.67-.56.84-.37,1.52-.84,2.02-1.41h-.01Z"/>
  <path class="cls-1" d="M457.27,16.16c0-1.68.35-3.21,1.04-4.6.7-1.39,1.65-2.51,2.88-3.35s2.62-1.26,4.19-1.26c1.44,0,2.73.38,3.87,1.13s2.03,1.67,2.67,2.74V0h3.01v21.56c0,.37.07.63.22.8.15.17.39.27.74.29v2.33c-.57.09-1.02.14-1.33.14-.59,0-1.11-.21-1.56-.62-.44-.41-.67-.87-.67-1.37v-1.51c-.71,1.14-1.66,2.04-2.84,2.7-1.19.66-2.42.99-3.7.99s-2.37-.24-3.41-.73c-1.04-.49-1.94-1.16-2.7-2.02s-1.36-1.84-1.78-2.94-.63-2.26-.63-3.48v.02ZM471.92,18.76v-5.08c-.27-.77-.72-1.46-1.33-2.08s-1.31-1.12-2.07-1.49-1.52-.56-2.28-.56c-.89,0-1.69.19-2.41.56s-1.33.87-1.85,1.49-.91,1.33-1.18,2.12-.41,1.62-.41,2.47.15,1.72.46,2.51.74,1.49,1.3,2.1c.56.61,1.21,1.08,1.95,1.42.74.34,1.55.51,2.41.51.55,0,1.11-.1,1.69-.3.58-.2,1.13-.49,1.66-.85.53-.36.97-.79,1.33-1.27.37-.49.6-1,.72-1.54h.01Z"/>
  <path class="cls-1" d="M487.77,25.33c-1.35,0-2.57-.24-3.66-.73-1.1-.49-2.04-1.16-2.84-2-.8-.85-1.42-1.83-1.85-2.94-.43-1.11-.65-2.28-.65-3.5s.22-2.42.65-3.53c.43-1.11,1.05-2.09,1.85-2.94s1.75-1.52,2.86-2c1.11-.49,2.32-.73,3.65-.73s2.57.24,3.66.73c1.1.49,2.05,1.16,2.86,2,.81.85,1.43,1.83,1.87,2.94s.65,2.29.65,3.53-.22,2.39-.65,3.5c-.43,1.11-1.05,2.09-1.85,2.94s-1.75,1.52-2.86,2c-1.11.49-2.33.73-3.68.73h-.01ZM481.85,16.19c0,1.22.27,2.33.8,3.32.54.99,1.25,1.78,2.14,2.35.89.58,1.88.86,2.98.86s2.09-.29,3-.88c.9-.59,1.62-1.38,2.16-2.39s.8-2.12.8-3.34-.27-2.33-.8-3.32c-.54-.99-1.25-1.78-2.16-2.37-.9-.59-1.9-.88-3-.88s-2.09.3-2.98.9c-.89.6-1.6,1.39-2.14,2.39-.54.99-.8,2.11-.8,3.35h0Z"/>
  <path class="cls-1" d="M252.42,53.7c0-1.48.26-2.94.77-4.36.51-1.43,1.27-2.73,2.26-3.9.99-1.17,2.21-2.11,3.65-2.81s3.07-1.04,4.9-1.04c2.17,0,4.03.5,5.58,1.49s2.7,2.26,3.46,3.82l-2.43,1.57c-.48-1.03-1.09-1.84-1.83-2.45-.74-.6-1.54-1.03-2.4-1.28s-1.69-.38-2.52-.38c-1.35,0-2.54.27-3.58.82-1.04.55-1.91,1.28-2.62,2.19s-1.24,1.93-1.59,3.06-.53,2.26-.53,3.41c0,1.25.21,2.46.63,3.63.42,1.16,1.01,2.19,1.76,3.08s1.64,1.6,2.67,2.12c1.03.53,2.14.79,3.35.79.84,0,1.71-.15,2.6-.44.89-.3,1.72-.76,2.5-1.39s1.39-1.44,1.85-2.45l2.57,1.4c-.5,1.21-1.28,2.24-2.33,3.08s-2.22,1.48-3.51,1.92c-1.29.43-2.56.65-3.82.65-1.67,0-3.19-.36-4.59-1.08-1.39-.72-2.6-1.68-3.61-2.88-1.02-1.2-1.8-2.54-2.36-4.04-.56-1.49-.84-3.01-.84-4.54h0Z"/>
  <path class="cls-1" d="M284.66,66.4c-1.35,0-2.57-.24-3.66-.73-1.1-.49-2.04-1.16-2.84-2-.8-.85-1.42-1.83-1.85-2.94-.43-1.11-.65-2.28-.65-3.5s.22-2.42.65-3.53,1.05-2.09,1.85-2.94c.8-.85,1.75-1.52,2.86-2,1.11-.49,2.32-.73,3.65-.73s2.57.24,3.66.73c1.1.49,2.05,1.16,2.86,2,.81.85,1.43,1.83,1.87,2.94s.65,2.29.65,3.53-.22,2.39-.65,3.5-1.05,2.09-1.85,2.94c-.8.85-1.75,1.52-2.86,2-1.11.49-2.33.73-3.68.73h0ZM278.74,57.26c0,1.22.27,2.33.8,3.32.54.99,1.25,1.78,2.14,2.35.89.58,1.88.86,2.98.86s2.09-.29,3-.88c.9-.59,1.62-1.38,2.16-2.39.54-1,.8-2.12.8-3.34s-.27-2.33-.8-3.32c-.54-.99-1.26-1.78-2.16-2.37s-1.9-.88-3-.88-2.09.3-2.98.9-1.6,1.39-2.14,2.39c-.54.99-.8,2.11-.8,3.35h0Z"/>
  <path class="cls-1" d="M312.86,66.06h-3.01v-9.91c0-1.88-.29-3.25-.87-4.12s-1.47-1.31-2.65-1.31c-.82,0-1.64.2-2.45.61-.81.41-1.53.95-2.16,1.64s-1.08,1.48-1.35,2.38v10.7h-3.01v-17.76h2.74v3.84c.48-.84,1.1-1.56,1.85-2.17.75-.61,1.61-1.09,2.57-1.43s1.96-.51,3.01-.51,1.89.19,2.58.56c.7.37,1.24.89,1.64,1.56.4.67.68,1.46.86,2.36.17.91.26,1.89.26,2.96v10.6h0Z"/>
  <path class="cls-1" d="M315.26,72.43c-.78,0-1.52-.11-2.22-.34-.71-.23-1.33-.59-1.88-1.1l1.4-2.02c.32.3.69.5,1.11.62.42.11.84.17,1.25.17.5,0,.97-.12,1.4-.37s.79-.6,1.06-1.04.41-.94.41-1.48v-18.57h3.01v18.37c0,1.11-.26,2.11-.79,2.98s-1.2,1.56-2.04,2.04c-.83.49-1.74.73-2.72.73h.01ZM317.79,44.94v-3.76h3.01v3.76h-3.01Z"/>
  <path class="cls-1" d="M325.49,58.95v-10.65h3.01v10.06c0,1.81.32,3.17.96,4.08.64.91,1.59,1.36,2.84,1.36.82,0,1.61-.17,2.38-.53.76-.35,1.46-.85,2.07-1.51.62-.66,1.1-1.44,1.44-2.34v-11.13h3.01v14.35c0,.36.07.63.22.8s.39.27.74.29v2.33c-.34.05-.61.07-.8.09-.19.01-.38.02-.56.02-.57,0-1.06-.17-1.47-.53-.41-.35-.63-.79-.65-1.31l-.07-2.08c-.78,1.32-1.82,2.34-3.13,3.06-1.31.73-2.74,1.09-4.3,1.09-1.87,0-3.29-.63-4.24-1.89-.96-1.26-1.44-3.11-1.44-5.56h-.01Z"/>
  <path class="cls-1" d="M361.74,66.06h-3.01v-9.91c0-1.88-.29-3.25-.87-4.12s-1.47-1.31-2.65-1.31c-.82,0-1.64.2-2.45.61-.81.41-1.53.95-2.16,1.64s-1.08,1.48-1.35,2.38v10.7h-3.01v-17.76h2.74v3.84c.48-.84,1.1-1.56,1.85-2.17.75-.61,1.61-1.09,2.57-1.43s1.96-.51,3.01-.51,1.89.19,2.58.56c.7.37,1.24.89,1.64,1.56.4.67.68,1.46.86,2.36.17.91.26,1.89.26,2.96v10.6h0Z"/>
  <path class="cls-1" d="M375.5,65.27c-.25.11-.59.26-1.03.44-.43.18-.94.34-1.51.48s-1.18.21-1.81.21c-.73,0-1.4-.13-2.02-.39s-1.11-.67-1.47-1.23c-.37-.56-.55-1.26-.55-2.11v-12.01h-2.43v-2.36h2.43v-5.96h3.01v5.96h4v2.36h-4v11.09c.05.64.26,1.11.65,1.42.39.31.84.46,1.37.46.59,0,1.14-.1,1.64-.31s.83-.35.99-.45l.72,2.4h0Z"/>
  <path class="cls-1" d="M385.87,66.4c-1.35,0-2.57-.24-3.66-.73-1.1-.49-2.04-1.16-2.84-2-.8-.85-1.42-1.83-1.85-2.94-.43-1.11-.65-2.28-.65-3.5s.22-2.42.65-3.53,1.05-2.09,1.85-2.94c.8-.85,1.75-1.52,2.86-2,1.11-.49,2.32-.73,3.65-.73s2.57.24,3.66.73c1.1.49,2.05,1.16,2.86,2,.81.85,1.43,1.83,1.87,2.94s.65,2.29.65,3.53-.22,2.39-.65,3.5-1.05,2.09-1.85,2.94c-.8.85-1.75,1.52-2.86,2-1.11.49-2.33.73-3.68.73h0ZM379.95,57.26c0,1.22.27,2.33.8,3.32.54.99,1.25,1.78,2.14,2.35.89.58,1.88.86,2.98.86s2.09-.29,3-.88c.9-.59,1.62-1.38,2.16-2.39.54-1,.8-2.12.8-3.34s-.27-2.33-.8-3.32c-.54-.99-1.26-1.78-2.16-2.37s-1.9-.88-3-.88-2.09.3-2.98.9-1.6,1.39-2.14,2.39c-.54.99-.8,2.11-.8,3.35h0Z"/>
  <path class="cls-1" d="M407.71,66.06v-24.3h10.13c1.07,0,2.05.22,2.94.67s1.67,1.04,2.33,1.78c.66.74,1.17,1.57,1.54,2.5.37.92.55,1.87.55,2.82,0,1.32-.3,2.58-.89,3.78-.59,1.2-1.43,2.17-2.5,2.91s-2.33,1.11-3.77,1.11h-7.26v8.73h-3.08.01ZM410.79,54.59h7.08c.84,0,1.58-.23,2.21-.68.63-.46,1.12-1.07,1.47-1.85s.53-1.62.53-2.53c0-.96-.21-1.82-.62-2.58-.41-.76-.95-1.36-1.61-1.8-.66-.43-1.39-.65-2.19-.65h-6.88v10.1h.01Z"/>
  <path class="cls-1" d="M426.95,60.93c0-1.13.32-2.11.97-2.94.65-.83,1.55-1.47,2.69-1.92s2.46-.68,3.97-.68c.8,0,1.64.06,2.53.19.89.13,1.68.31,2.36.56v-1.29c0-1.35-.41-2.41-1.23-3.19s-1.99-1.17-3.49-1.17c-.98,0-1.92.18-2.82.53s-1.85.86-2.86,1.52l-1.1-2.12c1.16-.8,2.33-1.4,3.49-1.8s2.37-.6,3.63-.6c2.28,0,4.08.63,5.41,1.88,1.32,1.26,1.99,3,1.99,5.24v7.5c0,.36.07.63.22.8.15.17.39.27.74.29v2.33c-.3.05-.55.08-.77.1s-.39.03-.53.03c-.71,0-1.24-.19-1.59-.58-.35-.39-.55-.8-.6-1.23l-.07-1.13c-.78,1-1.79,1.78-3.05,2.33s-2.5.82-3.73.82-2.25-.24-3.18-.73c-.94-.49-1.67-1.15-2.19-1.97-.53-.83-.79-1.75-.79-2.77h0ZM438.58,62.18c.27-.32.49-.64.65-.97s.24-.6.24-.83v-2.2c-.71-.27-1.45-.48-2.22-.63-.78-.15-1.54-.22-2.29-.22-1.53,0-2.77.3-3.71.9s-1.42,1.42-1.42,2.46c0,.56.15,1.11.46,1.64.31.53.76.97,1.37,1.3.6.34,1.35.51,2.24.51.94,0,1.83-.19,2.67-.56.84-.37,1.52-.84,2.02-1.41h0Z"/>
  <path class="cls-1" d="M456.42,65.27c-.25.11-.59.26-1.03.44-.43.18-.94.34-1.51.48s-1.17.21-1.81.21c-.73,0-1.4-.13-2.02-.39s-1.11-.67-1.47-1.23c-.37-.56-.55-1.26-.55-2.11v-12.01h-2.43v-2.36h2.43v-5.96h3.01v5.96h4v2.36h-4v11.09c.05.64.26,1.11.65,1.42.39.31.84.46,1.37.46.59,0,1.14-.1,1.64-.31s.83-.35.99-.45l.72,2.4h.01Z"/>
  <path class="cls-1" d="M468.67,50.83c-1.51.02-2.83.41-3.99,1.15-1.15.74-1.97,1.76-2.45,3.06v11.02h-3.01v-17.76h2.81v4.04c.62-1.23,1.43-2.23,2.45-3,1.01-.76,2.08-1.19,3.2-1.28h.58c.16,0,.3.01.41.03v2.74h0Z"/>
  <path class="cls-1" d="M471.65,44.84v-3.77h3.01v3.77h-3.01ZM471.65,66.06v-17.87h3.01v17.87h-3.01Z"/>
  <path class="cls-1" d="M506.46,66.06h-3.01v-9.91c0-1.85-.3-3.22-.91-4.11-.61-.88-1.5-1.32-2.69-1.32s-2.3.43-3.29,1.31c-.98.87-1.68,2-2.09,3.38v10.65h-3.01v-9.91c0-1.88-.3-3.25-.89-4.12s-1.48-1.31-2.67-1.31-2.28.42-3.27,1.27c-.99.84-1.69,1.97-2.11,3.36v10.7h-3.01v-17.76h2.74v3.84c.73-1.31,1.68-2.33,2.84-3.04,1.16-.71,2.48-1.07,3.94-1.07s2.67.4,3.56,1.21c.89.8,1.44,1.84,1.64,3.11.8-1.4,1.77-2.47,2.91-3.21,1.14-.74,2.44-1.1,3.9-1.1,1.03,0,1.89.19,2.58.56.7.37,1.25.89,1.66,1.56.41.67.71,1.46.89,2.36.18.91.27,1.89.27,2.96v10.6h.02Z"/>
  <path class="cls-1" d="M518.95,66.4c-1.35,0-2.57-.24-3.66-.73-1.1-.49-2.04-1.16-2.84-2-.8-.85-1.42-1.83-1.85-2.94-.43-1.11-.65-2.28-.65-3.5s.22-2.42.65-3.53c.43-1.11,1.05-2.09,1.85-2.94s1.75-1.52,2.86-2c1.11-.49,2.32-.73,3.65-.73s2.57.24,3.66.73c1.1.49,2.05,1.16,2.86,2,.81.85,1.43,1.83,1.87,2.94s.65,2.29.65,3.53-.22,2.39-.65,3.5c-.43,1.11-1.05,2.09-1.85,2.94s-1.75,1.52-2.86,2c-1.11.49-2.33.73-3.68.73h-.01ZM513.03,57.26c0,1.22.27,2.33.8,3.32.54.99,1.25,1.78,2.14,2.35.89.58,1.88.86,2.98.86s2.09-.29,3-.88c.9-.59,1.62-1.38,2.16-2.39s.8-2.12.8-3.34-.27-2.33-.8-3.32c-.54-.99-1.25-1.78-2.16-2.37-.9-.59-1.9-.88-3-.88s-2.09.3-2.98.9c-.89.6-1.6,1.39-2.14,2.39-.54.99-.8,2.11-.8,3.35h0Z"/>
  <path class="cls-1" d="M547.15,66.06h-3.01v-9.91c0-1.88-.29-3.25-.87-4.12s-1.47-1.31-2.65-1.31c-.82,0-1.64.2-2.45.61-.81.41-1.53.95-2.16,1.64s-1.08,1.48-1.35,2.38v10.7h-3.01v-17.76h2.74v3.84c.48-.84,1.09-1.56,1.85-2.17s1.61-1.09,2.57-1.43,1.96-.51,3.01-.51,1.89.19,2.58.56c.7.37,1.24.89,1.64,1.56s.68,1.46.86,2.36c.17.91.26,1.89.26,2.96v10.6h-.01Z"/>
  <path class="cls-1" d="M551.84,44.84v-3.77h3.01v3.77h-3.01ZM551.84,66.06v-17.87h3.01v17.87h-3.01Z"/>
  <path class="cls-1" d="M558.31,60.93c0-1.13.32-2.11.97-2.94.65-.83,1.55-1.47,2.69-1.92s2.46-.68,3.97-.68c.8,0,1.64.06,2.53.19s1.68.31,2.36.56v-1.29c0-1.35-.41-2.41-1.23-3.19s-1.99-1.17-3.49-1.17c-.98,0-1.92.18-2.82.53s-1.85.86-2.86,1.52l-1.1-2.12c1.16-.8,2.33-1.4,3.49-1.8s2.37-.6,3.63-.6c2.28,0,4.08.63,5.41,1.88,1.32,1.26,1.99,3,1.99,5.24v7.5c0,.36.07.63.22.8.15.17.39.27.74.29v2.33c-.3.05-.55.08-.77.1s-.39.03-.53.03c-.71,0-1.24-.19-1.59-.58-.35-.39-.55-.8-.6-1.23l-.07-1.13c-.78,1-1.79,1.78-3.05,2.33s-2.5.82-3.73.82-2.25-.24-3.18-.73c-.94-.49-1.67-1.15-2.19-1.97-.53-.83-.79-1.75-.79-2.77h0ZM569.95,62.18c.27-.32.49-.64.65-.97.16-.33.24-.6.24-.83v-2.2c-.71-.27-1.45-.48-2.22-.63-.78-.15-1.54-.22-2.29-.22-1.53,0-2.77.3-3.71.9s-1.42,1.42-1.42,2.46c0,.56.15,1.11.46,1.64.31.53.76.97,1.37,1.3.6.34,1.35.51,2.24.51.94,0,1.83-.19,2.67-.56.84-.37,1.52-.84,2.02-1.41h-.01Z"/>
  <path class="cls-1" d="M578.75,41.07h3.01v20.46c0,.99.14,1.59.41,1.82.27.23.6.34.99.34.48,0,.94-.05,1.37-.15s.8-.21,1.1-.33l.48,2.46c-.5.21-1.09.38-1.78.51s-1.29.21-1.81.21c-1.16,0-2.08-.33-2.75-1-.67-.66-1.01-1.59-1.01-2.78v-21.55h0Z"/>
  <path class="cls-1" d="M596.58,66.06v-24.3h10.41c1.07,0,2.05.22,2.94.67s1.67,1.04,2.33,1.78,1.17,1.57,1.54,2.5c.37.92.55,1.87.55,2.82,0,1.12-.21,2.18-.63,3.18s-1.02,1.86-1.78,2.57c-.76.71-1.66,1.2-2.69,1.47l5.89,9.31h-3.49l-5.54-8.73h-6.43v8.73h-3.1ZM599.66,54.59h7.36c.84,0,1.58-.23,2.21-.7s1.12-1.09,1.47-1.87.53-1.61.53-2.5-.21-1.75-.62-2.52c-.41-.76-.95-1.38-1.61-1.83-.66-.46-1.39-.68-2.19-.68h-7.15v10.1h0Z"/>
  <path class="cls-1" d="M625.81,66.4c-1.35,0-2.57-.24-3.66-.73-1.1-.49-2.04-1.16-2.84-2-.8-.85-1.42-1.83-1.85-2.94-.43-1.11-.65-2.28-.65-3.5s.22-2.42.65-3.53c.43-1.11,1.05-2.09,1.85-2.94s1.75-1.52,2.86-2c1.11-.49,2.32-.73,3.65-.73s2.57.24,3.66.73c1.1.49,2.05,1.16,2.86,2,.81.85,1.43,1.83,1.87,2.94s.65,2.29.65,3.53-.22,2.39-.65,3.5c-.43,1.11-1.05,2.09-1.85,2.94s-1.75,1.52-2.86,2c-1.11.49-2.33.73-3.68.73h-.01ZM619.89,57.26c0,1.22.27,2.33.8,3.32.54.99,1.25,1.78,2.14,2.35.89.58,1.88.86,2.98.86s2.09-.29,3-.88c.9-.59,1.62-1.38,2.16-2.39s.8-2.12.8-3.34-.27-2.33-.8-3.32c-.54-.99-1.25-1.78-2.16-2.37-.9-.59-1.9-.88-3-.88s-2.09.3-2.98.9c-.89.6-1.6,1.39-2.14,2.39-.54.99-.8,2.11-.8,3.35h0Z"/>
  <path class="cls-1" d="M665.45,66.06h-3.01v-9.91c0-1.85-.3-3.22-.91-4.11-.61-.88-1.5-1.32-2.69-1.32s-2.3.43-3.29,1.31c-.98.87-1.68,2-2.09,3.38v10.65h-3.01v-9.91c0-1.88-.3-3.25-.89-4.12s-1.48-1.31-2.67-1.31-2.28.42-3.27,1.27c-.99.84-1.69,1.97-2.11,3.36v10.7h-3.01v-17.76h2.74v3.84c.73-1.31,1.68-2.33,2.84-3.04,1.16-.71,2.48-1.07,3.94-1.07s2.67.4,3.56,1.21c.89.8,1.44,1.84,1.64,3.11.8-1.4,1.77-2.47,2.91-3.21,1.14-.74,2.44-1.1,3.9-1.1,1.03,0,1.89.19,2.58.56.7.37,1.25.89,1.66,1.56.41.67.71,1.46.89,2.36.18.91.27,1.89.27,2.96v10.6h.02Z"/>
  <path class="cls-1" d="M668.73,60.93c0-1.13.32-2.11.97-2.94.65-.83,1.55-1.47,2.69-1.92s2.46-.68,3.97-.68c.8,0,1.64.06,2.53.19s1.68.31,2.36.56v-1.29c0-1.35-.41-2.41-1.23-3.19s-1.99-1.17-3.49-1.17c-.98,0-1.92.18-2.82.53s-1.85.86-2.86,1.52l-1.1-2.12c1.16-.8,2.33-1.4,3.49-1.8s2.37-.6,3.63-.6c2.28,0,4.08.63,5.41,1.88,1.32,1.26,1.99,3,1.99,5.24v7.5c0,.36.07.63.22.8.15.17.39.27.74.29v2.33c-.3.05-.55.08-.77.1s-.39.03-.53.03c-.71,0-1.24-.19-1.59-.58-.35-.39-.55-.8-.6-1.23l-.07-1.13c-.78,1-1.79,1.78-3.05,2.33s-2.5.82-3.73.82-2.25-.24-3.18-.73c-.94-.49-1.67-1.15-2.19-1.97-.53-.83-.79-1.75-.79-2.77h0ZM680.37,62.18c.27-.32.49-.64.65-.97.16-.33.24-.6.24-.83v-2.2c-.71-.27-1.45-.48-2.22-.63-.78-.15-1.54-.22-2.29-.22-1.53,0-2.77.3-3.71.9s-1.42,1.42-1.42,2.46c0,.56.15,1.11.46,1.64.31.53.76.97,1.37,1.3.6.34,1.35.51,2.24.51.94,0,1.83-.19,2.67-.56.84-.37,1.52-.84,2.02-1.41h-.01Z"/>
  <path class="cls-1" d="M704.6,66.06h-3.01v-9.91c0-1.88-.29-3.25-.87-4.12s-1.47-1.31-2.65-1.31c-.82,0-1.64.2-2.45.61-.81.41-1.53.95-2.16,1.64s-1.08,1.48-1.35,2.38v10.7h-3.01v-17.76h2.74v3.84c.48-.84,1.09-1.56,1.85-2.17s1.61-1.09,2.57-1.43,1.96-.51,3.01-.51,1.89.19,2.58.56c.7.37,1.24.89,1.64,1.56s.68,1.46.86,2.36c.17.91.26,1.89.26,2.96v10.6h-.01Z"/>
  <path class="cls-1" d="M717.1,66.4c-1.35,0-2.57-.24-3.66-.73-1.1-.49-2.04-1.16-2.84-2-.8-.85-1.42-1.83-1.85-2.94-.43-1.11-.65-2.28-.65-3.5s.22-2.42.65-3.53c.43-1.11,1.05-2.09,1.85-2.94s1.75-1.52,2.86-2c1.11-.49,2.32-.73,3.65-.73s2.57.24,3.66.73c1.1.49,2.05,1.16,2.86,2,.81.85,1.43,1.83,1.87,2.94s.65,2.29.65,3.53-.22,2.39-.65,3.5c-.43,1.11-1.05,2.09-1.85,2.94s-1.75,1.52-2.86,2c-1.11.49-2.33.73-3.68.73h-.01ZM711.17,57.26c0,1.22.27,2.33.8,3.32.54.99,1.25,1.78,2.14,2.35.89.58,1.88.86,2.98.86s2.09-.29,3-.88c.9-.59,1.62-1.38,2.16-2.39s.8-2.12.8-3.34-.27-2.33-.8-3.32c-.54-.99-1.25-1.78-2.16-2.37-.9-.59-1.9-.88-3-.88s-2.09.3-2.98.9c-.89.6-1.6,1.39-2.14,2.39-.54.99-.8,2.11-.8,3.35h0Z"/>
  <path class="cls-1" d="M261.42,107.48c-1.35,0-2.57-.24-3.68-.73-1.11-.49-2.07-1.16-2.88-2-.81-.85-1.44-1.83-1.88-2.94-.45-1.11-.67-2.29-.67-3.53,0-1.68.39-3.21,1.16-4.59.78-1.38,1.85-2.49,3.23-3.33s2.96-1.26,4.74-1.26,3.37.42,4.71,1.27c1.33.85,2.37,1.96,3.11,3.33s1.11,2.85,1.11,4.44c0,.23,0,.45-.02.66-.01.21-.03.38-.05.49h-14.82c.09,1.15.42,2.17.98,3.06.56.89,1.28,1.59,2.17,2.1s1.85.76,2.88.76c1.1,0,2.13-.27,3.1-.82.97-.55,1.64-1.27,2-2.16l2.6.72c-.39.87-.96,1.64-1.73,2.33-.76.68-1.67,1.22-2.7,1.61-1.04.39-2.16.58-3.37.58h.01ZM255.39,97.21h12.19c-.09-1.15-.42-2.16-.99-3.04s-1.3-1.57-2.19-2.06c-.89-.5-1.87-.74-2.94-.74s-2.02.25-2.91.74c-.89.5-1.61,1.18-2.17,2.06s-.88,1.89-.98,3.04h0Z"/>
  <path class="cls-1" d="M300.68,107.14h-3.01v-9.91c0-1.85-.3-3.22-.91-4.11-.6-.88-1.5-1.32-2.69-1.32s-2.31.43-3.29,1.31c-.98.87-1.68,2-2.09,3.38v10.65h-3.01v-9.91c0-1.88-.3-3.25-.89-4.12s-1.48-1.31-2.67-1.31-2.28.42-3.27,1.27c-.99.84-1.69,1.97-2.1,3.36v10.7h-3.01v-17.76h2.74v3.84c.73-1.31,1.68-2.33,2.84-3.04,1.16-.71,2.48-1.07,3.94-1.07s2.67.4,3.56,1.21c.89.8,1.44,1.84,1.64,3.11.8-1.4,1.77-2.47,2.91-3.21s2.44-1.1,3.9-1.1c1.03,0,1.89.19,2.58.56.7.37,1.25.89,1.66,1.56.41.67.71,1.46.89,2.36.18.91.27,1.89.27,2.96v10.6h.01Z"/>
  <path class="cls-1" d="M320.84,82.83h2.6l9.93,24.3h-3.29l-2.73-7.12h-10.45l-2.74,7.12h-3.29l9.96-24.3h.01ZM326.44,97.62l-4.3-11.23-4.32,11.23h8.62Z"/>
  <path class="cls-1" d="M342.47,107.48c-1.19,0-2.27-.25-3.25-.75s-1.83-1.17-2.53-2.02c-.71-.85-1.25-1.83-1.64-2.94s-.58-2.28-.58-3.5.22-2.42.65-3.53,1.03-2.08,1.8-2.92c.76-.84,1.66-1.5,2.69-1.99s2.13-.73,3.32-.73c1.39,0,2.66.34,3.8,1.04,1.14.69,2.04,1.57,2.7,2.63v-3.4h2.67v25.06h-3.01v-10.79c-1.64,2.56-3.85,3.84-6.61,3.84h-.01ZM343.5,104.88c.84,0,1.61-.17,2.31-.51s1.32-.79,1.87-1.37,1.02-1.21,1.4-1.91v-5.1c-.09-.59-.32-1.13-.68-1.64-.37-.51-.81-.96-1.33-1.37-.53-.41-1.09-.72-1.69-.95s-1.2-.34-1.8-.34c-.89,0-1.7.19-2.43.56-.73.37-1.36.88-1.9,1.51s-.95,1.34-1.25,2.13-.44,1.6-.44,2.44c0,1.17.26,2.26.77,3.25.51.99,1.22,1.79,2.1,2.39.89.6,1.92.9,3.08.9h-.01Z"/>
  <path class="cls-1" d="M356.78,100.02v-10.65h3.01v10.06c0,1.81.32,3.17.96,4.08.64.91,1.59,1.36,2.84,1.36.82,0,1.61-.17,2.38-.53.76-.35,1.46-.85,2.07-1.51.62-.66,1.1-1.44,1.44-2.34v-11.13h3.01v14.35c0,.36.07.63.22.8s.39.27.74.29v2.33c-.34.05-.61.07-.8.09-.19.01-.38.02-.56.02-.57,0-1.06-.17-1.47-.53-.41-.35-.63-.79-.65-1.31l-.07-2.08c-.78,1.32-1.82,2.34-3.13,3.06-1.31.73-2.74,1.09-4.3,1.09-1.87,0-3.29-.63-4.24-1.89-.96-1.26-1.44-3.11-1.44-5.56h-.01Z"/>
  <path class="cls-1" d="M376.12,102c0-1.13.33-2.11.98-2.94.65-.83,1.55-1.47,2.69-1.92s2.46-.68,3.97-.68c.8,0,1.64.06,2.53.19.89.13,1.68.31,2.36.56v-1.29c0-1.35-.41-2.41-1.23-3.19s-1.99-1.17-3.49-1.17c-.98,0-1.92.18-2.82.53s-1.85.86-2.86,1.52l-1.1-2.12c1.16-.8,2.33-1.4,3.49-1.8s2.37-.6,3.63-.6c2.28,0,4.08.63,5.41,1.88,1.32,1.26,1.98,3,1.98,5.24v7.5c0,.36.07.63.22.8.15.17.39.27.74.29v2.33c-.3.05-.55.08-.77.1-.22.02-.39.03-.53.03-.71,0-1.24-.19-1.59-.58-.35-.39-.55-.8-.6-1.23l-.07-1.13c-.78,1-1.79,1.78-3.05,2.33-1.26.55-2.5.82-3.73.82s-2.25-.24-3.18-.73c-.94-.49-1.67-1.15-2.19-1.97-.52-.83-.79-1.75-.79-2.77h0ZM387.75,103.25c.27-.32.49-.64.65-.97s.24-.6.24-.83v-2.2c-.71-.27-1.45-.48-2.23-.63s-1.54-.22-2.29-.22c-1.53,0-2.77.3-3.71.9-.95.6-1.42,1.42-1.42,2.46,0,.56.15,1.11.46,1.64.31.53.76.97,1.37,1.3.6.34,1.35.51,2.24.51.94,0,1.83-.19,2.67-.56s1.52-.84,2.02-1.41h0Z"/>
  <path class="cls-1" d="M404.39,107.48c-1.35,0-2.57-.24-3.68-.73-1.11-.49-2.07-1.16-2.88-2-.81-.85-1.44-1.83-1.88-2.94-.45-1.11-.67-2.29-.67-3.53,0-1.68.39-3.21,1.16-4.59.78-1.38,1.85-2.49,3.23-3.33s2.96-1.26,4.74-1.26,3.37.42,4.71,1.27c1.33.85,2.37,1.96,3.11,3.33s1.11,2.85,1.11,4.44c0,.23,0,.45-.02.66-.01.21-.03.38-.05.49h-14.82c.09,1.15.42,2.17.98,3.06.56.89,1.28,1.59,2.17,2.1s1.85.76,2.88.76c1.1,0,2.13-.27,3.1-.82s1.64-1.27,2-2.16l2.6.72c-.39.87-.96,1.64-1.73,2.33s-1.67,1.22-2.7,1.61c-1.04.39-2.16.58-3.37.58h.01ZM398.36,97.21h12.19c-.09-1.15-.42-2.16-.99-3.04-.57-.88-1.3-1.57-2.19-2.06-.89-.5-1.87-.74-2.94-.74s-2.02.25-2.91.74c-.89.5-1.61,1.18-2.17,2.06s-.88,1.89-.98,3.04h0Z"/>
  <path class="cls-1" d="M425.85,107.14v-24.3h16.05v2.74h-12.97v8.11h10.92v2.57h-10.92v10.88h-3.08Z"/>
  <path class="cls-1" d="M445.39,82.15h3.01v20.46c0,.99.14,1.59.41,1.82.27.23.6.34.99.34.48,0,.94-.05,1.37-.15s.8-.21,1.1-.33l.48,2.46c-.5.21-1.09.38-1.78.51s-1.29.21-1.81.21c-1.16,0-2.08-.33-2.75-1-.67-.66-1.01-1.59-1.01-2.78v-21.55h0Z"/>
  <path class="cls-1" d="M453.71,102c0-1.13.32-2.11.97-2.94.65-.83,1.55-1.47,2.69-1.92s2.46-.68,3.97-.68c.8,0,1.64.06,2.53.19s1.68.31,2.36.56v-1.29c0-1.35-.41-2.41-1.23-3.19s-1.99-1.17-3.49-1.17c-.98,0-1.92.18-2.82.53s-1.85.86-2.86,1.52l-1.1-2.12c1.16-.8,2.33-1.4,3.49-1.8s2.37-.6,3.63-.6c2.28,0,4.08.63,5.41,1.88,1.32,1.26,1.99,3,1.99,5.24v7.5c0,.36.07.63.22.8.15.17.39.27.74.29v2.33c-.3.05-.55.08-.77.1s-.39.03-.53.03c-.71,0-1.24-.19-1.59-.58-.35-.39-.55-.8-.6-1.23l-.07-1.13c-.78,1-1.79,1.78-3.05,2.33s-2.5.82-3.73.82-2.25-.24-3.18-.73c-.94-.49-1.67-1.15-2.19-1.97-.53-.83-.79-1.75-.79-2.77h0ZM465.35,103.25c.27-.32.49-.64.65-.97.16-.33.24-.6.24-.83v-2.2c-.71-.27-1.45-.48-2.22-.63-.78-.15-1.54-.22-2.29-.22-1.53,0-2.77.3-3.71.9s-1.42,1.42-1.42,2.46c0,.56.15,1.11.46,1.64.31.53.76.97,1.37,1.3.6.34,1.35.51,2.24.51.94,0,1.83-.19,2.67-.56.84-.37,1.52-.84,2.02-1.41h-.01Z"/>
  <path class="cls-1" d="M478.63,107.14l-7.02-17.76h3.15l5.61,14.91,5.61-14.91h2.94l-7.02,17.76h-3.29.02Z"/>
  <path class="cls-1" d="M491.94,85.91v-3.77h3.01v3.77h-3.01ZM491.94,107.14v-17.87h3.01v17.87h-3.01Z"/>
  <path class="cls-1" d="M498.41,102c0-1.13.32-2.11.97-2.94.65-.83,1.55-1.47,2.69-1.92s2.46-.68,3.97-.68c.8,0,1.64.06,2.53.19s1.68.31,2.36.56v-1.29c0-1.35-.41-2.41-1.23-3.19s-1.99-1.17-3.49-1.17c-.98,0-1.92.18-2.82.53s-1.85.86-2.86,1.52l-1.1-2.12c1.16-.8,2.33-1.4,3.49-1.8s2.37-.6,3.63-.6c2.28,0,4.08.63,5.41,1.88,1.32,1.26,1.99,3,1.99,5.24v7.5c0,.36.07.63.22.8.15.17.39.27.74.29v2.33c-.3.05-.55.08-.77.1s-.39.03-.53.03c-.71,0-1.24-.19-1.59-.58-.35-.39-.55-.8-.6-1.23l-.07-1.13c-.78,1-1.79,1.78-3.05,2.33s-2.5.82-3.73.82-2.25-.24-3.18-.73c-.94-.49-1.67-1.15-2.19-1.97-.53-.83-.79-1.75-.79-2.77h0ZM510.05,103.25c.27-.32.49-.64.65-.97.16-.33.24-.6.24-.83v-2.2c-.71-.27-1.45-.48-2.22-.63-.78-.15-1.54-.22-2.29-.22-1.53,0-2.77.3-3.71.9s-1.42,1.42-1.42,2.46c0,.56.15,1.11.46,1.64.31.53.76.97,1.37,1.3.6.34,1.35.51,2.24.51.94,0,1.83-.19,2.67-.56.84-.37,1.52-.84,2.02-1.41h-.01Z"/>
  <path class="cls-1" d="M526.68,107.48c-1.35,0-2.57-.24-3.68-.73-1.11-.49-2.07-1.16-2.88-2-.81-.85-1.44-1.83-1.88-2.94-.44-1.11-.67-2.29-.67-3.53,0-1.68.39-3.21,1.16-4.59.78-1.38,1.85-2.49,3.23-3.33s2.96-1.26,4.74-1.26,3.37.42,4.71,1.27c1.33.85,2.37,1.96,3.11,3.33s1.11,2.85,1.11,4.44c0,.23,0,.45-.02.66-.01.21-.03.38-.05.49h-14.82c.09,1.15.42,2.17.98,3.06.56.89,1.28,1.59,2.17,2.1s1.85.76,2.88.76c1.1,0,2.13-.27,3.1-.82s1.64-1.27,2-2.16l2.6.72c-.39.87-.96,1.64-1.73,2.33s-1.67,1.22-2.7,1.61c-1.04.39-2.16.58-3.37.58h.01ZM520.66,97.21h12.19c-.09-1.15-.42-2.16-.99-3.04s-1.3-1.57-2.19-2.06c-.89-.5-1.87-.74-2.94-.74s-2.02.25-2.91.74c-.89.5-1.61,1.18-2.17,2.06s-.88,1.89-.98,3.04h-.01Z"/>
  <path class="cls-1" d="M546.67,95.29c0-2.33.47-4.61,1.42-6.85.95-2.24,2.09-4.5,3.44-6.78l2.33,1.03c-.43.64-.9,1.45-1.4,2.43-.5.98-.98,2.05-1.44,3.22-.46,1.16-.83,2.35-1.11,3.56s-.43,2.37-.43,3.49c0,1.8.39,3.74,1.16,5.8.78,2.07,1.83,4.14,3.15,6.21l-2.23,1.16c-.96-1.44-1.81-2.89-2.55-4.36-.74-1.47-1.32-2.96-1.73-4.47s-.62-2.99-.62-4.45h0Z"/>
  <path class="cls-1" d="M555.57,94.78c0-1.48.26-2.94.77-4.36.51-1.43,1.27-2.73,2.26-3.9.99-1.17,2.21-2.11,3.65-2.81s3.07-1.04,4.89-1.04c2.17,0,4.03.5,5.58,1.49s2.7,2.26,3.46,3.82l-2.43,1.57c-.48-1.03-1.09-1.84-1.83-2.45-.74-.6-1.54-1.03-2.4-1.28s-1.69-.38-2.52-.38c-1.35,0-2.54.27-3.58.82-1.04.55-1.91,1.28-2.62,2.19s-1.24,1.93-1.59,3.06c-.35,1.13-.53,2.26-.53,3.41,0,1.25.21,2.46.63,3.63.42,1.16,1.01,2.19,1.76,3.08s1.64,1.6,2.67,2.12c1.03.53,2.14.79,3.35.79.84,0,1.71-.15,2.6-.44.89-.3,1.72-.76,2.5-1.39s1.39-1.44,1.85-2.45l2.57,1.4c-.5,1.21-1.28,2.24-2.33,3.08s-2.22,1.48-3.51,1.92c-1.29.43-2.56.65-3.82.65-1.67,0-3.2-.36-4.59-1.08s-2.6-1.68-3.61-2.88-1.8-2.54-2.36-4.04c-.56-1.49-.84-3.01-.84-4.54h.02Z"/>
  <path class="cls-1" d="M595.52,107.14h-3.01v-9.91c0-1.81-.33-3.17-.98-4.07-.65-.91-1.58-1.36-2.79-1.36-.78,0-1.56.2-2.34.61-.79.41-1.48.95-2.07,1.64s-1.03,1.48-1.3,2.38v10.7h-3.01v-24.99h3.01v11.06c.71-1.27,1.67-2.27,2.89-3.01,1.22-.74,2.54-1.1,3.95-1.1,1.07,0,1.97.19,2.69.56.72.37,1.29.9,1.73,1.58.43.68.75,1.47.94,2.36s.29,1.87.29,2.94v10.6h0Z"/>
  <path class="cls-1" d="M598.8,102c0-1.13.32-2.11.97-2.94.65-.83,1.55-1.47,2.69-1.92s2.46-.68,3.97-.68c.8,0,1.64.06,2.53.19s1.68.31,2.36.56v-1.29c0-1.35-.41-2.41-1.23-3.19s-1.99-1.17-3.49-1.17c-.98,0-1.92.18-2.82.53s-1.85.86-2.86,1.52l-1.1-2.12c1.16-.8,2.33-1.4,3.49-1.8s2.37-.6,3.63-.6c2.28,0,4.08.63,5.41,1.88,1.32,1.26,1.99,3,1.99,5.24v7.5c0,.36.07.63.22.8.15.17.39.27.74.29v2.33c-.3.05-.55.08-.77.1s-.39.03-.53.03c-.71,0-1.24-.19-1.59-.58-.35-.39-.55-.8-.6-1.23l-.07-1.13c-.78,1-1.79,1.78-3.05,2.33s-2.5.82-3.73.82-2.25-.24-3.18-.73c-.94-.49-1.67-1.15-2.19-1.97-.53-.83-.79-1.75-.79-2.77h0ZM610.44,103.25c.27-.32.49-.64.65-.97.16-.33.24-.6.24-.83v-2.2c-.71-.27-1.45-.48-2.22-.63-.78-.15-1.54-.22-2.29-.22-1.53,0-2.77.3-3.71.9s-1.42,1.42-1.42,2.46c0,.56.15,1.11.46,1.64.31.53.76.97,1.37,1.3.6.34,1.35.51,2.24.51.94,0,1.83-.19,2.67-.56.84-.37,1.52-.84,2.02-1.41h-.01Z"/>
  <path class="cls-1" d="M623.72,107.14l-7.02-17.76h3.15l5.61,14.91,5.61-14.91h2.94l-7.02,17.76h-3.29.02Z"/>
  <path class="cls-1" d="M644.33,107.48c-1.35,0-2.57-.24-3.68-.73-1.11-.49-2.07-1.16-2.88-2-.81-.85-1.44-1.83-1.88-2.94-.44-1.11-.67-2.29-.67-3.53,0-1.68.39-3.21,1.16-4.59.78-1.38,1.85-2.49,3.23-3.33s2.96-1.26,4.74-1.26,3.37.42,4.71,1.27c1.33.85,2.37,1.96,3.11,3.33s1.11,2.85,1.11,4.44c0,.23,0,.45-.02.66-.01.21-.03.38-.05.49h-14.82c.09,1.15.42,2.17.98,3.06.56.89,1.28,1.59,2.17,2.1s1.85.76,2.88.76c1.1,0,2.13-.27,3.1-.82s1.64-1.27,2-2.16l2.6.72c-.39.87-.96,1.64-1.73,2.33s-1.67,1.22-2.7,1.61c-1.04.39-2.16.58-3.37.58h.01ZM638.3,97.21h12.19c-.09-1.15-.42-2.16-.99-3.04s-1.3-1.57-2.19-2.06c-.89-.5-1.87-.74-2.94-.74s-2.02.25-2.91.74c-.89.5-1.61,1.18-2.17,2.06s-.88,1.89-.98,3.04h-.01Z"/>
  <path class="cls-1" d="M662.77,107.48c-1.48,0-2.88-.25-4.18-.74s-2.42-1.23-3.35-2.21l1.16-2.12c1.03.96,2.05,1.64,3.08,2.05,1.03.41,2.08.62,3.15.62,1.23,0,2.24-.23,3.01-.69.78-.46,1.16-1.14,1.16-2.04,0-.66-.2-1.14-.6-1.46s-.96-.58-1.69-.8-1.6-.46-2.6-.73c-1.23-.36-2.27-.75-3.11-1.15-.84-.41-1.48-.92-1.92-1.53-.43-.61-.65-1.38-.65-2.31,0-1.13.3-2.09.89-2.87s1.41-1.38,2.45-1.78,2.22-.61,3.54-.61,2.52.21,3.59.62,2,1.02,2.77,1.81l-1.37,2.09c-.71-.73-1.48-1.27-2.33-1.63-.84-.35-1.79-.53-2.84-.53-.62,0-1.22.07-1.81.22s-1.08.41-1.47.78c-.39.37-.58.9-.58,1.58,0,.57.15,1.01.46,1.34s.76.61,1.37.83c.6.23,1.34.48,2.21.75,1.35.38,2.52.77,3.51,1.15s1.76.88,2.31,1.49.82,1.46.82,2.54c0,1.67-.64,2.98-1.92,3.92-1.28.94-2.97,1.41-5.07,1.41h0Z"/>
  <path class="cls-1" d="M679.17,95.29c0,1.46-.21,2.94-.62,4.45s-.99,3-1.73,4.47-1.59,2.93-2.55,4.36l-2.22-1.16c1.32-2.08,2.37-4.15,3.15-6.21s1.16-4,1.16-5.8c0-1.12-.14-2.28-.43-3.49s-.66-2.4-1.11-3.56c-.46-1.16-.94-2.24-1.44-3.22s-.97-1.79-1.4-2.43l2.33-1.03c1.35,2.28,2.49,4.54,3.44,6.78s1.42,4.52,1.42,6.85h0Z"/>
  <path class="cls-1" d="M252.11,143.07c0-1.13.33-2.11.98-2.94.65-.83,1.55-1.47,2.69-1.92s2.46-.68,3.97-.68c.8,0,1.64.06,2.53.19.89.13,1.68.31,2.36.56v-1.29c0-1.35-.41-2.41-1.23-3.19s-1.99-1.17-3.49-1.17c-.98,0-1.92.18-2.82.53-.9.35-1.85.86-2.86,1.52l-1.1-2.12c1.16-.8,2.33-1.4,3.49-1.8,1.16-.4,2.37-.6,3.63-.6,2.28,0,4.08.63,5.41,1.88,1.32,1.26,1.98,3,1.98,5.24v7.5c0,.36.07.63.22.8s.39.27.74.29v2.33c-.3.05-.55.08-.77.1-.22.02-.39.03-.53.03-.71,0-1.24-.19-1.59-.58s-.55-.8-.6-1.23l-.07-1.13c-.78,1-1.79,1.78-3.05,2.33-1.26.55-2.5.82-3.73.82s-2.25-.24-3.18-.73c-.94-.49-1.67-1.15-2.19-1.97-.52-.83-.79-1.75-.79-2.77h0ZM263.74,144.33c.27-.32.49-.64.65-.97.16-.33.24-.6.24-.83v-2.2c-.71-.27-1.45-.48-2.23-.63s-1.54-.22-2.29-.22c-1.53,0-2.77.3-3.71.9-.95.6-1.42,1.42-1.42,2.46,0,.56.15,1.11.46,1.64s.76.97,1.37,1.3c.6.34,1.35.51,2.24.51.94,0,1.83-.19,2.67-.56s1.52-.84,2.02-1.41h0Z"/>
  <path class="cls-1" d="M281.61,148.21v-24.3h10.13c1.07,0,2.05.22,2.94.67s1.67,1.04,2.33,1.78c.66.74,1.17,1.57,1.54,2.5.36.92.55,1.87.55,2.82,0,1.32-.3,2.58-.89,3.78-.59,1.2-1.43,2.17-2.5,2.91s-2.33,1.11-3.77,1.11h-7.26v8.73h-3.08.01ZM284.69,136.74h7.08c.84,0,1.58-.23,2.21-.68.63-.46,1.12-1.07,1.47-1.85.35-.78.53-1.62.53-2.53,0-.96-.21-1.82-.62-2.58s-.95-1.36-1.61-1.8c-.66-.43-1.39-.65-2.19-.65h-6.88v10.1h.01Z"/>
  <path class="cls-1" d="M300.85,143.07c0-1.13.33-2.11.98-2.94.65-.83,1.55-1.47,2.69-1.92s2.46-.68,3.97-.68c.8,0,1.64.06,2.53.19.89.13,1.68.31,2.36.56v-1.29c0-1.35-.41-2.41-1.23-3.19s-1.99-1.17-3.49-1.17c-.98,0-1.92.18-2.82.53-.9.35-1.85.86-2.86,1.52l-1.1-2.12c1.16-.8,2.33-1.4,3.49-1.8,1.16-.4,2.37-.6,3.63-.6,2.28,0,4.08.63,5.41,1.88,1.32,1.26,1.98,3,1.98,5.24v7.5c0,.36.07.63.22.8s.39.27.74.29v2.33c-.3.05-.55.08-.77.1-.22.02-.39.03-.53.03-.71,0-1.24-.19-1.59-.58s-.55-.8-.6-1.23l-.07-1.13c-.78,1-1.79,1.78-3.05,2.33-1.26.55-2.5.82-3.73.82s-2.25-.24-3.18-.73c-.94-.49-1.67-1.15-2.19-1.97-.52-.83-.79-1.75-.79-2.77h0ZM312.48,144.33c.27-.32.49-.64.65-.97.16-.33.24-.6.24-.83v-2.2c-.71-.27-1.45-.48-2.23-.63s-1.54-.22-2.29-.22c-1.53,0-2.77.3-3.71.9-.95.6-1.42,1.42-1.42,2.46,0,.56.15,1.11.46,1.64s.76.97,1.37,1.3c.6.34,1.35.51,2.24.51.94,0,1.83-.19,2.67-.56s1.52-.84,2.02-1.41h0Z"/>
  <path class="cls-1" d="M330.32,147.42c-.25.11-.59.26-1.03.44-.43.18-.94.34-1.51.48-.57.14-1.18.21-1.81.21-.73,0-1.4-.13-2.02-.39s-1.11-.67-1.47-1.23c-.37-.56-.55-1.26-.55-2.11v-12.01h-2.43v-2.36h2.43v-5.96h3.01v5.96h4v2.36h-4v11.09c.05.64.26,1.11.65,1.42.39.31.84.46,1.37.46.59,0,1.14-.1,1.64-.31s.83-.35.99-.45l.72,2.4h0Z"/>
  <path class="cls-1" d="M342.57,132.98c-1.51.02-2.84.41-3.99,1.15-1.15.74-1.97,1.76-2.45,3.06v11.02h-3.01v-17.76h2.81v4.04c.62-1.23,1.43-2.23,2.45-3,1.02-.76,2.08-1.19,3.2-1.28h.58c.16,0,.3.01.41.03v2.74Z"/>
  <path class="cls-1" d="M345.55,126.99v-3.77h3.01v3.77h-3.01ZM345.55,148.21v-17.87h3.01v17.87h-3.01Z"/>
  <path class="cls-1" d="M380.36,148.21h-3.01v-9.91c0-1.85-.3-3.22-.91-4.11-.6-.88-1.5-1.32-2.69-1.32s-2.31.43-3.29,1.31c-.98.87-1.68,2-2.09,3.38v10.65h-3.01v-9.91c0-1.88-.3-3.25-.89-4.12s-1.48-1.31-2.67-1.31-2.28.42-3.27,1.27c-.99.84-1.69,1.97-2.1,3.36v10.7h-3.01v-17.76h2.74v3.84c.73-1.31,1.68-2.33,2.84-3.04,1.16-.71,2.48-1.07,3.94-1.07s2.67.4,3.56,1.21c.89.8,1.44,1.84,1.64,3.11.8-1.4,1.77-2.47,2.91-3.21,1.14-.74,2.44-1.1,3.9-1.1,1.03,0,1.89.19,2.58.56.7.37,1.25.89,1.66,1.56s.71,1.46.89,2.36c.18.91.27,1.89.27,2.96v10.6h.01Z"/>
  <path class="cls-1" d="M392.85,148.55c-1.35,0-2.57-.24-3.66-.73-1.1-.49-2.04-1.16-2.84-2-.8-.85-1.42-1.83-1.85-2.94s-.65-2.28-.65-3.5.22-2.42.65-3.53c.43-1.11,1.05-2.09,1.85-2.94.8-.85,1.75-1.52,2.86-2,1.11-.49,2.32-.73,3.65-.73s2.57.24,3.66.73c1.1.49,2.05,1.16,2.86,2,.81.85,1.43,1.83,1.87,2.94s.65,2.29.65,3.53-.22,2.39-.65,3.5-1.05,2.09-1.85,2.94c-.8.85-1.75,1.52-2.86,2-1.11.49-2.33.73-3.68.73h0ZM386.93,139.41c0,1.22.27,2.33.8,3.32.54.99,1.25,1.78,2.14,2.35.89.58,1.88.86,2.98.86s2.09-.29,3-.88c.9-.59,1.62-1.38,2.16-2.39.54-1,.8-2.12.8-3.34s-.27-2.33-.8-3.32c-.54-.99-1.26-1.78-2.16-2.37-.9-.59-1.9-.88-3-.88s-2.09.3-2.98.9c-.89.6-1.6,1.39-2.14,2.39-.54.99-.8,2.11-.8,3.35h0ZM393.91,127.37l-1.99-.68,1.99-3.46h3.01l-3.01,4.14Z"/>
  <path class="cls-1" d="M421.06,148.21h-3.01v-9.91c0-1.88-.29-3.25-.87-4.12s-1.47-1.31-2.65-1.31c-.82,0-1.64.2-2.45.61s-1.53.95-2.16,1.64-1.08,1.48-1.35,2.38v10.7h-3.01v-17.76h2.74v3.84c.48-.84,1.09-1.56,1.85-2.17s1.61-1.09,2.57-1.43,1.96-.51,3.01-.51,1.89.19,2.58.56c.7.37,1.24.89,1.64,1.56s.68,1.46.86,2.36c.17.91.26,1.89.26,2.96v10.6h0Z"/>
  <path class="cls-1" d="M425.75,126.99v-3.77h3.01v3.77h-3.01ZM425.75,148.21v-17.87h3.01v17.87h-3.01Z"/>
  <path class="cls-1" d="M441.42,148.55c-1.35,0-2.57-.24-3.66-.73-1.1-.49-2.04-1.16-2.84-2-.8-.85-1.42-1.83-1.85-2.94s-.65-2.28-.65-3.5.22-2.42.65-3.53c.43-1.11,1.05-2.09,1.85-2.94.8-.85,1.75-1.52,2.86-2,1.11-.49,2.32-.73,3.65-.73s2.57.24,3.66.73c1.1.49,2.05,1.16,2.86,2,.81.85,1.43,1.83,1.87,2.94s.65,2.29.65,3.53-.22,2.39-.65,3.5c-.43,1.11-1.05,2.09-1.85,2.94s-1.75,1.52-2.86,2c-1.11.49-2.33.73-3.68.73h-.01ZM435.5,139.41c0,1.22.27,2.33.8,3.32.54.99,1.25,1.78,2.14,2.35.89.58,1.88.86,2.98.86s2.09-.29,3-.88c.9-.59,1.62-1.38,2.16-2.39s.8-2.12.8-3.34-.27-2.33-.8-3.32c-.54-.99-1.25-1.78-2.16-2.37-.9-.59-1.9-.88-3-.88s-2.09.3-2.98.9c-.89.6-1.6,1.39-2.14,2.39-.54.99-.8,2.11-.8,3.35h0Z"/>
  <path class="cls-1" d="M484.28,148.21v-18.55l-8.01,14.27h-1.88l-8.04-14.27v18.55h-3.08v-24.3h3.25l8.8,15.78,8.83-15.78h3.22v24.3h-3.09Z"/>
  <path class="cls-1" d="M492.52,141.1v-10.65h3.01v10.06c0,1.81.32,3.17.96,4.08.64.91,1.59,1.36,2.84,1.36.82,0,1.61-.17,2.38-.53.76-.35,1.46-.85,2.07-1.51.62-.66,1.09-1.44,1.44-2.34v-11.13h3.01v14.35c0,.36.07.63.22.8s.39.27.74.29v2.33c-.34.05-.61.07-.8.09-.19.01-.38.02-.56.02-.57,0-1.06-.17-1.47-.53-.41-.35-.63-.79-.65-1.31l-.07-2.08c-.78,1.32-1.82,2.34-3.13,3.06-1.31.73-2.74,1.09-4.29,1.09-1.87,0-3.29-.63-4.25-1.89s-1.44-3.11-1.44-5.56h-.01Z"/>
  <path class="cls-1" d="M528.77,148.21h-3.01v-9.91c0-1.88-.29-3.25-.87-4.12s-1.47-1.31-2.65-1.31c-.82,0-1.64.2-2.45.61s-1.53.95-2.16,1.64-1.08,1.48-1.35,2.38v10.7h-3.01v-17.76h2.74v3.84c.48-.84,1.09-1.56,1.85-2.17s1.61-1.09,2.57-1.43,1.96-.51,3.01-.51,1.89.19,2.58.56c.7.37,1.24.89,1.64,1.56s.68,1.46.86,2.36c.17.91.26,1.89.26,2.96v10.6h-.01Z"/>
  <path class="cls-1" d="M532.3,139.38c0-1.68.35-3.21,1.04-4.6.7-1.39,1.65-2.51,2.88-3.35s2.62-1.26,4.19-1.26c1.44,0,2.73.38,3.87,1.13s2.03,1.67,2.67,2.74v-10.82h3.01v21.56c0,.37.07.63.22.8.15.17.39.27.74.29v2.33c-.57.09-1.02.14-1.33.14-.59,0-1.11-.21-1.56-.62-.44-.41-.67-.87-.67-1.37v-1.51c-.71,1.14-1.66,2.04-2.84,2.7-1.19.66-2.42.99-3.7.99s-2.37-.24-3.41-.73-1.94-1.16-2.7-2.02c-.76-.86-1.36-1.84-1.78-2.94s-.63-2.26-.63-3.48v.02ZM546.95,141.99v-5.08c-.27-.77-.72-1.46-1.33-2.08s-1.31-1.12-2.07-1.49-1.52-.56-2.28-.56c-.89,0-1.69.19-2.41.56s-1.33.87-1.85,1.49-.91,1.33-1.18,2.12-.41,1.62-.41,2.47.15,1.72.46,2.51c.31.79.74,1.49,1.3,2.1s1.21,1.08,1.95,1.42c.74.34,1.55.51,2.41.51.55,0,1.11-.1,1.69-.3s1.13-.49,1.66-.85c.53-.36.97-.79,1.33-1.27.37-.49.6-1,.72-1.54h.01Z"/>
  <path class="cls-1" d="M554.99,126.99v-3.77h3.01v3.77h-3.01ZM554.99,148.21v-17.87h3.01v17.87h-3.01Z"/>
  <path class="cls-1" d="M561.46,143.07c0-1.13.32-2.11.97-2.94.65-.83,1.55-1.47,2.69-1.92s2.46-.68,3.97-.68c.8,0,1.64.06,2.53.19s1.68.31,2.36.56v-1.29c0-1.35-.41-2.41-1.23-3.19s-1.99-1.17-3.49-1.17c-.98,0-1.92.18-2.82.53s-1.85.86-2.86,1.52l-1.1-2.12c1.16-.8,2.33-1.4,3.49-1.8s2.37-.6,3.63-.6c2.28,0,4.08.63,5.41,1.88,1.32,1.26,1.99,3,1.99,5.24v7.5c0,.36.07.63.22.8.15.17.39.27.74.29v2.33c-.3.05-.55.08-.77.1s-.39.03-.53.03c-.71,0-1.24-.19-1.59-.58-.35-.39-.55-.8-.6-1.23l-.07-1.13c-.78,1-1.79,1.78-3.05,2.33s-2.5.82-3.73.82-2.25-.24-3.18-.73c-.94-.49-1.67-1.15-2.19-1.97-.53-.83-.79-1.75-.79-2.77h0ZM573.1,144.33c.27-.32.49-.64.65-.97.16-.33.24-.6.24-.83v-2.2c-.71-.27-1.45-.48-2.22-.63-.78-.15-1.54-.22-2.29-.22-1.53,0-2.77.3-3.71.9s-1.42,1.42-1.42,2.46c0,.56.15,1.11.46,1.64s.76.97,1.37,1.3c.6.34,1.35.51,2.24.51.94,0,1.83-.19,2.67-.56.84-.37,1.52-.84,2.02-1.41h-.01Z"/>
  <path class="cls-1" d="M581.89,123.22h3.01v20.46c0,.99.14,1.59.41,1.82.27.23.6.34.99.34.48,0,.94-.05,1.37-.15s.8-.21,1.1-.33l.48,2.46c-.5.21-1.09.38-1.78.51s-1.29.21-1.81.21c-1.16,0-2.08-.33-2.75-1-.67-.66-1.01-1.59-1.01-2.78v-21.55h0Z"/>
  <path class="cls-1" d="M252.35,180.45c0-1.68.35-3.21,1.04-4.6.7-1.39,1.65-2.51,2.88-3.35s2.62-1.26,4.19-1.26c1.44,0,2.73.38,3.87,1.13,1.14.75,2.03,1.67,2.67,2.74v-10.82h3.01v21.56c0,.37.07.63.22.8s.39.27.74.29v2.33c-.57.09-1.02.14-1.33.14-.59,0-1.11-.21-1.56-.62s-.67-.87-.67-1.37v-1.51c-.71,1.14-1.65,2.04-2.84,2.7-1.19.66-2.42.99-3.7.99s-2.37-.24-3.41-.73-1.94-1.16-2.7-2.02c-.77-.86-1.36-1.84-1.78-2.94s-.63-2.26-.63-3.48v.02ZM267,183.06v-5.08c-.27-.77-.72-1.46-1.33-2.08-.62-.62-1.31-1.12-2.07-1.49-.77-.37-1.52-.56-2.28-.56-.89,0-1.69.19-2.41.56s-1.33.87-1.85,1.49c-.51.62-.91,1.33-1.18,2.12s-.41,1.62-.41,2.47.15,1.72.46,2.51c.31.79.74,1.49,1.3,2.1s1.21,1.08,1.95,1.42c.74.34,1.55.51,2.41.51.55,0,1.11-.1,1.69-.3.58-.2,1.13-.49,1.66-.85.52-.36.97-.79,1.33-1.27.36-.49.6-1,.72-1.54h.01Z"/>
  <path class="cls-1" d="M273.64,184.15c0-1.13.33-2.11.98-2.94.65-.83,1.55-1.47,2.69-1.92s2.46-.68,3.97-.68c.8,0,1.64.06,2.53.19.89.13,1.68.31,2.36.56v-1.29c0-1.35-.41-2.41-1.23-3.19s-1.99-1.17-3.49-1.17c-.98,0-1.92.18-2.82.53-.9.35-1.85.86-2.86,1.52l-1.1-2.12c1.16-.8,2.33-1.4,3.49-1.8,1.16-.4,2.37-.6,3.63-.6,2.28,0,4.08.63,5.41,1.88,1.32,1.26,1.98,3,1.98,5.24v7.5c0,.36.07.63.22.8s.39.27.74.29v2.33c-.3.05-.55.08-.77.1-.22.02-.39.03-.53.03-.71,0-1.24-.19-1.59-.58s-.55-.8-.6-1.23l-.07-1.13c-.78,1-1.79,1.78-3.05,2.33-1.26.55-2.5.82-3.73.82s-2.25-.24-3.18-.73c-.94-.49-1.67-1.15-2.19-1.97-.52-.83-.79-1.75-.79-2.77h0ZM285.27,185.4c.27-.32.49-.64.65-.97.16-.33.24-.6.24-.83v-2.2c-.71-.27-1.45-.48-2.23-.63s-1.54-.22-2.29-.22c-1.53,0-2.77.3-3.71.9-.95.6-1.42,1.42-1.42,2.46,0,.56.15,1.11.46,1.64s.76.97,1.37,1.3c.6.34,1.35.51,2.24.51.94,0,1.83-.19,2.67-.56s1.52-.84,2.02-1.41h0Z"/>
  <path class="cls-1" d="M313.17,189.45c-1.94,0-3.57-.34-4.89-1.01s-2.38-1.59-3.18-2.74c-.8-1.15-1.38-2.46-1.75-3.92-.37-1.46-.55-2.97-.55-4.52v-12.29h3.08v12.29c0,1.19.12,2.34.36,3.47.24,1.13.63,2.14,1.18,3.03s1.29,1.6,2.23,2.12c.94.53,2.1.79,3.49.79s2.59-.27,3.53-.8c.94-.54,1.68-1.25,2.23-2.16.55-.9.94-1.91,1.18-3.03.24-1.12.36-2.26.36-3.42v-12.29h3.08v12.29c0,1.64-.19,3.2-.56,4.67s-.98,2.77-1.8,3.88c-.82,1.12-1.89,2-3.2,2.65s-2.9.98-4.77.98h-.02Z"/>
  <path class="cls-1" d="M332.06,170.66v18.62h-3.08v-24.3h2.6l14.86,19v-18.96h3.08v24.27h-2.81l-14.65-18.62h0Z"/>
  <path class="cls-1" d="M371.84,186.55v2.74h-16.5v-24.3h16.19v2.74h-13.11v7.87h11.4v2.57h-11.4v8.39h13.42,0Z"/>
  <path class="cls-1" d="M390.32,170.08c-.27-.32-.64-.63-1.1-.92-.46-.3-.97-.57-1.54-.8-.57-.24-1.19-.43-1.87-.58-.67-.15-1.38-.22-2.1-.22-1.87,0-3.25.35-4.14,1.06s-1.33,1.67-1.33,2.9c0,.86.23,1.55.68,2.05.46.5,1.16.91,2.1,1.23.95.32,2.15.65,3.61.99,1.69.36,3.15.81,4.38,1.33s2.18,1.22,2.84,2.1.99,2.04.99,3.5c0,1.16-.22,2.17-.67,3.02-.45.85-1.07,1.56-1.87,2.12s-1.73.97-2.81,1.23c-1.07.26-2.24.39-3.49.39s-2.44-.13-3.61-.39c-1.18-.26-2.29-.64-3.34-1.15-1.05-.5-2.03-1.13-2.94-1.88l1.47-2.6c.36.39.84.77,1.42,1.15.58.38,1.24.72,1.99,1.04.74.32,1.55.58,2.41.77.87.19,1.76.29,2.67.29,1.73,0,3.08-.31,4.04-.94.96-.62,1.44-1.54,1.44-2.74,0-.91-.27-1.64-.8-2.18-.54-.55-1.33-1-2.38-1.37-1.05-.36-2.33-.73-3.83-1.09-1.64-.41-3.02-.86-4.14-1.35-1.12-.49-1.96-1.13-2.52-1.93s-.84-1.83-.84-3.11c0-1.55.38-2.85,1.13-3.92s1.79-1.88,3.11-2.42c1.32-.55,2.82-.82,4.48-.82,1.1,0,2.12.11,3.06.34.95.23,1.83.55,2.65.96.82.41,1.57.9,2.26,1.47l-1.44,2.5.03-.03Z"/>
  <path class="cls-1" d="M395.32,176.93c0-1.48.26-2.94.77-4.36.51-1.43,1.27-2.73,2.26-3.9.99-1.17,2.21-2.11,3.65-2.81s3.07-1.04,4.89-1.04c2.17,0,4.03.5,5.58,1.49s2.7,2.26,3.46,3.82l-2.43,1.57c-.48-1.03-1.09-1.84-1.83-2.45-.74-.6-1.54-1.03-2.4-1.28s-1.69-.38-2.52-.38c-1.35,0-2.54.27-3.58.82-1.04.55-1.91,1.28-2.62,2.19s-1.24,1.93-1.59,3.06-.53,2.26-.53,3.41c0,1.25.21,2.46.63,3.63.42,1.16,1.01,2.19,1.76,3.08s1.64,1.6,2.67,2.12c1.03.53,2.14.79,3.35.79.84,0,1.71-.15,2.6-.44.89-.3,1.72-.76,2.5-1.39s1.39-1.44,1.85-2.45l2.57,1.4c-.5,1.21-1.28,2.24-2.33,3.08s-2.22,1.48-3.51,1.92c-1.29.43-2.56.65-3.82.65-1.67,0-3.2-.36-4.59-1.08-1.39-.72-2.6-1.68-3.61-2.88s-1.8-2.54-2.36-4.04c-.56-1.49-.84-3.01-.84-4.54h.02Z"/>
  <path class="cls-1" d="M429.82,189.45c-1.71,0-3.26-.34-4.66-1.03-1.39-.68-2.6-1.61-3.61-2.79-1.02-1.17-1.8-2.5-2.34-3.97-.55-1.47-.82-2.98-.82-4.54s.29-3.17.87-4.64,1.39-2.78,2.43-3.94c1.04-1.15,2.25-2.06,3.65-2.74,1.39-.67,2.91-1.01,4.55-1.01s3.26.35,4.66,1.06c1.39.71,2.59,1.65,3.59,2.84s1.78,2.51,2.33,3.97c.55,1.46.82,2.96.82,4.48,0,1.62-.29,3.17-.86,4.64-.57,1.47-1.38,2.78-2.41,3.94-1.04,1.15-2.25,2.06-3.65,2.72s-2.91.99-4.55.99v.02ZM421.5,177.13c0,1.23.2,2.42.6,3.58.4,1.15.96,2.17,1.69,3.06s1.61,1.6,2.64,2.12c1.03.53,2.17.79,3.42.79s2.46-.27,3.49-.82,1.9-1.28,2.62-2.19,1.27-1.94,1.64-3.08c.38-1.14.56-2.29.56-3.46,0-1.23-.2-2.42-.6-3.56s-.97-2.16-1.71-3.06-1.62-1.61-2.64-2.12-2.14-.77-3.37-.77c-1.3,0-2.46.27-3.49.8-1.03.54-1.9,1.26-2.62,2.17s-1.27,1.93-1.66,3.06-.58,2.29-.58,3.47h0Z"/>
</svg>